<?xml version="1.0" encoding="UTF-8"?>
<svg width="22px" height="22px" viewBox="0 0 22 22" version="1.1" xmlns="http://www.w3.org/2000/svg" xmlns:xlink="http://www.w3.org/1999/xlink">
    <title>6BD15DB1-6D3C-4962-B609-7EBC176F83F6</title>
    <g id="Dizains" stroke="none" stroke-width="1" fill="none" fill-rule="evenodd">
        <g id="05.-Kategorijas-atvērums" transform="translate(-239.000000, -1204.000000)" fill="#FFFFFF" fill-rule="nonzero">
            <g id="Page-content" transform="translate(215.000000, 174.000000)">
                <g id="Filters" transform="translate(0.000000, 668.000000)">
                    <g transform="translate(0.000000, 40.000000)" id="Filtre-2">
                        <g transform="translate(0.000000, 217.000000)">
                            <g id="Form" transform="translate(24.000000, 73.000000)">
                                <g id="Icon" transform="translate(0.000000, 32.000000)">
                                    <path d="M16.2928932,6.29289322 C16.6834175,5.90236893 17.3165825,5.90236893 17.7071068,6.29289322 C18.0675907,6.65337718 18.0953203,7.22060824 17.7902954,7.61289944 L17.7071068,7.70710678 L9.70710678,15.7071068 C9.34662282,16.0675907 8.77939176,16.0953203 8.38710056,15.7902954 L8.29289322,15.7071068 L6.29289322,13.7071068 C5.90236893,13.3165825 5.90236893,12.6834175 6.29289322,12.2928932 C6.65337718,11.9324093 7.22060824,11.9046797 7.61289944,12.2097046 L7.70710678,12.2928932 L9,13.585 L16.2928932,6.29289322 Z" id="icon"></path>
                                </g>
                            </g>
                        </g>
                    </g>
                </g>
            </g>
        </g>
    </g>
</svg>
