<?xml version="1.0" encoding="UTF-8"?>
<svg width="22px" height="22px" viewBox="0 0 22 22" version="1.1" xmlns="http://www.w3.org/2000/svg" xmlns:xlink="http://www.w3.org/1999/xlink">
    <title>FFDFD993-CF17-4F39-B9FF-A0F52D9234E5</title>
    <g id="Page-1" stroke="none" stroke-width="1" fill="none" fill-rule="evenodd">
        <g id="Homepage" transform="translate(-995.000000, -34.000000)">
            <g id="Header" transform="translate(-1.000000, 0.000000)">
                <g id="1-row" transform="translate(1.000000, 0.000000)">
                    <g id="Right-side" transform="translate(995.000000, 25.000000)">
                        <g id="ic-call" transform="translate(0.000000, 9.000000)">
                            <rect id="icon-space" x="3.81173436e-06" y="7.43525133e-05" width="22" height="22"></rect>
                            <path d="M11,0 C17.0751322,0 22,4.92486775 22,11 C22,17.0751322 17.0751322,22 11,22 C4.92486775,22 0,17.0751322 0,11 C0,4.92486775 4.92486775,0 11,0 Z M13.9787785,12.0004346 L8.02122154,12.0004346 C8.05631102,12.8250092 8.13375654,13.6141869 8.24487886,14.3535807 L8.3343994,14.8985667 C8.87592707,17.9313779 9.98654982,20 11,20 C12.0134502,20 13.1240729,17.9313779 13.6656006,14.8985667 L13.7551211,14.3535807 C13.8662435,13.6141869 13.943689,12.8250092 13.9787785,12.0004346 Z M6.01847249,12.0006406 L2.05500569,12.0006406 C2.42574803,15.3521027 4.6367105,18.1487926 7.65500314,19.3578752 C6.76157224,17.6341787 6.18978295,15.1994627 6.03958477,12.4599743 L6.01847249,12.0006406 Z M19.9449943,12.0006406 L15.9815275,12.0006406 C15.8727565,14.9267442 15.2880628,17.5384178 14.3451588,19.358304 C17.271831,18.1854444 19.439513,15.5201416 19.9062497,12.303812 L19.9449943,12.0006406 Z M7.65484124,2.64169598 L7.49679384,2.70726461 C4.55935236,3.94969759 2.41880673,6.70728988 2.05489527,10.0003618 L6.01843525,10.0003618 C6.12139028,7.22787902 6.65159878,4.73761501 7.50893932,2.93559109 L7.65484124,2.64169598 Z M11,2 L10.909991,2.00538207 C10.1738657,2.09296844 9.39726511,3.24388909 8.83165743,5.04129986 L8.69479672,5.50387987 C8.51856476,6.137968 8.36810486,6.84002869 8.25273066,7.59462328 L8.17292411,8.1701781 C8.09998718,8.75510056 8.04809568,9.36740228 8.02117881,10.0005701 L13.9788212,10.0005701 C13.7903863,5.56799982 12.3779761,2.15804928 11.0896639,2.00534108 L11,2 Z M14.3449969,2.64212484 L14.3819675,2.71350051 C15.3033808,4.53015515 15.874311,7.11211962 15.9815647,10.0003618 L19.9451047,10.0003618 C19.5746912,6.64845291 17.3635893,3.85132753 14.3449969,2.64212484 Z" id="Shape" fill="#A1AAB3" fill-rule="nonzero"></path>
                        </g>
                    </g>
                </g>
            </g>
        </g>
    </g>
</svg>