<?xml version="1.0" encoding="UTF-8"?>
<svg width="6px" height="4px" viewBox="0 0 6 4" version="1.1" xmlns="http://www.w3.org/2000/svg" xmlns:xlink="http://www.w3.org/1999/xlink">
    <title>6DC300A4-4572-406B-985B-9779D41986E6</title>
    <g id="Dizains" stroke="none" stroke-width="1" fill="none" fill-rule="evenodd">
        <g id="05.-Kategorijas-atvērums" transform="translate(-1379.000000, -256.000000)">
            <g id="Page-content" transform="translate(215.000000, 174.000000)">
                <g id="Content" transform="translate(300.000000, 0.000000)">
                    <g id="Block-head" transform="translate(0.000000, 56.000000)">
                        <g id="Right-side" transform="translate(435.000000, 16.000000)">
                            <g id="Sort-by" transform="translate(171.000000, 0.000000)">
                                <g id="Dropdown-icon-/-Down" transform="translate(258.000000, 10.000000)">
                                    <rect id="icon-space" x="0" y="0" width="6" height="4"></rect>
                                    <path d="M1.53033009,0.469669914 C1.23743687,0.176776695 0.762563133,0.176776695 0.469669914,0.469669914 C0.176776695,0.762563133 0.176776695,1.23743687 0.469669914,1.53033009 L2.46966991,3.53033009 C2.76256313,3.8232233 3.23743687,3.8232233 3.53033009,3.53033009 L5.53033009,1.53033009 C5.8232233,1.23743687 5.8232233,0.762563133 5.53033009,0.469669914 C5.23743687,0.176776695 4.76256313,0.176776695 4.46966991,0.469669914 L3,1.93933983 L1.53033009,0.469669914 Z" id="icon" fill="#A1AAB3" fill-rule="nonzero"></path>
                                </g>
                            </g>
                        </g>
                    </g>
                </g>
            </g>
        </g>
    </g>
</svg>