<?xml version="1.0" encoding="UTF-8"?>
<svg width="16px" height="16px" viewBox="0 0 16 16" version="1.1" xmlns="http://www.w3.org/2000/svg" xmlns:xlink="http://www.w3.org/1999/xlink">
    <title>2C9AEE9C-7BBE-48FA-ACFB-01CE0697E6D3</title>
    <g id="Dizains" stroke="none" stroke-width="1" fill="none" fill-rule="evenodd">
        <g id="08.05.-Checkout---Saņemt-pakomātā---Dropdowns-&amp;-Hovers" transform="translate(-845.000000, -905.000000)" fill="#A8B1B9" fill-rule="nonzero">
            <g id="Content" transform="translate(215.000000, 200.000000)">
                <g id="Form" transform="translate(0.000000, 72.000000)">
                    <g id="Content" transform="translate(50.000000, 40.000000)">
                        <g id="Delivery-information" transform="translate(0.000000, 248.000000)">
                            <g id="Form" transform="translate(0.000000, 50.000000)">
                                <g transform="translate(0.000000, 49.000000)" id="Dropdown">
                                    <g transform="translate(30.000000, 31.000000)">
                                        <g transform="translate(1.000000, 179.000000)">
                                            <g id="Search" transform="translate(23.000000, 24.000000)">
                                                <path d="M533.5,12 C537.642136,12 541,15.3578644 541,19.5 C541,21.2106044 540.427318,22.7874516 539.463219,24.0492761 L541.707107,26.2928932 C542.097631,26.6834175 542.097631,27.3165825 541.707107,27.7071068 C541.346623,28.0675907 540.779392,28.0953203 540.387101,27.7902954 L540.292893,27.7071068 L538.049276,25.4632192 C536.787452,26.4273178 535.210604,27 533.5,27 C529.357864,27 526,23.6421356 526,19.5 C526,15.3578644 529.357864,12 533.5,12 Z M533.5,14 C530.462434,14 528,16.4624339 528,19.5 C528,22.5375661 530.462434,25 533.5,25 C536.537566,25 539,22.5375661 539,19.5 C539,16.4624339 536.537566,14 533.5,14 Z" id="ic-search"></path>
                                            </g>
                                        </g>
                                    </g>
                                </g>
                            </g>
                        </g>
                    </g>
                </g>
            </g>
        </g>
    </g>
</svg>