<?xml version="1.0" encoding="UTF-8"?>
<svg width="22px" height="22px" viewBox="0 0 22 22" version="1.1" xmlns="http://www.w3.org/2000/svg" xmlns:xlink="http://www.w3.org/1999/xlink">
    <title>6E1EAE6D-4DDD-44B3-9F39-1897DBE8DB60</title>
    <g id="Design" stroke="none" stroke-width="1" fill="none" fill-rule="evenodd">
        <g id="01.01.-Homepage" transform="translate(-1249.000000, -76.000000)">
            <g id="Row-2" transform="translate(0.000000, 32.000000)">
                <g id="Content" transform="translate(215.000000, 20.000000)">
                    <g id="User" transform="translate(970.000000, 10.000000)">
                        <g id="Search" transform="translate(50.000000, 0.000000)">
                            <g id="Icon" transform="translate(14.000000, 14.000000)">
                                <rect id="icon-space" x="3.81173595e-06" y="7.43525134e-05" width="22" height="22"></rect>
                                <path d="M21.7071068,20.2928932 L20.2928932,21.7071068 L17.2928932,18.7071068 C17.256012,18.6702256 17.2226139,18.6311803 17.1926988,18.5903796 C15.3767671,20.0952358 13.0440431,21 10.5,21 C4.70101013,21 1.8189894e-12,16.2989899 1.8189894e-12,10.5 C1.8189894e-12,4.70101013 4.70101013,0 10.5,0 C16.2989899,0 21,4.70101013 21,10.5 C21,13.0440431 20.0952358,15.3767671 18.589925,17.1939546 C18.6311803,17.2226139 18.6702256,17.256012 18.7071068,17.2928932 L21.7071068,20.2928932 Z M10.5,2 C5.80557963,2 2,5.80557963 2,10.5 C2,15.1944204 5.80557963,19 10.5,19 C15.1944204,19 19,15.1944204 19,10.5 C19,5.80557963 15.1944204,2 10.5,2 Z" id="icon" fill="#212222" fill-rule="nonzero"></path>
                            </g>
                        </g>
                    </g>
                </g>
            </g>
        </g>
    </g>
</svg>