<?xml version="1.0" encoding="UTF-8"?>
<svg width="22px" height="22px" viewBox="0 0 22 22" version="1.1" xmlns="http://www.w3.org/2000/svg" xmlns:xlink="http://www.w3.org/1999/xlink">
    <title>586155F5-6A28-422E-8FEF-E887C6E2762E</title>
    <g id="Page-1" stroke="none" stroke-width="1" fill="none" fill-rule="evenodd">
        <g id="Homepage" transform="translate(-1271.000000, -34.000000)">
            <g id="Header" transform="translate(-1.000000, 0.000000)">
                <g id="1-row" transform="translate(1.000000, 0.000000)">
                    <g id="Right-side" transform="translate(995.000000, 25.000000)">
                        <g id="Profile" transform="translate(276.000000, 0.000000)">
                            <g id="ic-user" transform="translate(0.000000, 9.000000)">
                                <rect id="icon-space" x="0" y="0" width="22" height="22"></rect>
                                <path d="M11,0 C8.23857625,0 6,2.23857625 6,5 C6,7.76142375 8.23857625,10 11,10 C13.7614237,10 16,7.76142375 16,5 C16,2.23857625 13.7614237,0 11,0 Z M11,2 C12.6568542,2 14,3.34314575 14,5 C14,6.65685425 12.6568542,8 11,8 C9.34314575,8 8,6.65685425 8,5 C8,3.34314575 9.34314575,2 11,2 Z M12.4368871,11.74137 C15.6726924,10.5849908 18.3544887,12.3590869 19.5292,15.9612973 L19.6069474,16.2097224 L20.9578263,20.7126521 C21.1165241,21.241645 20.8163407,21.7991284 20.2873479,21.9578263 C19.7961402,22.1051886 19.2803667,21.8568828 19.0821285,21.3971175 L19.0421737,21.2873479 L17.6913158,16.7844883 C16.8849535,14.0973284 15.3079267,12.9452241 13.2995473,13.5617096 L13.1100084,13.6246936 C12.4124576,13.8740351 11.7076661,14 11,14 C10.393429,14 9.78897004,13.9074544 9.18941619,13.7240086 L8.89006095,13.6247184 C6.85498614,12.897444 5.2407257,13.9460806 4.38654726,16.5370075 L4.30870519,16.7844182 L2.95782629,21.2873479 C2.79912843,21.8163407 2.24164496,22.1165241 1.71265211,21.9578263 C1.22144447,21.810464 0.927526598,21.3192508 1.01510688,20.8262881 L1.04217371,20.7126521 L2.39307366,16.2096523 C3.52389766,12.4412413 6.25376661,10.5587094 9.5631822,11.7413948 C10.0479068,11.914661 10.5253908,12 11,12 C11.4746092,12 11.9520932,11.914661 12.4368871,11.74137 Z" id="Shape" fill="#A1AAB3"></path>
                            </g>
                        </g>
                    </g>
                </g>
            </g>
        </g>
    </g>
</svg>