<?xml version="1.0" encoding="UTF-8"?>
<svg width="134px" height="27px" viewBox="0 0 134 27" version="1.1" xmlns="http://www.w3.org/2000/svg" xmlns:xlink="http://www.w3.org/1999/xlink">
    <title>9254F2E7-C0AE-42E3-974A-F3777F6C845C</title>
    <g id="Page-1" stroke="none" stroke-width="1" fill="none" fill-rule="evenodd">
        <g id="16.-Partners" transform="translate(-464.000000, -1533.000000)" fill-rule="nonzero">
            <g id="Partners-logo" transform="translate(415.000000, 1153.000000)">
                <g id="Logo-box-9" transform="translate(0.000000, 320.000000)">
                    <g id="logoipsum-logo-12" transform="translate(49.000000, 60.000000)">
                        <path d="M19.0026964,22.1893018 L1.06269642,9.81430175 C-0.755303581,8.56030175 -0.137303581,5.94928175 2.12969642,5.33528175 L21.1966964,0.160281751 C21.6005964,0.0145417507 22.0333964,-0.0327682493 22.4592964,0.0222817507 C22.8850964,0.0773317507 23.2916964,0.233151751 23.6452964,0.476811751 C23.9987964,0.720471751 24.2891964,1.04494175 24.4921964,1.42329175 C24.6951964,1.80164175 24.8050964,2.22296175 24.8126964,2.65228175 L23.6826964,20.2013018 C23.5486964,22.2843018 20.8206964,23.4433018 19.0026964,22.1893018 Z" id="Path" fill="#E9327C"></path>
                        <path d="M13.3126964,25.2443018 L2.74367642,4.57534175 C2.50207642,4.10250175 2.39576642,3.57211175 2.43645642,3.04268175 C2.47714642,2.51325175 2.66326642,2.00534175 2.97427642,1.57497175 C3.28529642,1.14460175 3.70912642,0.808481751 4.19903642,0.603681751 C4.68894642,0.398881751 5.22589642,0.333361751 5.75067642,0.414351751 L25.3376964,3.43734175 C25.7885964,3.50695175 26.2165964,3.68260175 26.5864964,3.94985175 C26.9562964,4.21711175 27.2573964,4.56833175 27.4650964,4.97464175 C27.6726964,5.38095175 27.7808965,5.83074175 27.7808965,6.28704175 C27.7808965,6.74333175 27.6723964,7.19310175 27.4646964,7.59934175 L18.4416964,25.2453018 C18.1993964,25.7168018 17.8317964,26.1124018 17.3792964,26.3885018 C16.9267964,26.6647018 16.4069964,26.8106018 15.8768964,26.8106018 C15.3467964,26.8106018 14.8269964,26.6643018 14.3745964,26.3880018 C13.9221964,26.1116018 13.5547964,25.7159018 13.3126964,25.2443018 L13.3126964,25.2443018 Z" id="Path" fill="#1DACE3"></path>
                        <path d="M24.7646964,3.34831175 L15.0006964,1.84131175 L3.01269642,5.09631175 L7.79769642,14.4573018 L19.0026964,22.1893018 C19.2498964,22.3580018 19.5217964,22.4872018 19.8086964,22.5723018 L24.0646964,14.2493018 L24.7646964,3.34831175 Z" id="Path" fill="#001A49"></path>
                        <path d="M74.2216964,5.76432175 C74.2216964,5.40139175 74.3292964,5.04662175 74.5308964,4.74485175 C74.7325964,4.44309175 75.0191964,4.20789175 75.3544964,4.06900175 C75.6897964,3.93012175 76.0586964,3.89378175 76.4146964,3.96458175 C76.7705964,4.03539175 77.0975964,4.21016175 77.3541964,4.46678175 C77.6108964,4.72341175 77.7855964,5.05038175 77.8563964,5.40633175 C77.9271964,5.76229175 77.8908964,6.13125175 77.7519964,6.46655175 C77.6130964,6.80185175 77.3778964,7.08844175 77.0761964,7.29007175 C76.7743964,7.49170175 76.4195964,7.59932175 76.0566964,7.59932175 C75.5714964,7.59438175 75.1076964,7.39946175 74.7645964,7.05640175 C74.4215964,6.71333175 74.2265964,6.24946175 74.2216964,5.76432175 L74.2216964,5.76432175 Z M74.5276964,8.49630175 L77.5866964,8.49630175 L77.5866964,18.6903018 L74.5276964,18.6903018 L74.5276964,8.49630175 Z" id="Shape" fill="#001A49"></path>
                        <path d="M90.7965964,13.5933018 C90.8321964,14.2671018 90.7340964,14.9413018 90.5081964,15.5771018 C90.2821964,16.2128018 89.9327964,16.7977018 89.4800964,17.2980018 C89.0272964,17.7982018 88.4800964,18.2040018 87.8698964,18.4921018 C87.2596964,18.7801018 86.5985964,18.9447018 85.9245964,18.9763018 C85.3576964,19.0071018 84.7909964,18.9115018 84.2654964,18.6964018 C83.7400964,18.4812018 83.2690964,18.1519018 82.8865964,17.7323018 L82.8865964,22.7683018 L79.8285964,22.7683018 L79.8285964,8.49630175 L82.8865964,8.49630175 L82.8865964,9.45430175 C83.2691964,9.03480175 83.7401964,8.70570175 84.2656964,8.49070175 C84.7910964,8.27575175 85.3577964,8.18029175 85.9245964,8.21128175 C86.5985964,8.24277175 87.2595964,8.40721175 87.8697964,8.69510175 C88.4799964,8.98310175 89.0271964,9.38880175 89.4799964,9.88900175 C89.9327964,10.3892018 90.2821964,10.9739018 90.5081964,11.6097018 C90.7340964,12.2454018 90.8321964,12.9195018 90.7965964,13.5933018 Z M87.7385964,13.5933018 C87.7265964,13.1160018 87.5740964,12.6529018 87.3001964,12.2618018 C87.0262964,11.8708018 86.6430964,11.5692018 86.1986964,11.3949018 C85.7541964,11.2205018 85.2681964,11.1812018 84.8014964,11.2817018 C84.3347964,11.3822018 83.9079964,11.6181018 83.5746964,11.9599018 C83.2413964,12.3017018 83.0162964,12.7343018 82.9275964,13.2034018 C82.8388964,13.6725018 82.8905964,14.1574018 83.0760964,14.5973018 C83.2615964,15.0372018 83.5726964,15.4126018 83.9704964,15.6766018 C84.3683964,15.9406018 84.8351964,16.0813018 85.3125964,16.0813018 C85.6404964,16.0961018 85.9676964,16.0413018 86.2728964,15.9207018 C86.5780964,15.8000018 86.8542964,15.6161018 87.0833964,15.3812018 C87.3124964,15.1462018 87.4892964,14.8655018 87.6022964,14.5573018 C87.7151964,14.2492018 87.7616964,13.9206018 87.7385964,13.5933018 L87.7385964,13.5933018 Z" id="Shape" fill="#001A49"></path>
                        <path d="M100.235696,15.6303018 C100.235696,17.9753018 98.1966964,18.9743018 95.9947964,18.9743018 C95.1052964,19.0548018 94.2119964,18.8665018 93.4305964,18.4338018 C92.6491964,18.0012018 92.0156964,17.3440018 91.6117964,16.5473018 L94.2617964,15.0393018 C94.3695964,15.4076018 94.6003964,15.7277018 94.9158964,15.9461018 C95.2312964,16.1645018 95.6121964,16.2680018 95.9947964,16.2393018 C96.7287964,16.2393018 97.0947964,16.0143018 97.0947964,15.6073018 C97.0947964,14.4853018 92.0797964,15.0773018 92.0797964,11.5493018 C92.0797964,9.32730175 93.9547964,8.20630175 96.0797964,8.20630175 C96.8768964,8.18128175 97.6659964,8.37041175 98.3646964,8.75400175 C99.0646964,9.13760175 99.6476964,9.70160175 100.054696,10.3873018 L97.4457964,11.7943018 C97.3316964,11.5267018 97.1412964,11.2986018 96.8983964,11.1386018 C96.6553964,10.9785018 96.3706964,10.8936018 96.0797964,10.8943018 C95.5497964,10.8943018 95.2237964,11.0943018 95.2237964,11.4653018 C95.2207964,12.6353018 100.235696,11.8603018 100.235696,15.6303018 Z" id="Path" fill="#001A49"></path>
                        <path d="M111.412696,8.49630175 L111.412696,18.6903018 L108.354696,18.6903018 L108.354696,17.7303018 C108.001696,18.1532018 107.552696,18.4864018 107.045696,18.7027018 C106.539696,18.9189018 105.988696,19.0120018 105.438696,18.9743018 C103.379696,18.9743018 101.626696,17.5063018 101.626696,14.7533018 L101.626696,8.49630175 L104.684696,8.49630175 L104.684696,14.3073018 C104.658696,14.5503018 104.686696,14.7960018 104.765696,15.0272018 C104.844696,15.2584018 104.972696,15.4697018 105.141696,15.6463018 C105.310696,15.8229018 105.515696,15.9605018 105.742696,16.0496018 C105.970696,16.1388018 106.214696,16.1772018 106.458696,16.1623018 C107.579696,16.1623018 108.358696,15.5103018 108.358696,14.0623018 L108.358696,8.49630175 L111.412696,8.49630175 Z" id="Path" fill="#001A49"></path>
                        <path d="M128.940696,12.4303018 L128.940696,18.6903018 L125.882696,18.6903018 L125.882696,12.6963018 C125.882696,11.6773018 125.392696,11.0243018 124.414696,11.0243018 C123.394696,11.0243018 122.824696,11.7383018 122.824696,12.9413018 L122.824696,18.6903018 L119.765696,18.6903018 L119.765696,12.6963018 C119.765696,11.6773018 119.276696,11.0243018 118.297696,11.0243018 C117.278696,11.0243018 116.707696,11.7383018 116.707696,12.9413018 L116.707696,18.6903018 L113.649696,18.6903018 L113.649696,8.49630175 L116.712696,8.49630175 L116.712696,9.43030175 C117.029696,9.01440175 117.445696,8.68460175 117.922696,8.47090175 C118.399696,8.25730175 118.923696,8.16666175 119.444696,8.20731175 C119.967696,8.18172175 120.489696,8.29216175 120.957696,8.52790175 C121.425696,8.76360175 121.824696,9.11650175 122.115696,9.55230175 C122.454696,9.09640175 122.903696,8.73380175 123.420696,8.49860175 C123.937696,8.26335175 124.506696,8.16314175 125.072696,8.20731175 C127.412696,8.21131175 128.940696,9.88230175 128.940696,12.4303018 Z" id="Path" fill="#001A49"></path>
                        <path d="M131.531696,8.43330175 C132.785696,8.43330175 133.801696,7.41700175 133.801696,6.16331175 C133.801696,4.90963175 132.785696,3.89331175 131.531696,3.89331175 C130.277696,3.89331175 129.261696,4.90963175 129.261696,6.16331175 C129.261696,7.41700175 130.277696,8.43330175 131.531696,8.43330175 Z" id="Path" fill="#001A49"></path>
                        <path d="M32.4696964,3.80725175 L35.5286964,3.80725175 L35.5286964,18.6903018 L32.4696964,18.6903018 L32.4696964,3.80725175 Z M37.2606964,13.5933018 C37.2573964,12.5245018 37.5711964,11.4788018 38.1624964,10.5886018 C38.7537964,9.69830175 39.5959964,9.00350175 40.5823964,8.59220175 C41.5688964,8.18088175 42.6550964,8.07151175 43.7037964,8.27795175 C44.7523964,8.48440175 45.7161964,8.99730175 46.4730964,9.75190175 C47.2299964,10.5064018 47.7459964,11.4685018 47.9556964,12.5165018 C48.1653964,13.5645018 48.0594964,14.6511018 47.6512964,15.6388018 C47.2430964,16.6265018 46.5509964,17.4709018 45.6625964,18.0650018 C44.7741964,18.6591018 43.7294964,18.9763018 42.6606964,18.9763018 C41.9508964,18.9838018 41.2466964,18.8499018 40.5891964,18.5823018 C39.9317964,18.3147018 39.3341964,17.9187018 38.8314964,17.4176018 C38.3286964,16.9164018 37.9308964,16.3201018 37.6611964,15.6635018 C37.3914964,15.0069018 37.2553964,14.3031018 37.2606964,13.5933018 L37.2606964,13.5933018 Z M45.0086964,13.5933018 C44.9966964,13.1322018 44.8490964,12.6850018 44.5841964,12.3075018 C44.3193964,11.9300018 43.9490964,11.6389018 43.5196964,11.4707018 C43.0901964,11.3026018 42.6207964,11.2647018 42.1699964,11.3620018 C41.7191964,11.4592018 41.3070964,11.6873018 40.9851964,12.0175018 C40.6632964,12.3478018 40.4459964,12.7656018 40.3602964,13.2187018 C40.2746964,13.6719018 40.3244964,14.1402018 40.5036964,14.5652018 C40.6827964,14.9901018 40.9832964,15.3528018 41.3674964,15.6079018 C41.7516964,15.8630018 42.2025964,15.9991018 42.6636964,15.9993018 C42.9794964,16.0083018 43.2937964,15.9517018 43.5865964,15.8332018 C43.8794964,15.7148018 44.1445964,15.5369018 44.3652964,15.3108018 C44.5859964,15.0848018 44.7574964,14.8155018 44.8688964,14.5199018 C44.9802964,14.2242018 45.0292964,13.9087018 45.0126964,13.5933018 L45.0086964,13.5933018 Z M60.2576964,8.49330175 L60.2576964,18.1783018 C60.2576964,21.6033018 57.5866964,23.0503018 54.8756964,23.0503018 C53.9214964,23.1223018 52.9657964,22.9302018 52.1133964,22.4950018 C51.2610964,22.0599018 50.5449964,21.3984018 50.0436964,20.5833018 L52.6526964,19.0743018 C52.8632964,19.4997018 53.1987964,19.8507018 53.6142964,20.0804018 C54.0297964,20.3100018 54.5053964,20.4073018 54.9776964,20.3593018 C55.2791964,20.4004018 55.5859964,20.3734018 55.8755964,20.2801018 C56.1651964,20.1868018 56.4300964,20.0298018 56.6508964,19.8204018 C56.8715964,19.6111018 57.0424964,19.3549018 57.1509964,19.0706018 C57.2594964,18.7864018 57.3027964,18.4814018 57.2776964,18.1783018 L57.2776964,17.2403018 C56.9194964,17.6783018 56.4635964,18.0263018 55.9466964,18.2564018 C55.4296964,18.4865018 54.8659964,18.5923018 54.3006964,18.5653018 C52.9551964,18.5234018 51.6786964,17.9595018 50.7416964,16.9929018 C49.8046964,16.0263018 49.2806964,14.7330018 49.2806964,13.3868018 C49.2806964,12.0405018 49.8046964,10.7472018 50.7416964,9.78060175 C51.6786964,8.81400175 52.9551964,8.25007175 54.3006964,8.20825175 C54.8659964,8.18121175 55.4296964,8.28697175 55.9466964,8.51710175 C56.4635964,8.74720175 56.9194964,9.09520175 57.2776964,9.53330175 L57.2776964,8.49330175 L60.2576964,8.49330175 Z M57.2816964,13.3863018 C57.3018964,12.8939018 57.1742964,12.4068018 56.9153964,11.9875018 C56.6564964,11.5682018 56.2780964,11.2359018 55.8287964,11.0334018 C55.3795964,10.8309018 54.8799964,10.7674018 54.3943964,10.8511018 C53.9087964,10.9348018 53.4592964,11.1618018 53.1036964,11.5030018 C52.7480964,11.8442018 52.5026964,12.2839018 52.3990964,12.7656018 C52.2953964,13.2474018 52.3381964,13.7491018 52.5219964,14.2064018 C52.7056964,14.6636018 53.0220964,15.0554018 53.4302964,15.3314018 C53.8384964,15.6074018 54.3199964,15.7550018 54.8126964,15.7553018 C55.1339964,15.7778018 55.4564964,15.7329018 55.7593964,15.6234018 C56.0622964,15.5139018 56.3388964,15.3422018 56.5714964,15.1193018 C56.8039964,14.8965018 56.9873964,14.6274018 57.1096964,14.3295018 C57.2319964,14.0315018 57.2905964,13.7112018 57.2816964,13.3893018 L57.2816964,13.3863018 Z M61.9895936,13.5863018 C61.9863964,12.5175018 62.3001964,11.4718018 62.8914964,10.5816018 C63.4827964,9.69130175 64.3249964,8.99650175 65.3113964,8.58520175 C66.2978964,8.17388175 67.3840964,8.06451175 68.4327964,8.27095175 C69.4813964,8.47740175 70.4450964,8.99030175 71.2020964,9.74490175 C71.9589964,10.4994018 72.4749964,11.4615018 72.6846964,12.5095018 C72.8943964,13.5575018 72.7884964,14.6441018 72.3802964,15.6318018 C71.9720964,16.6195018 71.2799964,17.4639018 70.3915964,18.0580018 C69.5031964,18.6521018 68.4584964,18.9693018 67.3896964,18.9693018 C66.6804964,18.9768018 65.9768964,18.8431018 65.3198964,18.5759018 C64.6628964,18.3088018 64.0655964,17.9134018 63.5629964,17.4130018 C63.0602964,16.9126018 62.6623964,16.3172018 62.3922964,15.6613018 C62.1220964,15.0055018 61.9852964,14.3025018 61.9895936,13.5933018 L61.9895936,13.5863018 Z M69.7376964,13.5863018 C69.7258964,13.1250018 69.5782964,12.6774018 69.3134964,12.2995018 C69.0485964,11.9217018 68.6780964,11.6304018 68.2484964,11.4620018 C67.8187964,11.2936018 67.3490964,11.2557018 66.8979964,11.3530018 C66.4468964,11.4502018 66.0344964,11.6784018 65.7124964,12.0088018 C65.3903964,12.3393018 65.1728964,12.7574018 65.0872964,13.2108018 C65.0015964,13.6642018 65.0515964,14.1329018 65.2308964,14.5580018 C65.4102964,14.9832018 65.7109964,15.3460018 66.0954964,15.6012018 C66.4800964,15.8563018 66.9312964,15.9923018 67.3926964,15.9923018 C67.7075964,16.0006018 68.0206964,15.9439018 68.3125964,15.8256018 C68.6044964,15.7073018 68.8687964,15.5299018 69.0889964,15.3047018 C69.3090964,15.0795018 69.4803964,14.8112018 69.5919964,14.5167018 C69.7036964,14.2222018 69.7532964,13.9078018 69.7376964,13.5933018 L69.7376964,13.5863018 Z" id="Shape" fill="#001A49"></path>
                    </g>
                </g>
            </g>
        </g>
    </g>
</svg>