<?xml version="1.0" encoding="UTF-8"?>
<svg width="155px" height="40px" viewBox="0 0 155 40" version="1.1" xmlns="http://www.w3.org/2000/svg" xmlns:xlink="http://www.w3.org/1999/xlink">
    <title>16FE7768-662E-45C4-9E0E-EF48265547D5</title>
    <g id="Page-1" stroke="none" stroke-width="1" fill="none" fill-rule="evenodd">
        <g id="16.-Partners" transform="translate(-946.000000, -1206.000000)" fill-rule="nonzero">
            <g id="Partners-logo" transform="translate(415.000000, 1153.000000)">
                <g id="Logo-box-3" transform="translate(492.000000, 0.000000)">
                    <g id="logoipsum-logo-34" transform="translate(39.000000, 53.000000)">
                        <polygon id="Path" fill="#243A5A" points="51.5821 10.2839 48 10.2839 48 26.4472 57.9164 26.4472 57.9164 23.2801 51.5821 23.2801"></polygon>
                        <path d="M58.2585,20.9648 C58.2585,24.4159 60.5738,26.7093 64.0685,26.7093 C67.5414,26.7093 69.8567,24.4159 69.8567,20.9648 C69.8567,17.5137 67.5414,15.1984 64.0685,15.1984 C60.5738,15.1984 58.2585,17.5137 58.2585,20.9648 Z M61.644,20.9429 C61.644,19.3048 62.6051,18.2127 64.0685,18.2127 C65.5101,18.2127 66.4712,19.3048 66.4712,20.9429 C66.4712,22.603 65.5101,23.6951 64.0685,23.6951 C62.6051,23.6951 61.644,22.603 61.644,20.9429 Z" id="Shape" fill="#243A5A"></path>
                        <path d="M70.3978,20.7901 C70.3978,24.0882 72.5384,26.3161 75.5744,26.3161 C77.0379,26.3161 78.3047,25.7919 78.9381,24.9401 L78.9381,26.4472 C78.9381,27.9543 77.9989,28.959 76.3389,28.959 C74.8536,28.959 73.827,28.2601 73.7615,27.0151 L70.3541,27.0151 C70.6599,30.0075 72.9752,32.0169 76.1423,32.0169 C79.8773,32.0169 82.2363,29.5925 82.2363,25.7482 L82.2363,15.5261 L79.2002,15.5261 L79.0255,16.64 C78.4139,15.7445 77.1252,15.1548 75.64,15.1548 C72.582,15.1548 70.3978,17.4482 70.3978,20.7901 Z M73.8052,20.7027 C73.8052,19.13 74.8536,18.0816 76.186,18.0816 C77.7368,18.0816 78.8726,19.1082 78.8726,20.7027 C78.8726,22.2972 77.7586,23.3893 76.2078,23.3893 C74.8755,23.3893 73.8052,22.2972 73.8052,20.7027 Z" id="Shape" fill="#243A5A"></path>
                        <path d="M83.2166,20.9648 C83.2166,24.4159 85.5319,26.7093 89.0267,26.7093 C92.4996,26.7093 94.8148,24.4159 94.8148,20.9648 C94.8148,17.5137 92.4996,15.1984 89.0267,15.1984 C85.5319,15.1984 83.2166,17.5137 83.2166,20.9648 Z M86.6022,20.9429 C86.6022,19.3048 87.5632,18.2127 89.0267,18.2127 C90.4682,18.2127 91.4293,19.3048 91.4293,20.9429 C91.4293,22.603 90.4682,23.6951 89.0267,23.6951 C87.5632,23.6951 86.6022,22.603 86.6022,20.9429 Z" id="Shape" fill="#243A5A"></path>
                        <path d="M97.7149,13.8224 C98.7633,13.8224 99.6152,12.9705 99.6152,11.9003 C99.6152,10.83 98.7633,10 97.7149,10 C96.6446,10 95.7928,10.83 95.7928,11.9003 C95.7928,12.9705 96.6446,13.8224 97.7149,13.8224 Z M96.0112,26.4472 L99.3968,26.4472 L99.3968,15.5261 L96.0112,15.5261 L96.0112,26.4472 Z" id="Shape" fill="#243A5A"></path>
                        <path d="M101.368,31.6893 L104.688,31.6893 L104.688,25.3551 C105.321,26.1851 106.763,26.753 108.27,26.753 C111.524,26.753 113.49,24.263 113.403,20.8119 C113.315,17.2953 111.284,15.1766 108.248,15.1766 C106.697,15.1766 105.234,15.8537 104.622,16.8585 L104.447,15.5261 L101.368,15.5261 L101.368,31.6893 Z M104.753,20.9866 C104.753,19.3485 105.845,18.2564 107.418,18.2564 C109.012,18.2564 110.017,19.3703 110.017,20.9866 C110.017,22.603 109.012,23.7169 107.418,23.7169 C105.845,23.7169 104.753,22.6248 104.753,20.9866 Z" id="Shape" fill="#243A5A"></path>
                        <path d="M113.761,22.9961 C113.848,25.2022 115.596,26.7311 118.348,26.7311 C120.991,26.7311 122.826,25.3332 122.826,23.0835 C122.826,21.4672 121.865,20.3969 120.073,19.96 L118.13,19.4795 C117.431,19.3048 116.994,19.13 116.994,18.5621 C116.994,17.9942 117.452,17.6229 118.13,17.6229 C118.894,17.6229 119.396,18.1253 119.375,18.8679 L122.411,18.8679 C122.323,16.5963 120.598,15.1766 118.195,15.1766 C115.771,15.1766 113.958,16.6182 113.958,18.8024 C113.958,20.2658 114.766,21.4672 116.928,22.0351 L118.85,22.5374 C119.418,22.6903 119.658,22.9524 119.658,23.3237 C119.658,23.8698 119.156,24.2193 118.304,24.2193 C117.321,24.2193 116.797,23.7606 116.797,22.9961 L113.761,22.9961 Z" id="Path" fill="#243A5A"></path>
                        <path d="M127.974,26.7311 C129.307,26.7311 130.639,26.1195 131.316,25.224 L131.535,26.4472 L134.702,26.4472 L134.702,15.5261 L131.338,15.5261 L131.338,21.2051 C131.338,22.8432 130.858,23.7387 129.307,23.7387 C128.105,23.7387 127.319,23.1927 127.319,21.1614 L127.319,15.5261 L123.955,15.5261 L123.955,22.3845 C123.955,24.9838 125.397,26.7311 127.974,26.7311 Z" id="Path" fill="#243A5A"></path>
                        <path d="M140.036,26.4472 L140.036,20.4843 C140.036,18.6495 141.019,18.1253 141.98,18.1253 C143.05,18.1253 143.749,18.7806 143.749,20.1348 L143.749,26.4472 L147.069,26.4472 L147.069,20.4843 C147.069,18.6277 148.03,18.1035 148.991,18.1035 C150.061,18.1035 150.782,18.7587 150.782,20.1348 L150.782,26.4472 L154.059,26.4472 L154.059,19.3048 C154.059,16.8148 152.748,15.1548 149.93,15.1548 C148.358,15.1548 147.069,15.9192 146.501,17.0987 C145.846,15.9192 144.71,15.1548 142.897,15.1548 C141.696,15.1548 140.582,15.7008 139.927,16.5745 L139.796,15.5261 L136.65,15.5261 L136.65,26.4472 L140.036,26.4472 Z" id="Path" fill="#243A5A"></path>
                        <path d="M0,20 C0,10.5719 0,5.85786 2.92893,2.92893 C5.85786,0 10.5719,0 20,0 C29.4281,0 34.1421,0 37.0711,2.92893 C40,5.85786 40,10.5719 40,20 C40,29.4281 40,34.1421 37.0711,37.0711 C34.1421,40 29.4281,40 20,40 C10.5719,40 5.85786,40 2.92893,37.0711 C0,34.1421 0,29.4281 0,20 Z" id="Path" fill="#243A5A"></path>
                        <path d="M24,26 C24.5523,26 25.0101,26.4521 24.9004,26.9934 C24.7065,27.9494 24.2355,28.8355 23.5355,29.5355 C22.5979,30.4732 21.3261,31 20,31 C18.6739,31 17.4022,30.4732 16.4645,29.5355 C15.7645,28.8355 15.2935,27.9494 15.0997,26.9934 C14.9899,26.4521 15.4477,26 16,26 L24,26 Z" id="Path" fill="#2DF8BB"></path>
                        <path d="M26.1023,17.7765 C25.5688,17.9194 25.2421,18.4775 25.5126,18.959 C25.7973,19.4658 26.1911,19.9081 26.6702,20.2514 C27.4224,20.7904 28.3382,21.052 29.2617,20.9914 C30.1851,20.9309 31.059,20.5521 31.7344,19.9195 C32.4099,19.2869 32.845,18.4396 32.9658,17.5221 C33.0866,16.6046 32.8856,15.6736 32.3969,14.8877 C31.9082,14.1019 31.1621,13.5098 30.2858,13.2123 C29.4095,12.9148 28.4572,12.9304 27.5911,13.2564 C27.0395,13.464 26.5447,13.7893 26.1385,14.2051 C25.7526,14.6002 25.9237,15.2239 26.402,15.5000016 L26.9093,15.7929 C27.6808,16.2384 27.5287,17.3943 26.6681,17.6249 L26.1023,17.7765 Z" id="Path" fill="#2DF8BB"></path>
                        <path d="M13.8978,17.7765 C14.4313,17.9194 14.758,18.4775 14.4875,18.959 C14.2028,19.4658 13.809,19.9081 13.33,20.2514 C12.5778,20.7904 11.6619,21.052 10.7385,20.9914 C9.81502,20.9309 8.94113,20.5521 8.2657,19.9195 C7.59027,19.2869 7.15508,18.4396 7.03429,17.5221 C6.9135,16.6046 7.11457,15.6736 7.60326,14.8877 C8.09194,14.1019 8.838,13.5098 9.71431,13.2123 C10.5906,12.9148 11.543,12.9304 12.4091,13.2564 C12.9606,13.464 13.4555,13.7893 13.8617,14.2051 C14.2476,14.6002 14.0764,15.2239 13.5981,15.5000016 L13.0908,15.7929 C12.3193,16.2384 12.4715,17.3943 13.332,17.6249 L13.8978,17.7765 Z" id="Path" fill="#2DF8BB"></path>
                    </g>
                </g>
            </g>
        </g>
    </g>
</svg>