<?xml version="1.0" encoding="UTF-8"?>
<svg width="123px" height="35px" viewBox="0 0 123 35" version="1.1" xmlns="http://www.w3.org/2000/svg" xmlns:xlink="http://www.w3.org/1999/xlink">
    <title>24EB971B-F0FC-4FA5-86D1-C89FCCDB06E7</title>
    <g id="Page-1" stroke="none" stroke-width="1" fill="none" fill-rule="evenodd">
        <g id="16.-Partners" transform="translate(-1208.000000, -1209.000000)" fill-rule="nonzero">
            <g id="Partners-logo" transform="translate(415.000000, 1153.000000)">
                <g id="Logo-box-4" transform="translate(738.000000, 0.000000)">
                    <g id="logoipsum-logo-17" transform="translate(55.000000, 56.000000)">
                        <path d="M17.5,0 C15.2019,0 12.9262,0.4527 10.803,1.3321 C8.6798,2.2116 6.7507,3.5006 5.1256,5.1256 C3.5006,6.7507 2.2116,8.6798 1.3321,10.803 C0.4527,12.9262 0,15.2019 0,17.5 C0,19.7981 0.4527,22.0738 1.3321,24.197 C2.2116,26.3202 3.5006,28.2493 5.1256,29.8744 C6.7507,31.4994 8.6798,32.7884 10.803,33.6679 C12.9262,34.5473 15.2019,35 17.5,35 L17.5,26.25 C16.3509,26.25 15.2131,26.0237 14.1515,25.5839 C13.0899,25.1442 12.1253,24.4997 11.3128,23.6872 C10.5003,22.8747 9.8558,21.9101 9.4161,20.8485 C8.9763,19.7869 8.75,18.6491 8.75,17.5 C8.75,16.3509 8.9763,15.2131 9.4161,14.1515 C9.8558,13.0899 10.5003,12.1253 11.3128,11.3128 C12.1253,10.5003 13.0899,9.8558 14.1515,9.4161 C15.2131,8.9763 16.3509,8.75 17.5,8.75 L17.5,0 Z" id="Path" fill="#46423E"></path>
                        <path d="M17.5001,23.3333 C20.7218,23.3333 23.3334,20.7217 23.3334,17.5 C23.3334,14.2783 20.7218,11.6667 17.5001,11.6667 C14.2784,11.6667 11.6668,14.2783 11.6668,17.5 C11.6668,20.7217 14.2784,23.3333 17.5001,23.3333 Z" id="Path" fill="#46423E"></path>
                        <path d="M0,17.5 C0,19.7981 0.4527,22.0738 1.3321,24.197 C2.2116,26.3202 3.5006,28.2493 5.1256,29.8744 C6.7507,31.4994 8.6798,32.7884 10.803,33.6679 C12.9262,34.5473 15.2019,35 17.5,35 C19.7981,35 22.0738,34.5473 24.197,33.6679 C26.3202,32.7884 28.2493,31.4994 29.8744,29.8744 C31.4994,28.2493 32.7884,26.3202 33.6679,24.197 C34.5473,22.0738 35,19.7981 35,17.5 L26.25,17.5 C26.25,18.6491 26.0237,19.7869 25.5839,20.8485 C25.1442,21.9101 24.4997,22.8747 23.6872,23.6872 C22.8747,24.4997 21.9101,25.1442 20.8485,25.5839 C19.7869,26.0237 18.6491,26.25 17.5,26.25 C16.3509,26.25 15.2131,26.0237 14.1515,25.5839 C13.0899,25.1442 12.1253,24.4997 11.3128,23.6872 C10.5003,22.8747 9.8558,21.9101 9.4161,20.8485 C8.9763,19.7869 8.75,18.6491 8.75,17.5 L0,17.5 Z" id="Path" fill="#30773E"></path>
                        <path d="M23.3334,17.5 C23.3334,15.9529 22.7188,14.4692 21.6249,13.3752 C20.5309,12.2812 19.0472,11.6666 17.5001,11.6666 C15.953,11.6666 14.4693,12.2812 13.3753,13.3752 C12.2813,14.4692 11.6667,15.9529 11.6667,17.5 L17.5001,17.5 L23.3334,17.5 Z" id="Path" fill="#30773E"></path>
                        <polygon id="Path" fill="#46423E" points="44.1396 10.925 41.9661 10.925 41.9661 23 44.1396 23"></polygon>
                        <path d="M45.5589,18.722 C45.5589,21.5165 47.4909,23.2415 50.0439,23.2415 C52.5969,23.2415 54.5289,21.5165 54.5289,18.722 C54.5289,15.9275 52.5969,14.2025 50.0439,14.2025 C47.4909,14.2025 45.5589,15.9275 45.5589,18.722 Z M47.7324,18.722 C47.7324,17.066 48.6984,16.1 50.0439,16.1 C51.3894,16.1 52.3554,17.066 52.3554,18.722 C52.3554,20.378 51.3894,21.344 50.0439,21.344 C48.6984,21.344 47.7324,20.378 47.7324,18.722 Z" id="Shape" fill="#46423E"></path>
                        <path d="M62.296,14.444 L62.296,15.5997 L62.1235,15.5997 C61.606,14.858 60.778,14.2025 59.2945,14.2025 C57.259,14.2025 55.4305,15.9275 55.4305,18.584 C55.4305,21.2405 57.259,22.9655 59.2945,22.9655 C60.778,22.9655 61.606,22.2927 62.089,21.62 L62.2615,21.62 L62.2615,22.448 C62.2615,24.104 61.2955,24.863 59.881,24.863 C58.4665,24.863 57.742,24.104 57.4487,23.1207 L55.4995,23.966 C55.948,25.2597 57.259,26.6915 59.9155,26.6915 C62.641,26.6915 64.435,25.2597 64.435,22.4997 L64.435,14.444 L62.296,14.444 Z M59.95,21.1025 C58.6045,21.1025 57.604,20.1365 57.604,18.584 C57.604,17.0315 58.6045,16.0655 59.95,16.0655 C61.2955,16.0655 62.296,17.0315 62.296,18.584 C62.296,20.1365 61.2955,21.1025 59.95,21.1025 Z" id="Shape" fill="#46423E"></path>
                        <path d="M65.8411,18.722 C65.8411,21.5165 67.7731,23.2415 70.3261,23.2415 C72.8791,23.2415 74.811,21.5165 74.811,18.722 C74.811,15.9275 72.8791,14.2025 70.3261,14.2025 C67.7731,14.2025 65.8411,15.9275 65.8411,18.722 Z M68.0146,18.722 C68.0146,17.066 68.9806,16.1 70.3261,16.1 C71.6716,16.1 72.6376,17.066 72.6376,18.722 C72.6376,20.378 71.6716,21.344 70.3261,21.344 C68.9806,21.344 68.0146,20.378 68.0146,18.722 Z" id="Shape" fill="#46423E"></path>
                        <path d="M76.517,11.96 C76.517,12.8398 77.19,13.4435 78.053,13.4435 C78.915,13.4435 79.588,12.8398 79.588,11.96 C79.588,11.0803 78.915,10.4765 78.053,10.4765 C77.19,10.4765 76.517,11.0803 76.517,11.96 Z M79.139,14.444 L76.966,14.444 L76.966,23 L79.139,23 L79.139,14.444 Z" id="Shape" fill="#30773E"></path>
                        <path d="M81.076,26.45 L83.25,26.45 L83.25,21.896 L83.422,21.896 C83.905,22.586 84.733,23.2415 86.217,23.2415 C88.252,23.2415 90.081,21.5165 90.081,18.722 C90.081,15.9275 88.252,14.2025 86.217,14.2025 C84.733,14.2025 83.905,14.858 83.388,15.5998 L83.215,15.5998 L83.215,14.444 L81.076,14.444 L81.076,26.45 Z M85.561,21.3785 C84.216,21.3785 83.215,20.4125 83.215,18.722 C83.215,17.0315 84.216,16.0655 85.561,16.0655 C86.907,16.0655 87.907,17.0315 87.907,18.722 C87.907,20.4125 86.907,21.3785 85.561,21.3785 Z" id="Shape" fill="#30773E"></path>
                        <path d="M91.349,16.8418 C91.349,18.5323 92.763,19.1533 94.557,19.4983 L95.006,19.5845 C96.075,19.7915 96.558,20.0503 96.558,20.6023 C96.558,21.1543 96.075,21.5855 95.075,21.5855 C94.074,21.5855 93.264,21.1715 93.039,19.9295 L91.038,20.447 C91.332,22.241 92.832,23.2415 95.075,23.2415 C97.248,23.2415 98.663,22.2238 98.663,20.4298 C98.663,18.6357 97.214,18.1528 95.282,17.7733 L94.833,17.687 C93.936,17.5145 93.453,17.273 93.453,16.7038 C93.453,16.1863 93.902,15.8585 94.73,15.8585 C95.558,15.8585 96.144,16.2035 96.351,17.135 L98.318,16.5313 C97.904,15.1513 96.645,14.2025 94.73,14.2025 C92.694,14.2025 91.349,15.1513 91.349,16.8418 Z" id="Path" fill="#30773E"></path>
                        <path d="M108.426,23 L108.426,14.444 L106.253,14.444 L106.253,18.86 C106.253,20.447 105.477,21.3785 104.148,21.3785 C102.975,21.3785 102.32,20.7403 102.32,19.4465 L102.32,14.444 L100.146,14.444 L100.146,19.55 C100.146,21.6718 101.475,23.138 103.476,23.138 C105.045,23.138 105.77,22.448 106.115,21.7235 L106.287,21.7235 L106.287,23 L108.426,23 Z" id="Path" fill="#30773E"></path>
                        <path d="M110.354,14.444 L110.354,23 L112.528,23 L112.528,17.894 C112.528,16.721 113.08,16.0655 114.08,16.0655 C114.943,16.0655 115.46,16.5485 115.46,17.48 L115.46,23 L117.634,23 L117.634,17.894 C117.634,16.721 118.186,16.0655 119.186,16.0655 C120.049,16.0655 120.566,16.5485 120.566,17.48 L120.566,23 L122.74,23 L122.74,17.3765 C122.74,15.3065 121.463,14.306 119.876,14.306 C118.479,14.306 117.841,14.927 117.427,15.6515 L117.254,15.6515 C116.857,14.8408 116.15,14.306 114.908,14.306 C113.666,14.306 112.993,14.858 112.666,15.5135 L112.493,15.5135 L112.493,14.444 L110.354,14.444 Z" id="Path" fill="#30773E"></path>
                    </g>
                </g>
            </g>
        </g>
    </g>
</svg>