<?xml version="1.0" encoding="UTF-8"?>
<svg width="155px" height="29px" viewBox="0 0 155 29" version="1.1" xmlns="http://www.w3.org/2000/svg" xmlns:xlink="http://www.w3.org/1999/xlink">
    <title>5576B585-78E8-4002-B25E-B1C0E6CF2679</title>
    <defs>
        <linearGradient x1="95.4487096%" y1="32.9753002%" x2="6.69875038%" y2="32.9753002%" id="linearGradient-1">
            <stop stop-color="#64C2DB" offset="0%"></stop>
            <stop stop-color="#7476ED" offset="51.0417%"></stop>
            <stop stop-color="#E56F8C" offset="100%"></stop>
        </linearGradient>
    </defs>
    <g id="Page-1" stroke="none" stroke-width="1" fill="none" fill-rule="evenodd">
        <g id="16.-Partners" transform="translate(-1192.000000, -1372.000000)" fill-rule="nonzero">
            <g id="Partners-logo" transform="translate(415.000000, 1153.000000)">
                <g id="Logo-box-8" transform="translate(738.000000, 160.000000)">
                    <g id="logoipsum-logo-47" transform="translate(39.000000, 59.000000)">
                        <path d="M10.4468998,23.968 C7.46072978,26.9542 2.40328978,26.9423 0.990882776,22.9624 C0.714353776,22.1832 0.493258776,21.382 0.330643776,20.5645 C-0.333309224,17.2265 0.00745569582,13.7667 1.30984978,10.6224 C2.61223978,7.4782 4.81775978,4.79076 7.64750978,2.89998 C10.4772998,1.0092 13.8041998,0 17.2074998,0 C20.6107998,0 23.9376998,1.0092 26.7673998,2.89998 C29.5971998,4.79076 31.8026998,7.4782 33.1050998,10.6225 C34.4074998,13.7667 34.7481998,17.2265 34.0842998,20.5645 C33.9216998,21.382 33.7005998,22.1832 33.4239998,22.9624 C32.0115998,26.9423 26.9541998,26.9542 23.9679998,23.968 L19.3583998,19.3584 C18.9179998,18.918 18.9634998,18.1917 19.0849998,17.5809 C19.1587998,17.2096 19.1208998,16.8247 18.9759998,16.4749 C18.8310998,16.1251 18.5857998,15.8261 18.2709998,15.6158 C17.9561998,15.4055 17.5860998,15.2932 17.2074998,15.2932 C16.8288998,15.2932 16.4587998,15.4055 16.1439998,15.6158 C15.8290998,15.8261 15.5837998,16.1251 15.4388998,16.4749 C15.2939998,16.8247 15.2560998,17.2096 15.3299998,17.5809 C15.4514998,18.1917 15.4968998,18.918 15.0564998,19.3584 L10.4468998,23.968 Z" id="Path" fill="url(#linearGradient-1)"></path>
                        <polygon id="Path" fill="#3A3B7B" points="48.4144998 19.8367 53.0397998 19.8367 53.0397998 22.5624 44.8834998 22.5624 44.8834998 8.06683 48.4144998 8.06683"></polygon>
                        <path d="M59.3493998,22.7276 C58.2205998,22.7276 57.2018998,22.4867 56.2932998,22.0049 C55.3985998,21.5231 54.6895998,20.8348 54.1664998,19.94 C53.6571998,19.0452 53.4024998,17.999 53.4024998,16.8013 C53.4024998,15.6175 53.6639998,14.5781 54.1870998,13.6833 C54.7102998,12.7748 55.4260998,12.0796 56.3345998,11.5978 C57.2431998,11.116 58.2618998,10.8751 59.3906998,10.8751 C60.5194998,10.8751 61.5381998,11.116 62.4466998,11.5978 C63.3552998,12.0796 64.0710998,12.7748 64.5941998,13.6833 C65.1172998,14.5781 65.3788998,15.6175 65.3788998,16.8013 C65.3788998,17.9852 65.1103998,19.0314 64.5735998,19.94 C64.0504998,20.8348 63.3277998,21.5231 62.4053998,22.0049 C61.4968998,22.4867 60.4781998,22.7276 59.3493998,22.7276 Z M59.3493998,19.6715 C60.0238998,19.6715 60.5951998,19.4238 61.0632998,18.9282 C61.5450998,18.4326 61.7859998,17.7237 61.7859998,16.8013 C61.7859998,15.879 61.5518998,15.1701 61.0838998,14.6745 C60.6295998,14.1789 60.0651998,13.9311 59.3906998,13.9311 C58.7023998,13.9311 58.1310998,14.1789 57.6767998,14.6745 C57.2224998,15.1563 56.9953998,15.8652 56.9953998,16.8013 C56.9953998,17.7237 57.2156998,18.4326 57.6561998,18.9282 C58.1104998,19.4238 58.6748998,19.6715 59.3493998,19.6715 Z" id="Shape" fill="#3A3B7B"></path>
                        <path d="M71.0101998,10.8751 C71.8223998,10.8751 72.5313998,11.0403 73.1370998,11.3707 C73.7564998,11.701 74.2314998,12.1347 74.5618998,12.6715 L74.5618998,11.0403 L78.0927998,11.0403 L78.0927998,22.5417 C78.0927998,23.6017 77.8794998,24.5585 77.4526998,25.4119 C77.0396998,26.2792 76.3995998,26.9675 75.5323998,27.4768 C74.6788998,27.9862 73.6119998,28.2409 72.3317998,28.2409 C70.6247998,28.2409 69.2412998,27.8348 68.1812998,27.0226 C67.1213998,26.2241 66.5155998,25.1366 66.3641998,23.76 L69.8538998,23.76 C69.9639998,24.2005 70.2255998,24.5447 70.6385998,24.7925 C71.0514998,25.054 71.5608998,25.1848 72.1665998,25.1848 C72.8961998,25.1848 73.4742998,24.9714 73.9010998,24.5447 C74.3415998,24.1317 74.5618998,23.4641 74.5618998,22.5417 L74.5618998,20.9105 C74.2176998,21.4473 73.7427998,21.8879 73.1370998,22.232 C72.5313998,22.5624 71.8223998,22.7276 71.0101998,22.7276 C70.0603998,22.7276 69.1999998,22.4867 68.4290998,22.0049 C67.6581998,21.5093 67.0455998,20.8141 66.5913998,19.9193 C66.1508998,19.0108 65.9305998,17.9646 65.9305998,16.7807 C65.9305998,15.5968 66.1508998,14.5575 66.5913998,13.6627 C67.0455998,12.7679 67.6581998,12.0796 68.4290998,11.5978 C69.1999998,11.116 70.0603998,10.8751 71.0101998,10.8751 Z M74.5618998,16.8013 C74.5618998,15.9203 74.3140998,15.2251 73.8184998,14.7158 C73.3366998,14.2065 72.7446998,13.9518 72.0426998,13.9518 C71.3405998,13.9518 70.7417998,14.2065 70.2461998,14.7158 C69.7643998,15.2114 69.5234998,15.8997 69.5234998,16.7807 C69.5234998,17.6617 69.7643998,18.3638 70.2461998,18.8869 C70.7417998,19.3962 71.3405998,19.6509 72.0426998,19.6509 C72.7446998,19.6509 73.3366998,19.3962 73.8184998,18.8869 C74.3140998,18.3775 74.5618998,17.6824 74.5618998,16.8013 Z" id="Shape" fill="#3A3B7B"></path>
                        <path d="M85.2726998,22.7276 C84.1438998,22.7276 83.1251998,22.4867 82.2166998,22.0049 C81.3218998,21.5231 80.6128998,20.8348 80.0897998,19.94 C79.5804998,19.0452 79.3257998,17.999 79.3257998,16.8013 C79.3257998,15.6175 79.5872998,14.5781 80.1104998,13.6833 C80.6335998,12.7748 81.3493998,12.0796 82.2578998,11.5978 C83.1664998,11.116 84.1851998,10.8751 85.3139998,10.8751 C86.4427998,10.8751 87.4614998,11.116 88.3699998,11.5978 C89.2785998,12.0796 89.9943998,12.7748 90.5174998,13.6833 C91.0405998,14.5781 91.3021998,15.6175 91.3021998,16.8013 C91.3021998,17.9852 91.0337998,19.0314 90.4968998,19.94 C89.9737998,20.8348 89.2510998,21.5231 88.3286998,22.0049 C87.4201998,22.4867 86.4014998,22.7276 85.2726998,22.7276 Z M85.2726998,19.6715 C85.9471998,19.6715 86.5184998,19.4238 86.9865998,18.9282 C87.4683998,18.4326 87.7092998,17.7237 87.7092998,16.8013 C87.7092998,15.879 87.4751998,15.1701 87.0071998,14.6745 C86.5528998,14.1789 85.9884998,13.9311 85.3139998,13.9311 C84.6256998,13.9311 84.0543998,14.1789 83.6000998,14.6745 C83.1458998,15.1563 82.9186998,15.8652 82.9186998,16.8013 C82.9186998,17.7237 83.1389998,18.4326 83.5794998,18.9282 C84.0337998,19.4238 84.5981998,19.6715 85.2726998,19.6715 Z" id="Shape" fill="#3A3B7B"></path>
                        <path d="M94.3317998,9.84264 C93.7122998,9.84264 93.2029998,9.66368 92.8037998,9.30577 C92.4182998,8.93409 92.2255998,8.47981 92.2255998,7.94294 C92.2255998,7.3923 92.4182998,6.93802 92.8037998,6.5801 C93.2029998,6.20842 93.7122998,6.02258 94.3317998,6.02258 C94.9374998,6.02258 95.4330998,6.20842 95.8184998,6.5801 C96.2176998,6.93802 96.4172998,7.3923 96.4172998,7.94294 C96.4172998,8.47981 96.2176998,8.93409 95.8184998,9.30577 C95.4330998,9.66368 94.9374998,9.84264 94.3317998,9.84264 Z M96.0868998,11.0403 L96.0868998,22.5624 L92.5559998,22.5624 L92.5559998,11.0403 L96.0868998,11.0403 Z" id="Shape" fill="#3A3B7B"></path>
                        <path d="M101.557,12.6715 C101.901,12.1347 102.376,11.701 102.982,11.3707 C103.588,11.0403 104.297,10.8751 105.109,10.8751 C106.059,10.8751 106.919,11.116 107.69,11.5978 C108.461,12.0796 109.067,12.7679 109.507,13.6627 C109.961,14.5575 110.189,15.5968 110.189,16.7807 C110.189,17.9646 109.961,19.0108 109.507,19.9193 C109.067,20.8141 108.461,21.5093 107.69,22.0049 C106.919,22.4867 106.059,22.7276 105.109,22.7276 C104.31,22.7276 103.602,22.5624 102.982,22.232 C102.376,21.9016 101.901,21.4749 101.557,20.9518 L101.557,28.055 L98.0262998,28.055 L98.0262998,11.0403 L101.557,11.0403 L101.557,12.6715 Z M106.596,16.7807 C106.596,15.8997 106.348,15.2114 105.852,14.7158 C105.37,14.2065 104.772,13.9518 104.056,13.9518 C103.354,13.9518 102.755,14.2065 102.259,14.7158 C101.778,15.2251 101.537,15.9203 101.537,16.8013 C101.537,17.6824 101.778,18.3775 102.259,18.8869 C102.755,19.3962 103.354,19.6509 104.056,19.6509 C104.758,19.6509 105.357,19.3962 105.852,18.8869 C106.348,18.3638 106.596,17.6617 106.596,16.7807 Z" id="Shape" fill="#3A3B7B"></path>
                        <path d="M116.109,22.7276 C115.104,22.7276 114.209,22.5555 113.424,22.2114 C112.64,21.8672 112.02,21.3992 111.566,20.8072 C111.112,20.2015 110.857,19.527 110.802,18.7836 L114.292,18.7836 C114.333,19.1828 114.519,19.5063 114.849,19.7541 C115.18,20.0019 115.586,20.1258 116.068,20.1258 C116.508,20.1258 116.845,20.0432 117.079,19.878 C117.327,19.6991 117.451,19.4719 117.451,19.1966 C117.451,18.8662 117.279,18.6253 116.935,18.4739 C116.591,18.3087 116.033,18.1298 115.262,17.937 C114.436,17.7443 113.748,17.5447 113.197,17.3382 C112.647,17.118 112.172,16.7807 111.773,16.3264 C111.373,15.8584 111.174,15.232 111.174,14.4474 C111.174,13.7866 111.353,13.1878 111.711,12.6509 C112.082,12.1003 112.619,11.6666 113.321,11.35 C114.037,11.0334 114.884,10.8751 115.861,10.8751 C117.306,10.8751 118.442,11.233 119.268,11.9488 C120.108,12.6647 120.59,13.6145 120.714,14.7984 L117.451,14.7984 C117.396,14.3992 117.217,14.0826 116.914,13.8485 C116.625,13.6145 116.24,13.4975 115.758,13.4975 C115.345,13.4975 115.028,13.5801 114.808,13.7453 C114.588,13.8967 114.478,14.1101 114.478,14.3854 C114.478,14.7158 114.65,14.9636 114.994,15.1288 C115.352,15.294 115.902,15.4592 116.646,15.6243 C117.499,15.8446 118.194,16.0649 118.731,16.2851 C119.268,16.4916 119.736,16.8357 120.135,17.3176 C120.548,17.7856 120.762,18.4188 120.776,19.2173 C120.776,19.8918 120.583,20.4975 120.197,21.0344 C119.826,21.5575 119.282,21.9705 118.566,22.2733 C117.864,22.5762 117.045,22.7276 116.109,22.7276 Z" id="Path" fill="#3A3B7B"></path>
                        <path d="M133.694,11.0403 L133.694,22.5624 L130.163,22.5624 L130.163,20.9931 C129.805,21.5024 129.316,21.9154 128.697,22.232 C128.091,22.5349 127.417,22.6863 126.673,22.6863 C125.792,22.6863 125.014,22.4936 124.34,22.1081 C123.665,21.7089 123.142,21.1376 122.771,20.3943 C122.399,19.6509 122.213,18.7768 122.213,17.7718 L122.213,11.0403 L125.723,11.0403 L125.723,17.2969 C125.723,18.0678 125.923,18.6666 126.322,19.0934 C126.721,19.5201 127.258,19.7335 127.933,19.7335 C128.621,19.7335 129.165,19.5201 129.564,19.0934 C129.963,18.6666 130.163,18.0678 130.163,17.2969 L130.163,11.0403 L133.694,11.0403 Z" id="Path" fill="#3A3B7B"></path>
                        <path d="M150.313,10.9164 C151.744,10.9164 152.88,11.35 153.72,12.2173 C154.573,13.0845 155,14.289 155,15.8308 L155,22.5624 L151.49,22.5624 L151.49,16.3058 C151.49,15.5624 151.29,14.9911 150.891,14.5919 C150.505,14.1789 149.969,13.9724 149.28,13.9724 C148.592,13.9724 148.048,14.1789 147.649,14.5919 C147.264,14.9911 147.071,15.5624 147.071,16.3058 L147.071,22.5624 L143.56,22.5624 L143.56,16.3058 C143.56,15.5624 143.361,14.9911 142.962,14.5919 C142.576,14.1789 142.039,13.9724 141.351,13.9724 C140.663,13.9724 140.119,14.1789 139.72,14.5919 C139.334,14.9911 139.142,15.5624 139.142,16.3058 L139.142,22.5624 L135.611,22.5624 L135.611,11.0403 L139.142,11.0403 L139.142,12.4857 C139.5,12.0039 139.968,11.6253 140.546,11.35 C141.124,11.0609 141.778,10.9164 142.507,10.9164 C143.375,10.9164 144.146,11.1022 144.82,11.4739 C145.508,11.8456 146.045,12.3756 146.431,13.0639 C146.83,12.4306 147.374,11.9144 148.062,11.5152 C148.75,11.116 149.501,10.9164 150.313,10.9164 Z" id="Path" fill="#3A3B7B"></path>
                    </g>
                </g>
            </g>
        </g>
    </g>
</svg>