<?xml version="1.0" encoding="UTF-8"?>
<svg width="155px" height="41px" viewBox="0 0 155 41" version="1.1" xmlns="http://www.w3.org/2000/svg" xmlns:xlink="http://www.w3.org/1999/xlink">
    <title>EF142DD0-5939-4FF3-BE69-F538F26080F7</title>
    <g id="Page-1" stroke="none" stroke-width="1" fill="none" fill-rule="evenodd">
        <g id="16.-Partners" transform="translate(-454.000000, -1366.000000)">
            <g id="Partners-logo" transform="translate(415.000000, 1153.000000)">
                <g id="Logo-box-5" transform="translate(0.000000, 160.000000)">
                    <g id="logoipsum-logo-33" transform="translate(39.000000, 53.000000)">
                        <path d="M23.9790979,1.11952508 C22.4852979,-0.37360492 20.0639979,-0.37311492 18.5708979,1.12063508 L6.10955786,13.5870851 L6.09893786,13.5839851 L6.05955786,13.5881851 C6.07577786,13.5959851 6.09169786,13.6036851 6.10729786,13.6114851 C3.92131786,13.8404851 2.99383786,14.4973851 2.98333786,15.3409851 C2.98703786,15.6547851 3.11578786,15.9936851 3.35227786,16.3454851 L3.34090786,16.3568851 C5.32818786,19.3541851 15.1730979,23.3080851 22.1380979,20.6291851 C16.9180979,23.2391851 4.62475786,23.7564851 1.01400786,18.6888851 C0.229867858,19.5371851 -0.0982121417,20.6519851 0.0253378583,21.7232851 C0.979197858,26.9806851 11.6433979,28.4149851 22.3076979,20.7976851 L24.6153979,23.1053851 C21.7437979,26.0555851 17.5020979,43.1920851 23.8047979,40.5756851 C23.9542979,40.4741851 24.0811979,40.3833851 24.2537979,40.2527851 L24.5346979,39.9875851 C24.5184979,39.9915851 24.5023979,39.9953851 24.4863979,39.9991851 L41.3663979,24.0634851 C42.9336979,22.5837851 42.9691979,20.1018851 41.4446979,18.5779851 L23.9790979,1.11952508 Z M22.1408979,6.31281508 L22.7177979,4.00512508 L23.2946979,6.31281508 L25.0254979,6.88974508 L23.2946979,7.46668508 L22.7177979,9.77438508 L22.1408979,7.46668508 L20.4100979,6.88974508 L22.1408979,6.31281508 Z M14.9999979,13.8461851 L15.3845979,12.3076851 L15.7691979,13.8461851 L16.9230979,14.2307851 L15.7691979,14.6153851 L15.3845979,16.1538851 L14.9999979,14.6153851 L13.8461979,14.2307851 L14.9999979,13.8461851 Z M28.3955979,26.8230851 L28.0109979,28.3614851 L26.8571979,28.7461851 L28.0109979,29.1307851 L28.3955979,30.6691851 L28.7801979,29.1307851 L29.9340979,28.7461851 L28.7801979,28.3614851 L28.3955979,26.8230851 Z" id="Shape" fill="#4845D2"></path>
                        <polygon id="Path" fill="#4845D2" fill-rule="nonzero" points="52.2724979 9.67088508 48.6903979 9.67088508 48.6903979 25.8340851 58.6067979 25.8340851 58.6067979 22.6669851 52.2724979 22.6669851"></polygon>
                        <path d="M58.9488979,20.3516851 C58.9488979,23.8027851 61.2641979,26.0961851 64.7588979,26.0961851 C68.2318979,26.0961851 70.5470979,23.8027851 70.5470979,20.3516851 C70.5470979,16.9005851 68.2318979,14.5853851 64.7588979,14.5853851 C61.2641979,14.5853851 58.9488979,16.9005851 58.9488979,20.3516851 Z M62.3344979,20.3298851 C62.3344979,18.6916851 63.2954979,17.5995851 64.7588979,17.5995851 C66.2004979,17.5995851 67.1615979,18.6916851 67.1615979,20.3298851 C67.1615979,21.9898851 66.2004979,23.0819851 64.7588979,23.0819851 C63.2954979,23.0819851 62.3344979,21.9898851 62.3344979,20.3298851 Z" id="Shape" fill="#4845D2" fill-rule="nonzero"></path>
                        <path d="M71.0881979,20.1769851 C71.0881979,23.4750851 73.2287979,25.7029851 76.2647979,25.7029851 C77.7282979,25.7029851 78.9950979,25.1787851 79.6284979,24.3269851 L79.6284979,25.8340851 C79.6284979,27.3411851 78.6892979,28.3459851 77.0292979,28.3459851 C75.5439979,28.3459851 74.5174979,27.6469851 74.4518979,26.4019851 L71.0445979,26.4019851 C71.3502979,29.3943851 73.6655979,31.4038851 76.8326979,31.4038851 C80.5677979,31.4038851 82.9266979,28.9793851 82.9266979,25.1350851 L82.9266979,14.9129851 L79.8905979,14.9129851 L79.7158979,16.0268851 C79.1042979,15.1313851 77.8155979,14.5416851 76.3303979,14.5416851 C73.2724979,14.5416851 71.0881979,16.8350851 71.0881979,20.1769851 Z M74.4955979,20.0895851 C74.4955979,18.5169851 75.5440979,17.4684851 76.8763979,17.4684851 C78.4271979,17.4684851 79.5629979,18.4950851 79.5629979,20.0895851 C79.5629979,21.6840851 78.4490979,22.7761851 76.8982979,22.7761851 C75.5658979,22.7761851 74.4955979,21.6840851 74.4955979,20.0895851 Z" id="Shape" fill="#4845D2" fill-rule="nonzero"></path>
                        <path d="M83.9070979,20.3516851 C83.9070979,23.8027851 86.2222979,26.0961851 89.7170979,26.0961851 C93.1899979,26.0961851 95.5052979,23.8027851 95.5052979,20.3516851 C95.5052979,16.9005851 93.1899979,14.5853851 89.7170979,14.5853851 C86.2222979,14.5853851 83.9070979,16.9005851 83.9070979,20.3516851 Z M87.2925979,20.3298851 C87.2925979,18.6916851 88.2536979,17.5995851 89.7170979,17.5995851 C91.1586979,17.5995851 92.1196979,18.6916851 92.1196979,20.3298851 C92.1196979,21.9898851 91.1586979,23.0819851 89.7170979,23.0819851 C88.2536979,23.0819851 87.2925979,21.9898851 87.2925979,20.3298851 Z" id="Shape" fill="#4845D2" fill-rule="nonzero"></path>
                        <path d="M98.4054979,13.2092851 C99.4534979,13.2092851 100.305498,12.3574851 100.305498,11.2871851 C100.305498,10.2168851 99.4534979,9.38688508 98.4054979,9.38688508 C97.3350979,9.38688508 96.4831979,10.2168851 96.4831979,11.2871851 C96.4831979,12.3574851 97.3350979,13.2092851 98.4054979,13.2092851 Z M96.7015979,25.8340851 L100.087498,25.8340851 L100.087498,14.9129851 L96.7015979,14.9129851 L96.7015979,25.8340851 Z" id="Shape" fill="#4845D2" fill-rule="nonzero"></path>
                        <path d="M102.057498,31.0761851 L105.377498,31.0761851 L105.377498,24.7419851 C106.011498,25.5719851 107.452498,26.1398851 108.960498,26.1398851 C112.214498,26.1398851 114.180498,23.6498851 114.092498,20.1987851 C114.005498,16.6821851 111.974498,14.5634851 108.938498,14.5634851 C107.387498,14.5634851 105.924498,15.2405851 105.312498,16.2453851 L105.137498,14.9129851 L102.057498,14.9129851 L102.057498,31.0761851 Z M105.443498,20.3734851 C105.443498,18.7353851 106.535498,17.6432851 108.108498,17.6432851 C109.702498,17.6432851 110.707498,18.7571851 110.707498,20.3734851 C110.707498,21.9898851 109.702498,23.1037851 108.108498,23.1037851 C106.535498,23.1037851 105.443498,22.0116851 105.443498,20.3734851 Z" id="Shape" fill="#4845D2" fill-rule="nonzero"></path>
                        <path d="M114.451498,22.3829851 C114.538498,24.5890851 116.286498,26.1179851 119.038498,26.1179851 C121.681498,26.1179851 123.516498,24.7200851 123.516498,22.4703851 C123.516498,20.8540851 122.554498,19.7837851 120.763498,19.3469851 L118.819498,18.8663851 C118.120498,18.6916851 117.684498,18.5169851 117.684498,17.9490851 C117.684498,17.3811851 118.142498,17.0097851 118.819498,17.0097851 C119.584498,17.0097851 120.086498,17.5121851 120.064498,18.2548851 L123.101498,18.2548851 C123.013498,15.9832851 121.288498,14.5634851 118.885498,14.5634851 C116.460498,14.5634851 114.648498,16.0050851 114.648498,18.1892851 C114.648498,19.6527851 115.456498,20.8540851 117.618498,21.4219851 L119.540498,21.9242851 C120.108498,22.0771851 120.348498,22.3392851 120.348498,22.7106851 C120.348498,23.2566851 119.846498,23.6061851 118.994498,23.6061851 C118.011498,23.6061851 117.487498,23.1474851 117.487498,22.3829851 L114.451498,22.3829851 Z" id="Path" fill="#4845D2" fill-rule="nonzero"></path>
                        <path d="M128.664498,26.1179851 C129.997498,26.1179851 131.329498,25.5064851 132.006498,24.6108851 L132.225498,25.8340851 L135.392498,25.8340851 L135.392498,14.9129851 L132.028498,14.9129851 L132.028498,20.5919851 C132.028498,22.2300851 131.547498,23.1256851 129.997498,23.1256851 C128.795498,23.1256851 128.009498,22.5795851 128.009498,20.5482851 L128.009498,14.9129851 L124.645498,14.9129851 L124.645498,21.7713851 C124.645498,24.3706851 126.087498,26.1179851 128.664498,26.1179851 Z" id="Path" fill="#4845D2" fill-rule="nonzero"></path>
                        <path d="M140.726498,25.8340851 L140.726498,19.8711851 C140.726498,18.0363851 141.709498,17.5121851 142.670498,17.5121851 C143.740498,17.5121851 144.439498,18.1674851 144.439498,19.5216851 L144.439498,25.8340851 L147.759498,25.8340851 L147.759498,19.8711851 C147.759498,18.0145851 148.720498,17.4903851 149.681498,17.4903851 C150.751498,17.4903851 151.472498,18.1455851 151.472498,19.5216851 L151.472498,25.8340851 L154.749498,25.8340851 L154.749498,18.6916851 C154.749498,16.2016851 153.438498,14.5416851 150.620498,14.5416851 C149.048498,14.5416851 147.759498,15.3061851 147.191498,16.4855851 C146.536498,15.3061851 145.400498,14.5416851 143.587498,14.5416851 C142.386498,14.5416851 141.272498,15.0876851 140.617498,15.9613851 L140.486498,14.9129851 L137.340498,14.9129851 L137.340498,25.8340851 L140.726498,25.8340851 Z" id="Path" fill="#4845D2" fill-rule="nonzero"></path>
                        <path d="M42.6662979,2.64666508 C39.0575979,2.64666508 35.6352979,4.24957508 33.3249979,7.02187508 L25.1059979,16.8847851 L29.8519979,9.76568508 L21.9739979,13.1419851 C20.9734979,13.5707851 20.7224979,14.8742851 21.4920979,15.6439851 L24.0272979,18.1790851 L22.7328979,19.7323851 L25.5805979,22.5799851 L27.1337979,21.2855851 L29.6689979,23.8207851 C30.4385979,24.5903851 31.7421979,24.3393851 32.1708979,23.3389851 L35.5471979,15.4609851 L28.4281979,20.2069851 L38.2910979,11.9878851 C41.0633979,9.67768508 42.6662979,6.25538508 42.6662979,2.64666508 Z M34.8353979,10.4777851 C35.6216979,11.2640851 36.8965979,11.2640851 37.6829979,10.4777851 C38.4692979,9.69138508 38.4692979,8.41648508 37.6829979,7.63018508 C36.8965979,6.84379508 35.6216979,6.84379508 34.8353979,7.63018508 C34.0489979,8.41648508 34.0489979,9.69138508 34.8353979,10.4777851 Z" id="Shape" fill="#A3A2FF"></path>
                        <path d="M0.922427858,18.5562851 C2.80788786,25.0160851 14.2710979,24.6792851 22.1358979,20.6301851 C16.8694979,23.2617851 4.41144786,23.7643851 0.922427858,18.5562851 Z" id="Path" fill="#424242" fill-rule="nonzero" opacity="0.6"></path>
                        <path d="M23.8047979,40.5756851 C18.4939979,42.7802851 20.6699979,30.9598851 23.2043979,25.4198851 C21.3569979,30.3440851 19.7799979,41.1991851 24.5346979,39.9875851 L24.2537979,40.2527851 C24.0811979,40.3833851 23.9542979,40.4741851 23.8047979,40.5756851 Z" id="Path" fill="#424242" fill-rule="nonzero" opacity="0.6"></path>
                    </g>
                </g>
            </g>
        </g>
    </g>
</svg>