<?xml version="1.0" encoding="UTF-8"?>
<svg width="123px" height="61px" viewBox="0 0 123 61" version="1.1" xmlns="http://www.w3.org/2000/svg" xmlns:xlink="http://www.w3.org/1999/xlink">
    <title>032972CB-8707-48A7-8017-A34A612D9931</title>
    <defs>
        <linearGradient x1="75.3381037%" y1="56.2128431%" x2="17.7648285%" y2="33.8420007%" id="linearGradient-1">
            <stop stop-color="#46423E" offset="0%"></stop>
            <stop stop-color="#30773E" stop-opacity="0" offset="84.1052%"></stop>
        </linearGradient>
        <linearGradient x1="25.0039663%" y1="60.8235323%" x2="40.3858627%" y2="34.181061%" id="linearGradient-2">
            <stop stop-color="#30773E" offset="0%"></stop>
            <stop stop-color="#30773E" stop-opacity="0" offset="100%"></stop>
        </linearGradient>
        <radialGradient cx="78.427414%" cy="120.831036%" fx="78.427414%" fy="120.831036%" r="127.76208%" gradientTransform="translate(0.784274,1.208310),scale(0.500000,1.000000),rotate(-122.928000),translate(-0.784274,-1.208310)" id="radialGradient-3">
            <stop stop-color="#496F9D" offset="0%"></stop>
            <stop stop-color="#8172DA" stop-opacity="0.26" offset="56.8731%"></stop>
            <stop stop-color="#496F9D" stop-opacity="0" offset="100%"></stop>
        </radialGradient>
        <radialGradient cx="31.5553456%" cy="-14.4656301%" fx="31.5553456%" fy="-14.4656301%" r="86.0575933%" gradientTransform="translate(0.315553,-0.144656),scale(0.500000,1.000000),rotate(77.674500),translate(-0.315553,0.144656)" id="radialGradient-4">
            <stop stop-color="#30773E" offset="0%"></stop>
            <stop stop-color="#30773E" stop-opacity="0.35" offset="49.2704%"></stop>
            <stop stop-color="#30773E" stop-opacity="0" offset="100%"></stop>
        </radialGradient>
        <radialGradient cx="102.835517%" cy="-37.0503562%" fx="102.835517%" fy="-37.0503562%" r="93.4900077%" gradientTransform="translate(1.028355,-0.370504),scale(0.500000,1.000000),rotate(125.113000),translate(-1.028355,0.370504)" id="radialGradient-5">
            <stop stop-color="#496F9D" offset="0%"></stop>
            <stop stop-color="#496F9D" stop-opacity="0.3" offset="54.9191%"></stop>
            <stop stop-color="#496F9D" stop-opacity="0" offset="96.1144%"></stop>
        </radialGradient>
    </defs>
    <g id="Page-1" stroke="none" stroke-width="1" fill="none" fill-rule="evenodd">
        <g id="16.-Partners" transform="translate(-716.000000, -1196.000000)" fill-rule="nonzero">
            <g id="Partners-logo" transform="translate(415.000000, 1153.000000)">
                <g id="Logo-box-2" transform="translate(246.000000, 0.000000)">
                    <g id="logoipsum-logo-46" transform="translate(55.000000, 43.000000)">
                        <polygon id="Path" fill="#000000" points="0.0363776397 53.9999976 11.3891006 53.9999976 11.3891006 50.7672976 3.49820064 50.7672976 3.49820064 35.6726976 0.0363776397 35.6726976"></polygon>
                        <path d="M18.2113006,54.3817976 C19.5859006,54.3817976 20.7950006,54.0762976 21.8386006,53.4653976 C22.8907006,52.8459976 23.7095006,51.9932976 24.2950006,50.9072976 C24.8889006,49.8126976 25.1859006,48.5526976 25.1859006,47.1272976 C25.1859006,45.7102976 24.8931006,44.4587976 24.3077006,43.3726976 C23.7222006,42.2781976 22.9034006,41.4211976 21.8513006,40.8017976 C20.8077006,40.1823976 19.5944006,39.8726976 18.2113006,39.8726976 C16.8537006,39.8726976 15.6531006,40.1781976 14.6095006,40.7890976 C13.5659006,41.3999976 12.7471006,42.2526976 12.1531006,43.3472976 C11.5592006,44.4332976 11.2622006,45.6932976 11.2622006,47.1272976 C11.2622006,48.5441976 11.5507006,49.7999976 12.1277006,50.8944976 C12.7131006,51.9805976 13.5277006,52.8332976 14.5713006,53.4526976 C15.6150006,54.0720976 16.8283006,54.3817976 18.2113006,54.3817976 Z M18.2113006,51.1490976 C17.1337006,51.1490976 16.3150006,50.7884976 15.7550006,50.0672976 C15.2034006,49.3375976 14.9277006,48.3575976 14.9277006,47.1272976 C14.9277006,45.9308976 15.1907006,44.9635976 15.7168006,44.2253976 C16.2513006,43.4787976 17.0828006,43.1053976 18.2113006,43.1053976 C19.3059006,43.1053976 20.1289006,43.4702976 20.6804006,44.1999976 C21.2404006,44.9296976 21.5204006,45.9053976 21.5204006,47.1272976 C21.5204006,48.3066976 21.2447006,49.2738976 20.6931006,50.0290976 C20.1501006,50.7756976 19.3228006,51.1490976 18.2113006,51.1490976 Z" id="Shape" fill="#000000"></path>
                        <path d="M32.0319006,54.3817976 C32.6768006,54.3817976 33.2707006,54.3053976 33.8138006,54.1526976 C34.3653006,53.9999976 34.8659006,53.7835976 35.3156006,53.5035976 L35.3156006,54.8908976 C35.3326006,55.3999976 35.2010006,55.8241976 34.9210006,56.1635976 C34.6495006,56.5114976 34.2847006,56.7702976 33.8265006,56.9399976 C33.3683006,57.1181976 32.8804006,57.2072976 32.3629006,57.2072976 C31.8792006,57.2072976 31.4295006,57.1011976 31.0138006,56.8890976 C30.6065006,56.6769976 30.2925006,56.3672976 30.0719006,55.9599976 L26.8647006,57.5126976 C27.3907006,58.4035976 28.1416006,59.1205976 29.1174006,59.6635976 C30.0932006,60.2150976 31.1665006,60.4908976 32.3374006,60.4908976 C33.3471006,60.4908976 34.2847006,60.3550976 35.1501006,60.0835976 C36.0156006,59.8205976 36.7453006,59.4175976 37.3392006,58.8744976 C37.9416006,58.3314976 38.3532006,57.6399976 38.5738006,56.7999976 C38.6501006,56.5029976 38.7010006,56.2017976 38.7265006,55.8962976 C38.7604006,55.5993976 38.7774006,55.2811976 38.7774006,54.9417976 L38.7774006,40.2544976 L35.7483006,40.2544976 L35.7483006,41.0181976 C35.2816006,40.6532976 34.7513006,40.3732976 34.1574006,40.1781976 C33.5719006,39.9744976 32.9229006,39.8726976 32.2101006,39.8726976 C30.8950006,39.8726976 29.7495006,40.1866976 28.7738006,40.8144976 C27.7980006,41.4423976 27.0386006,42.3035976 26.4956006,43.3981976 C25.9610006,44.4841976 25.6938006,45.7272976 25.6938006,47.1272976 C25.6938006,48.5017976 25.9568006,49.7362976 26.4829006,50.8308976 C27.0174006,51.9253976 27.7598006,52.7908976 28.7101006,53.4272976 C29.6604006,54.0635976 30.7677006,54.3817976 32.0319006,54.3817976 Z M32.5919006,51.3017976 C31.8453006,51.3017976 31.2344006,51.1150976 30.7592006,50.7417976 C30.2841006,50.3684976 29.9319006,49.8678976 29.7029006,49.2399976 C29.4738006,48.6035976 29.3592006,47.8993976 29.3592006,47.1272976 C29.3592006,46.3635976 29.4780006,45.6678976 29.7156006,45.0399976 C29.9532006,44.4035976 30.3180006,43.8987976 30.8101006,43.5253976 C31.3107006,43.1435976 31.9471006,42.9526976 32.7192006,42.9526976 C33.8053006,42.9526976 34.5816006,43.3387976 35.0483006,44.1108976 C35.5150006,44.8744976 35.7483006,45.8799976 35.7483006,47.1272976 C35.7483006,48.3744976 35.5107006,49.3841976 35.0356006,50.1562976 C34.5689006,50.9199976 33.7544006,51.3017976 32.5919006,51.3017976 Z" id="Shape" fill="#000000"></path>
                        <path d="M46.9998006,54.3817976 C48.3744006,54.3817976 49.5835006,54.0762976 50.6271006,53.4653976 C51.6792006,52.8459976 52.4980006,51.9932976 53.0835006,50.9072976 C53.6774006,49.8126976 53.9744006,48.5526976 53.9744006,47.1272976 C53.9744006,45.7102976 53.6816006,44.4587976 53.0962006,43.3726976 C52.5107006,42.2781976 51.6919006,41.4211976 50.6398006,40.8017976 C49.5962006,40.1823976 48.3828006,39.8726976 46.9998006,39.8726976 C45.6422006,39.8726976 44.4416006,40.1781976 43.3980006,40.7890976 C42.3544006,41.3999976 41.5356006,42.2526976 40.9416006,43.3472976 C40.3477006,44.4332976 40.0507006,45.6932976 40.0507006,47.1272976 C40.0507006,48.5441976 40.3392006,49.7999976 40.9162006,50.8944976 C41.5016006,51.9805976 42.3162006,52.8332976 43.3598006,53.4526976 C44.4035006,54.0720976 45.6168006,54.3817976 46.9998006,54.3817976 Z M46.9998006,51.1490976 C45.9222006,51.1490976 45.1034006,50.7884976 44.5434006,50.0672976 C43.9919006,49.3375976 43.7162006,48.3575976 43.7162006,47.1272976 C43.7162006,45.9308976 43.9792006,44.9635976 44.5053006,44.2253976 C45.0398006,43.4787976 45.8713006,43.1053976 46.9998006,43.1053976 C48.0944006,43.1053976 48.9174006,43.4702976 49.4689006,44.1999976 C50.0289006,44.9296976 50.3089006,45.9053976 50.3089006,47.1272976 C50.3089006,48.3066976 50.0331006,49.2738976 49.4816006,50.0290976 C48.9386006,50.7756976 48.1113006,51.1490976 46.9998006,51.1490976 Z" id="Shape" fill="#000000"></path>
                        <path d="M55.5004006,38.3453976 L58.9622006,38.3453976 L58.9622006,35.2908976 L55.5004006,35.2908976 L55.5004006,38.3453976 Z M55.5004006,53.9999976 L58.9622006,53.9999976 L58.9622006,40.2544976 L55.5004006,40.2544976 L55.5004006,53.9999976 Z" id="Shape" fill="#000000"></path>
                        <path d="M61.2251006,60.1090976 L64.7124006,60.1090976 L64.7124006,53.5035976 C65.1621006,53.7835976 65.6585006,53.9999976 66.2015006,54.1526976 C66.7530006,54.3053976 67.3512006,54.3817976 67.9960006,54.3817976 C69.2603006,54.3817976 70.3676006,54.0635976 71.3179006,53.4272976 C72.2682006,52.7908976 73.0063006,51.9253976 73.5324006,50.8308976 C74.0669006,49.7362976 74.3342006,48.5017976 74.3342006,47.1272976 C74.3342006,45.7272976 74.0627006,44.4841976 73.5197006,43.3981976 C72.9851006,42.3035976 72.2300006,41.4423976 71.2542006,40.8144976 C70.2785006,40.1866976 69.1330006,39.8726976 67.8179006,39.8726976 C67.1051006,39.8726976 66.4518006,39.9744976 65.8578006,40.1781976 C65.2724006,40.3732976 64.7463006,40.6532976 64.2797006,41.0181976 L64.2797006,40.2544976 L61.2251006,40.2544976 L61.2251006,60.1090976 Z M67.4360006,51.3017976 C66.2821006,51.3017976 65.4676006,50.9199976 64.9924006,50.1562976 C64.5172006,49.3841976 64.2797006,48.3744976 64.2797006,47.1272976 C64.2797006,45.8799976 64.5130006,44.8744976 64.9797006,44.1108976 C65.4548006,43.3387976 66.2312006,42.9526976 67.3088006,42.9526976 C68.0809006,42.9526976 68.7130006,43.1435976 69.2051006,43.5253976 C69.7057006,43.8987976 70.0748006,44.4035976 70.3124006,45.0399976 C70.5500006,45.6678976 70.6688006,46.3635976 70.6688006,47.1272976 C70.6688006,47.8993976 70.5542006,48.6035976 70.3251006,49.2399976 C70.0960006,49.8678976 69.7439006,50.3684976 69.2688006,50.7417976 C68.7936006,51.1150976 68.1827006,51.3017976 67.4360006,51.3017976 Z" id="Shape" fill="#000000"></path>
                        <path d="M80.6056006,54.3817976 C82.4044006,54.3817976 83.8128006,53.9787976 84.8310006,53.1726976 C85.8492006,52.3665976 86.3583006,51.2593976 86.3583006,49.8508976 C86.3583006,48.7817976 86.0274006,47.9375976 85.3656006,47.3181976 C84.7122006,46.6987976 83.6007006,46.1853976 82.0310006,45.7781976 C80.9619006,45.5065976 80.1644006,45.2859976 79.6383006,45.1162976 C79.1207006,44.9466976 78.7771006,44.7811976 78.6074006,44.6199976 C78.4462006,44.4587976 78.3656006,44.2593976 78.3656006,44.0217976 C78.3656006,43.6229976 78.5565006,43.3175976 78.9383006,43.1053976 C79.3286006,42.8932976 79.8419006,42.8084976 80.4783006,42.8508976 C81.8274006,42.9526976 82.5656006,43.5296976 82.6928006,44.5817976 L86.2310006,43.9453976 C86.0529006,42.6981976 85.4419006,41.7096976 84.3983006,40.9799976 C83.3547006,40.2417976 82.0225006,39.8726976 80.4019006,39.8726976 C78.7389006,39.8726976 77.4110006,40.2629976 76.4183006,41.0435976 C75.4256006,41.8241976 74.9292006,42.8762976 74.9292006,44.1999976 C74.9292006,45.2520976 75.2728006,46.0835976 75.9601006,46.6944976 C76.6474006,47.2969976 77.8310006,47.8144976 79.5110006,48.2472976 C80.5038006,48.5102976 81.2335006,48.7223976 81.7001006,48.8835976 C82.1753006,49.0447976 82.4807006,49.2102976 82.6165006,49.3799976 C82.7522006,49.5411976 82.8201006,49.7575976 82.8201006,50.0290976 C82.8201006,50.4617976 82.6504006,50.8011976 82.3110006,51.0472976 C81.9716006,51.2847976 81.4880006,51.4035976 80.8601006,51.4035976 C80.0965006,51.4035976 79.4644006,51.2211976 78.9638006,50.8562976 C78.4716006,50.4914976 78.1535006,49.9866976 78.0092006,49.3417976 L74.4710006,49.8762976 C74.7001006,51.3102976 75.3450006,52.4217976 76.4056006,53.2108976 C77.4747006,53.9914976 78.8747006,54.3817976 80.6056006,54.3817976 Z" id="Path" fill="#000000"></path>
                        <path d="M92.7442006,54.4072976 C93.7369006,54.4072976 94.6024006,54.2417976 95.3406006,53.9108976 C96.0788006,53.5799976 96.6982006,53.1387976 97.1988006,52.5872976 L97.1988006,53.9999976 L100.253001,53.9999976 L100.253001,40.2544976 L96.7660006,40.2544976 L96.7660006,47.2290976 C96.7660006,48.0775976 96.6685006,48.7647976 96.4733006,49.2908976 C96.2866006,49.8084976 96.0448006,50.2029976 95.7478006,50.4744976 C95.4509006,50.7375976 95.1327006,50.9156976 94.7933006,51.0090976 C94.4539006,51.1023976 94.1357006,51.1490976 93.8388006,51.1490976 C93.1006006,51.1490976 92.5278006,50.9835976 92.1206006,50.6526976 C91.7218006,50.3217976 91.4333006,49.9102976 91.2551006,49.4181976 C91.0769006,48.9259976 90.9709006,48.4381976 90.9369006,47.9544976 C90.9030006,47.4623976 90.8860006,47.0593976 90.8860006,46.7453976 L90.8860006,40.2544976 L87.3733006,40.2544976 L87.3733006,47.9672976 C87.3733006,48.1962976 87.3903006,48.5611976 87.4242006,49.0617976 C87.4581006,49.5623976 87.5557006,50.1181976 87.7169006,50.7290976 C87.8782006,51.3314976 88.1454006,51.9126976 88.5188006,52.4726976 C88.9006006,53.0326976 89.4309006,53.4950976 90.1097006,53.8599976 C90.7885006,54.2247976 91.6666006,54.4072976 92.7442006,54.4072976 Z" id="Path" fill="#000000"></path>
                        <path d="M102.258001,53.9999976 L105.745001,53.9999976 L105.745001,45.6762976 C105.745001,44.8872976 105.961001,44.2466976 106.394001,43.7544976 C106.835001,43.2538976 107.416001,43.0035976 108.138001,43.0035976 C108.893001,43.0035976 109.483001,43.2581976 109.907001,43.7672976 C110.339001,44.2678976 110.556001,44.9720976 110.556001,45.8799976 L110.556001,53.9999976 L114.018001,53.9999976 L114.018001,45.6762976 C114.018001,44.8872976 114.234001,44.2466976 114.667001,43.7544976 C115.108001,43.2538976 115.689001,43.0035976 116.410001,43.0035976 C117.166001,43.0035976 117.755001,43.2581976 118.179001,43.7672976 C118.612001,44.2678976 118.829001,44.9720976 118.829001,45.8799976 L118.829001,53.9999976 L122.290001,53.9999976 L122.290001,44.9635976 C122.290001,43.4617976 121.887001,42.2484976 121.081001,41.3235976 C120.284001,40.3902976 119.100001,39.9235976 117.530001,39.9235976 C116.648001,39.9235976 115.838001,40.1144976 115.099001,40.4962976 C114.361001,40.8781976 113.772001,41.3999976 113.330001,42.0617976 C112.974001,41.4169976 112.465001,40.8993976 111.803001,40.5090976 C111.141001,40.1187976 110.318001,39.9235976 109.334001,39.9235976 C108.502001,39.9235976 107.739001,40.0890976 107.043001,40.4199976 C106.347001,40.7423976 105.770001,41.1878976 105.312001,41.7562976 L105.312001,40.2544976 L102.258001,40.2544976 L102.258001,53.9999976 Z" id="Path" fill="#000000"></path>
                        <path d="M3.55271368e-15,14.5 C3.55271368e-15,6.4918676 6.49187064,-1.77635684e-15 14.5,-1.77635684e-15 C18.8417006,-1.77635684e-15 22.7378006,1.9082376 25.3952006,4.9317676 C30.2168006,10.3449976 34.2038006,10.0601976 38.4379006,6.0639476 C40.5154006,4.1024376 43.3173006,2.8999976 46.4000006,2.8999976 C52.8065006,2.9000076 58,8.0934976 58,14.5 C58,20.9064976 52.8065006,26.0999976 46.4000006,26.0999976 C43.3173006,26.0999976 40.5154006,24.8974976 38.4379006,22.9359976 C34.2048006,18.9406976 30.2187006,18.6549976 25.3987006,24.0641976 C22.7412006,27.0900976 18.8436006,29 14.5,29 C6.49187064,29 3.55271368e-15,22.5080976 3.55271368e-15,14.5 Z" id="Path" fill="#F2F5FA"></path>
                        <path d="M3.55271368e-15,14.5 C3.55271368e-15,6.4918676 6.49187064,-1.77635684e-15 14.5,-1.77635684e-15 C18.8417006,-1.77635684e-15 22.7378006,1.9082376 25.3952006,4.9317676 C30.2168006,10.3449976 34.2038006,10.0601976 38.4379006,6.0639476 C40.5154006,4.1024376 43.3173006,2.8999976 46.4000006,2.8999976 C52.8065006,2.9000076 58,8.0934976 58,14.5 C58,20.9064976 52.8065006,26.0999976 46.4000006,26.0999976 C43.3173006,26.0999976 40.5154006,24.8974976 38.4379006,22.9359976 C34.2048006,18.9406976 30.2187006,18.6549976 25.3987006,24.0641976 C22.7412006,27.0900976 18.8436006,29 14.5,29 C6.49187064,29 3.55271368e-15,22.5080976 3.55271368e-15,14.5 Z" id="Path" fill="(#linearGradient-1)"></path>
                        <path d="M3.55271368e-15,14.5 C3.55271368e-15,6.4918676 6.49187064,-1.77635684e-15 14.5,-1.77635684e-15 C18.8417006,-1.77635684e-15 22.7378006,1.9082376 25.3952006,4.9317676 C30.2168006,10.3449976 34.2038006,10.0601976 38.4379006,6.0639476 C40.5154006,4.1024376 43.3173006,2.8999976 46.4000006,2.8999976 C52.8065006,2.9000076 58,8.0934976 58,14.5 C58,20.9064976 52.8065006,26.0999976 46.4000006,26.0999976 C43.3173006,26.0999976 40.5154006,24.8974976 38.4379006,22.9359976 C34.2048006,18.9406976 30.2187006,18.6549976 25.3987006,24.0641976 C22.7412006,27.0900976 18.8436006,29 14.5,29 C6.49187064,29 3.55271368e-15,22.5080976 3.55271368e-15,14.5 Z" id="Path" fill="(#linearGradient-2)"></path>
                        <path d="M3.55271368e-15,14.5 C3.55271368e-15,6.4918676 6.49187064,-1.77635684e-15 14.5,-1.77635684e-15 C18.8417006,-1.77635684e-15 22.7378006,1.9082376 25.3952006,4.9317676 C30.2168006,10.3449976 34.2038006,10.0601976 38.4379006,6.0639476 C40.5154006,4.1024376 43.3173006,2.8999976 46.4000006,2.8999976 C52.8065006,2.9000076 58,8.0934976 58,14.5 C58,20.9064976 52.8065006,26.0999976 46.4000006,26.0999976 C43.3173006,26.0999976 40.5154006,24.8974976 38.4379006,22.9359976 C34.2048006,18.9406976 30.2187006,18.6549976 25.3987006,24.0641976 C22.7412006,27.0900976 18.8436006,29 14.5,29 C6.49187064,29 3.55271368e-15,22.5080976 3.55271368e-15,14.5 Z" id="Path" fill="url(#radialGradient-3)"></path>
                        <path d="M3.55271368e-15,14.5 C3.55271368e-15,6.4918676 6.49187064,-1.77635684e-15 14.5,-1.77635684e-15 C18.8417006,-1.77635684e-15 22.7378006,1.9082376 25.3952006,4.9317676 C30.2168006,10.3449976 34.2038006,10.0601976 38.4379006,6.0639476 C40.5154006,4.1024376 43.3173006,2.8999976 46.4000006,2.8999976 C52.8065006,2.9000076 58,8.0934976 58,14.5 C58,20.9064976 52.8065006,26.0999976 46.4000006,26.0999976 C43.3173006,26.0999976 40.5154006,24.8974976 38.4379006,22.9359976 C34.2048006,18.9406976 30.2187006,18.6549976 25.3987006,24.0641976 C22.7412006,27.0900976 18.8436006,29 14.5,29 C6.49187064,29 3.55271368e-15,22.5080976 3.55271368e-15,14.5 Z" id="Path" fill="url(#radialGradient-4)"></path>
                        <path d="M3.55271368e-15,14.5 C3.55271368e-15,6.4918676 6.49187064,-1.77635684e-15 14.5,-1.77635684e-15 C18.8417006,-1.77635684e-15 22.7378006,1.9082376 25.3952006,4.9317676 C30.2168006,10.3449976 34.2038006,10.0601976 38.4379006,6.0639476 C40.5154006,4.1024376 43.3173006,2.8999976 46.4000006,2.8999976 C52.8065006,2.9000076 58,8.0934976 58,14.5 C58,20.9064976 52.8065006,26.0999976 46.4000006,26.0999976 C43.3173006,26.0999976 40.5154006,24.8974976 38.4379006,22.9359976 C34.2048006,18.9406976 30.2187006,18.6549976 25.3987006,24.0641976 C22.7412006,27.0900976 18.8436006,29 14.5,29 C6.49187064,29 3.55271368e-15,22.5080976 3.55271368e-15,14.5 Z" id="Path" fill="url(#radialGradient-5)"></path>
                    </g>
                </g>
            </g>
        </g>
    </g>
</svg>
