<?xml version="1.0" encoding="UTF-8"?>
<svg width="119px" height="28px" viewBox="0 0 119 28" version="1.1" xmlns="http://www.w3.org/2000/svg" xmlns:xlink="http://www.w3.org/1999/xlink">
    <title>01A659A9-0A8A-466D-977D-92A179B9DC1F</title>
    <g id="Page-1" stroke="none" stroke-width="1" fill="none" fill-rule="evenodd">
        <g id="16.-Partners" transform="translate(-718.000000, -1532.000000)" fill="#394149" fill-rule="nonzero">
            <g id="Partners-logo" transform="translate(415.000000, 1153.000000)">
                <g id="Logo-box-10" transform="translate(246.000000, 320.000000)">
                    <g id="logoipsum-logo-7" transform="translate(57.000000, 59.000000)">
                        <path d="M34.3989035,7.64118142 L37.3989035,7.64118142 L37.3989035,19.7711814 L34.3989035,19.7711814 L34.3989035,7.64118142 Z M38.5889035,15.1911814 C38.5889035,12.1911814 40.4289035,10.4011814 43.2689035,10.4011814 C46.1089035,10.4011814 47.9489035,12.1911814 47.9489035,15.1911814 C47.9489035,18.1911814 46.1489035,19.9911814 43.2689035,19.9911814 C40.3889035,19.9911814 38.5889035,18.2411814 38.5889035,15.1911814 Z M44.9389035,15.1911814 C44.9389035,13.5411814 44.2889035,12.5711814 43.2689035,12.5711814 C42.2489035,12.5711814 41.6089035,13.5711814 41.6089035,15.1911814 C41.6089035,16.8111814 42.2389035,17.7911814 43.2689035,17.7911814 C44.2989035,17.7911814 44.9389035,16.8711814 44.9389035,15.2011814 L44.9389035,15.1911814 Z M49.0789035,20.3611814 L51.9589035,20.3611814 C52.0960035,20.6656814 52.3277035,20.9177814 52.6196035,21.0799814 C52.9115035,21.2420814 53.2480035,21.3056814 53.5789035,21.2611814 C54.7189035,21.2611814 55.3189035,20.6411814 55.3189035,19.7411814 L55.3189035,18.0611814 L55.2589035,18.0611814 C55.0199035,18.5760814 54.6320035,19.0074814 54.1454035,19.2998814 C53.6588035,19.5921814 53.0957035,19.7319814 52.5289035,19.7011814 C50.3389035,19.7011814 48.8889035,18.0311814 48.8889035,15.1611814 C48.8889035,12.2911814 50.2689035,10.4811814 52.5689035,10.4811814 C53.1535035,10.4582814 53.7311035,10.6145814 54.2244035,10.9290814 C54.7177035,11.2436814 55.1031035,11.7014814 55.3289035,12.2411814 L55.3289035,12.2411814 L55.3289035,10.5711814 L58.3289035,10.5711814 L58.3289035,19.6711814 C58.3289035,21.8611814 56.3989035,23.2211814 53.5489035,23.2211814 C50.8989035,23.2211814 49.2489035,22.0311814 49.0789035,20.3711814 L49.0789035,20.3611814 Z M55.3289035,15.1811814 C55.3289035,13.7211814 54.6589035,12.8011814 53.5989035,12.8011814 C52.5389035,12.8011814 51.8889035,13.7111814 51.8889035,15.1811814 C51.8889035,16.6511814 52.5289035,17.4811814 53.5989035,17.4811814 C54.6689035,17.4811814 55.3289035,16.6711814 55.3289035,15.1911814 L55.3289035,15.1811814 Z M59.4589035,15.1811814 C59.4589035,12.1811814 61.2989035,10.3911814 64.1389035,10.3911814 C66.9789035,10.3911814 68.8289035,12.1811814 68.8289035,15.1811814 C68.8289035,18.1811814 67.0289035,19.9811814 64.1389035,19.9811814 C61.2489035,19.9811814 59.4589035,18.2411814 59.4589035,15.1911814 L59.4589035,15.1811814 Z M65.8089035,15.1811814 C65.8089035,13.5311814 65.1589035,12.5611814 64.1389035,12.5611814 C63.1189035,12.5611814 62.5289035,13.5711814 62.5289035,15.2011814 C62.5289035,16.8311814 63.1589035,17.8011814 64.1789035,17.8011814 C65.1989035,17.8011814 65.8089035,16.8711814 65.8089035,15.2011814 L65.8089035,15.1811814 Z M69.9689035,8.39118142 C69.9610035,8.08828142 70.0433035,7.78988142 70.2052035,7.53379142 C70.3672035,7.27769142 70.6015035,7.07545142 70.8785035,6.95269142 C71.1555035,6.82993142 71.4627035,6.79218142 71.7612035,6.84423142 C72.0597035,6.89629142 72.3360035,7.03580142 72.5551035,7.24507142 C72.7743035,7.45435142 72.9263035,7.72398142 72.9920035,8.01978142 C73.0577035,8.31558142 73.0341035,8.62418142 72.9241035,8.90658142 C72.8142035,9.18888142 72.6229035,9.43228142 72.3745035,9.60578142 C72.1262035,9.77928142 71.8318035,9.87518142 71.5289035,9.88118142 C71.3281035,9.89498142 71.1266035,9.86708142 70.9371035,9.79928142 C70.7475035,9.73148142 70.5741035,9.62528142 70.4276035,9.48718142 C70.2811035,9.34918142 70.1647035,9.18228142 70.0858035,8.99708142 C70.0068035,8.81198142 69.9670035,8.61248142 69.9689035,8.41118142 L69.9689035,8.39118142 Z M69.9689035,10.5911814 L72.9689035,10.5911814 L72.9689035,19.7711814 L69.9689035,19.7711814 L69.9689035,10.5911814 Z M83.8589035,15.1811814 C83.8589035,18.1811814 82.5289035,19.8911814 80.2489035,19.8911814 C79.6643035,19.9286814 79.0822035,19.7857814 78.5814035,19.4817814 C78.0806035,19.1776814 77.6853035,18.7271814 77.4489035,18.1911814 L77.3889035,18.1911814 L77.3889035,22.7111814 L74.3889035,22.7111814 L74.3889035,10.5711814 L77.3889035,10.5711814 L77.3889035,12.2111814 L77.4489035,12.2111814 C77.6743035,11.6662814 78.0621035,11.2040814 78.5595035,10.8873814 C79.0569035,10.5706814 79.6398035,10.4148814 80.2289035,10.4411814 C82.5289035,10.4811814 83.8989035,12.2011814 83.8989035,15.2011814 L83.8589035,15.1811814 Z M80.8589035,15.1811814 C80.8589035,13.7211814 80.1889035,12.7911814 79.1389035,12.7911814 C78.0889035,12.7911814 77.4189035,13.7311814 77.4089035,15.1811814 C77.3989035,16.6311814 78.0889035,17.5611814 79.1389035,17.5611814 C80.1889035,17.5611814 80.8589035,16.6511814 80.8589035,15.2011814 L80.8589035,15.1811814 Z M89.0089035,10.3811814 C91.4989035,10.3811814 93.0089035,11.5611814 93.0789035,13.4511814 L90.3489035,13.4511814 C90.3489035,12.8011814 89.8089035,12.3911814 88.9789035,12.3911814 C88.1489035,12.3911814 87.7789035,12.7111814 87.7789035,13.1811814 C87.7789035,13.6511814 88.1089035,13.8011814 88.7789035,13.9411814 L90.6989035,14.3311814 C92.5289035,14.7211814 93.3089035,15.4611814 93.3089035,16.8511814 C93.3089035,18.7511814 91.5789035,19.9711814 89.0289035,19.9711814 C86.4789035,19.9711814 84.8089035,18.7511814 84.6789035,16.8811814 L87.5689035,16.8811814 C87.6589035,17.5611814 88.1989035,17.9611814 89.0789035,17.9611814 C89.9589035,17.9611814 90.3589035,17.6711814 90.3589035,17.1911814 C90.3589035,16.7111814 90.0789035,16.6111814 89.3589035,16.4611814 L87.6289035,16.0911814 C85.8389035,15.7211814 84.8989035,14.7711814 84.8989035,13.3711814 C84.9189035,11.5711814 86.5289035,10.4011814 89.0089035,10.4011814 L89.0089035,10.3811814 Z M103.318904,19.7511814 L100.428904,19.7511814 L100.428904,18.0411814 L100.368904,18.0411814 C100.209904,18.6152814 99.8599035,19.1177814 99.3759035,19.4652814 C98.8919035,19.8126814 98.3039035,19.9841814 97.7089035,19.9511814 C97.2531035,19.9770814 96.7971035,19.9048814 96.3716035,19.7393814 C95.9461035,19.5738814 95.5611035,19.3190814 95.2426035,18.9919814 C94.9241035,18.6649814 94.6794035,18.2732814 94.5253035,17.8435814 C94.3711035,17.4138814 94.3110035,16.9560814 94.3489035,16.5011814 L94.3489035,10.5711814 L97.3489035,10.5711814 L97.3489035,15.8111814 C97.3489035,16.9011814 97.9089035,17.4811814 98.8389035,17.4811814 C99.0569035,17.4815814 99.2729035,17.4354814 99.4719035,17.3457814 C99.6699035,17.2560814 99.8479035,17.1248814 99.9919035,16.9610814 C100.134904,16.7971814 100.242904,16.6044814 100.305904,16.3958814 C100.368904,16.1871814 100.387904,15.9673814 100.358904,15.7511814 L100.358904,10.5711814 L103.358904,10.5711814 L103.318904,19.7511814 Z M104.768904,10.5711814 L107.668904,10.5711814 L107.668904,12.3411814 L107.728904,12.3411814 C107.887904,11.7746814 108.230904,11.2768814 108.702904,10.9258814 C109.174904,10.5748814 109.750904,10.3902814 110.338904,10.4011814 C110.937904,10.3532814 111.531904,10.5323814 112.004904,10.9029814 C112.476904,11.2735814 112.792904,11.8083814 112.888904,12.4011814 L112.948904,12.4011814 C113.129904,11.8020814 113.505904,11.2804814 114.016904,10.9183814 C114.526904,10.5562814 115.143904,10.3742814 115.768904,10.4011814 C116.176904,10.3874814 116.582904,10.4597814 116.960904,10.6133814 C117.339904,10.7668814 117.680904,10.9983814 117.963904,11.2925814 C118.246904,11.5868814 118.464904,11.9373814 118.603904,12.3212814 C118.741904,12.7051814 118.798904,13.1140814 118.768904,13.5211814 L118.768904,19.7711814 L115.768904,19.7711814 L115.768904,14.3211814 C115.768904,13.3211814 115.318904,12.8611814 114.478904,12.8611814 C114.291904,12.8595814 114.105904,12.8981814 113.934904,12.9743814 C113.763904,13.0505814 113.610904,13.1625814 113.486904,13.3028814 C113.362904,13.4431814 113.269904,13.6083814 113.214904,13.7874814 C113.159904,13.9666814 113.144904,14.1554814 113.168904,14.3411814 L113.168904,19.7711814 L110.318904,19.7711814 L110.318904,14.2811814 C110.318904,13.3611814 109.868904,12.8611814 109.048904,12.8611814 C108.859904,12.8612814 108.671904,12.9014814 108.499904,12.9791814 C108.326904,13.0569814 108.171904,13.1704814 108.046904,13.3121814 C107.920904,13.4538814 107.826904,13.6206814 107.769904,13.8015814 C107.713904,13.9823814 107.695904,14.1730814 107.718904,14.3611814 L107.718904,19.7711814 L104.718904,19.7711814 L104.768904,10.5711814 Z" id="Shape"></path>
                        <path d="M26.0089035,8.19118142 C25.5,7.02754142 24.8265035,5.94311142 24.0089035,4.97118142 C22.8004035,3.49152142 21.2922035,2.28457142 19.5836035,1.42978142 C17.8750035,0.575001418 16.0047035,0.0917514179 14.0959035,0.0118414179 C12.1871035,-0.0680685821 10.2830035,0.257171418 8.50890351,0.966171418 C6.73487351,1.67516142 5.13107351,2.75183142 3.80310351,4.12531142 C2.47512351,5.49878142 1.45307351,7.13793142 0.804223509,8.93488142 C0.155373509,10.7317814 -0.105576491,12.6457814 0.0385635093,14.5507814 C0.182713509,16.4558814 0.728663509,18.3087814 1.64050351,19.9875814 C2.55234351,21.6664814 3.80939351,23.1331814 5.32891351,24.2911814 C6.30391351,25.0490814 7.38126351,25.6651814 8.52890351,26.1211814 C10.1379035,26.7805814 11.8600035,27.1201814 13.5989035,27.1211814 C17.1883035,27.1132814 20.6281035,25.6824814 23.1644035,23.1424814 C25.7006035,20.6024814 27.1263035,17.1605814 27.1289167,13.5711814 C27.1315035,11.7196814 26.7502035,9.88778142 26.0089035,8.19118142 L26.0089035,8.19118142 Z M13.5889035,2.76117142 C15.1505035,2.76101142 16.6932035,3.10231142 18.1089035,3.76117142 L18.1089035,3.76117142 C17.7637035,3.91034142 17.4007035,4.01453142 17.0289035,4.07118142 C15.8055035,4.24827142 14.6722035,4.81625142 13.7981035,5.69035142 C12.9240035,6.56444142 12.3560035,7.69778142 12.1789035,8.92118142 C12.1012035,9.60728142 11.7891035,10.2455814 11.2954035,10.7283814 C10.8017035,11.2111814 10.1566035,11.5087814 9.46890351,11.5711814 C8.24550351,11.7482814 7.11217351,12.3162814 6.23808351,13.1903814 C5.36399351,14.0644814 4.79600351,15.1977814 4.61891351,16.4211814 C4.55895351,17.0735814 4.28060351,17.6866814 3.82891351,18.1611814 L3.82891351,18.1611814 C3.04956351,16.5144814 2.69946351,14.6972814 2.81118351,12.8788814 C2.92290351,11.0604814 3.49281351,9.29988142 4.46788351,7.76088142 C5.44294351,6.22197142 6.79148351,4.95469142 8.38800351,4.07702142 C9.98450351,3.19935142 11.7771035,2.73982142 13.5989035,2.74116845 L13.5889035,2.76117142 Z M5.31891351,20.5711814 C5.43891351,20.4611814 5.55891351,20.3611814 5.67891351,20.2411814 C6.56856351,19.3786814 7.13962351,18.2400814 7.29891351,17.0111814 C7.36349351,16.3203814 7.67190351,15.6751814 8.16890351,15.1911814 C8.64720351,14.6933814 9.29090351,14.3874814 9.97890351,14.3311814 C11.2023035,14.1540814 12.3356035,13.5860814 13.2097035,12.7119814 C14.0838035,11.8378814 14.6518035,10.7045814 14.8289035,9.48118142 C14.8722035,8.75868142 15.1822035,8.07798142 15.6989035,7.57118142 C16.1890035,7.08303142 16.8388035,6.78828142 17.5289035,6.74117142 C18.6528035,6.58654142 19.7010035,6.08689142 20.5289035,5.31118142 C21.4716035,6.09325142 22.2702035,7.03407142 22.8889035,8.09118142 C22.8509035,8.14248142 22.8073035,8.18948142 22.7589035,8.23118142 C22.2816035,8.73338142 21.6387035,9.04598142 20.9489035,9.11118142 C19.7242035,9.28518142 18.5892035,9.85218142 17.7145035,10.7267814 C16.8399035,11.6014814 16.2729035,12.7364814 16.0989035,13.9611814 C16.0284035,14.6495814 15.7221035,15.2924814 15.2319035,15.7808814 C14.7416035,16.2693814 14.0976035,16.5732814 13.4089035,16.6411814 C12.1819035,16.8168814 11.0444035,17.3837814 10.1652035,18.2574814 C9.28610351,19.1312814 8.71220351,20.2652814 8.52890351,21.4911814 C8.47510351,21.9798814 8.30720351,22.4491814 8.03890351,22.8611814 C7.01290351,22.2519814 6.09400351,21.4783814 5.31891351,20.5711814 L5.31891351,20.5711814 Z M13.5889035,24.4311878 C12.5742035,24.4322814 11.5643035,24.2908814 10.5889035,24.0111814 C10.9226035,23.3891814 11.1395035,22.7112814 11.2289035,22.0111814 C11.2990035,21.3242814 11.6039035,20.6825814 12.0921035,20.1943814 C12.5803035,19.7061814 13.2220035,19.4012814 13.9089035,19.3311814 C15.1341035,19.1560814 16.2697035,18.5889814 17.1458035,17.7146814 C18.0218035,16.8404814 18.5913035,15.7059814 18.7689035,14.4811814 C18.8390035,13.7942814 19.1439035,13.1525814 19.6321035,12.6643814 C20.1203035,12.1761814 20.7620035,11.8712814 21.4489035,11.8011814 C22.3709035,11.6812814 23.2497035,11.3379814 24.0089035,10.8011814 C24.4305035,12.3990814 24.4804035,14.0722814 24.1549035,15.6924814 C23.8294035,17.3126814 23.1370035,18.8368814 22.1310035,20.1479814 C21.1250035,21.4589814 19.8321035,22.5222814 18.3513035,23.2560814 C16.8706035,23.9898814 15.2415035,24.3747814 13.5889035,24.3811814 L13.5889035,24.4311878 Z" id="Shape"></path>
                    </g>
                </g>
            </g>
        </g>
    </g>
</svg>