<?xml version="1.0" encoding="UTF-8"?>
<svg width="154px" height="26px" viewBox="0 0 154 26" version="1.1" xmlns="http://www.w3.org/2000/svg" xmlns:xlink="http://www.w3.org/1999/xlink">
    <title>5187CD3D-ACCB-48FE-9223-7984F2CADB42</title>
    <g id="Page-1" stroke="none" stroke-width="1" fill="none" fill-rule="evenodd">
        <g id="16.-Partners" transform="translate(-946.000000, -1373.000000)" fill-rule="nonzero">
            <g id="Partners-logo" transform="translate(415.000000, 1153.000000)">
                <g id="Logo-box-7" transform="translate(492.000000, 160.000000)">
                    <g id="logoipsum-logo-49" transform="translate(39.000000, 60.000000)">
                        <polygon id="Path" fill="#7476ED" points="23.1526 19.805584 31.1477 19.805584 11.3422 0 3.34702 0"></polygon>
                        <polygon id="Path" fill="#E56F8C" points="15.4497 1e-06 34.5419 19.092184 34.5419 0 29.3752 0 29.3752 6.027764 23.3474 0"></polygon>
                        <polygon id="Path" fill="#64C2DB" points="0 0.663024 0 19.805484 5.16667 19.805484 5.16667 13.777684 11.1944 19.805484 19.1425 19.805484"></polygon>
                        <polygon id="Path" fill="#3A3B7B" points="47.0098 16.827484 51.6391 16.827484 51.6391 19.555484 43.4758 19.555484 43.4758 5.047524 47.0098 5.047524"></polygon>
                        <path d="M57.9541,19.720884 C56.8243,19.720884 55.8047,19.479784 54.8954,18.997484 C53.9998,18.515284 53.2903,17.826384 52.7667,16.930884 C52.257,16.035284 52.0021,14.988184 52.0021,13.789484 C52.0021,12.604684 52.2638,11.564384 52.7874,10.668884 C53.311,9.759484 54.0274,9.063744 54.9367,8.581524 C55.8461,8.099304 56.8656,7.858194 57.9954,7.858194 C59.1252,7.858194 60.1447,8.099304 61.0541,8.581524 C61.9634,9.063744 62.6798,9.759484 63.2034,10.668884 C63.727,11.564384 63.9887,12.604684 63.9887,13.789484 C63.9887,14.974384 63.7201,16.021484 63.1827,16.930884 C62.6592,17.826384 61.9358,18.515284 61.0127,18.997484 C60.1034,19.479784 59.0838,19.720884 57.9541,19.720884 Z M57.9541,16.662184 C58.6292,16.662184 59.201,16.414184 59.6694,15.918184 C60.1516,15.422184 60.3927,14.712684 60.3927,13.789484 C60.3927,12.866384 60.1585,12.156884 59.6901,11.660884 C59.2354,11.164884 58.6705,10.916884 57.9954,10.916884 C57.3065,10.916884 56.7347,11.164884 56.2801,11.660884 C55.8254,12.143084 55.5981,12.852684 55.5981,13.789484 C55.5981,14.712684 55.8185,15.422184 56.2594,15.918184 C56.7141,16.414184 57.279,16.662184 57.9541,16.662184 Z" id="Shape" fill="#3A3B7B"></path>
                        <path d="M69.6249,7.858194 C70.4378,7.858194 71.1474,8.023524 71.7536,8.354194 C72.3736,8.684864 72.8489,9.118884 73.1796,9.656184 L73.1796,8.023524 L76.7136,8.023524 L76.7136,19.534884 C76.7136,20.595784 76.5,21.553284 76.0729,22.407484 C75.6596,23.275484 75.0189,23.964384 74.1509,24.474184 C73.2967,24.983984 72.2289,25.238884 70.9476,25.238884 C69.2391,25.238884 67.8545,24.832384 66.7936,24.019484 C65.7327,23.220384 65.1265,22.131984 64.9749,20.754184 L68.4676,20.754184 C68.5778,21.195084 68.8396,21.539484 69.2529,21.787484 C69.6663,22.049284 70.176,22.180184 70.7823,22.180184 C71.5125,22.180184 72.0911,21.966684 72.5183,21.539484 C72.9591,21.126184 73.1796,20.457984 73.1796,19.534884 L73.1796,17.902184 C72.8351,18.439484 72.3598,18.880384 71.7536,19.224884 C71.1474,19.555484 70.4378,19.720884 69.6249,19.720884 C68.6743,19.720884 67.8131,19.479784 67.0416,18.997484 C66.27,18.501484 65.6569,17.805784 65.2023,16.910184 C64.7614,16.000884 64.5409,14.953784 64.5409,13.768884 C64.5409,12.583984 64.7614,11.543784 65.2023,10.648184 C65.6569,9.752684 66.27,9.063744 67.0416,8.581524 C67.8131,8.099304 68.6743,7.858194 69.6249,7.858194 Z M73.1796,13.789484 C73.1796,12.907784 72.9316,12.211984 72.4356,11.702184 C71.9534,11.192384 71.3609,10.937484 70.6583,10.937484 C69.9556,10.937484 69.3563,11.192384 68.8603,11.702184 C68.378,12.198184 68.1369,12.887084 68.1369,13.768884 C68.1369,14.650684 68.378,15.353284 68.8603,15.876884 C69.3563,16.386684 69.9556,16.641484 70.6583,16.641484 C71.3609,16.641484 71.9534,16.386684 72.4356,15.876884 C72.9316,15.367084 73.1796,14.671284 73.1796,13.789484 Z" id="Shape" fill="#3A3B7B"></path>
                        <path d="M83.8996,19.720884 C82.7698,19.720884 81.7503,19.479784 80.8409,18.997484 C79.9454,18.515284 79.2358,17.826384 78.7123,16.930884 C78.2025,16.035284 77.9476,14.988184 77.9476,13.789484 C77.9476,12.604684 78.2094,11.564384 78.7329,10.668884 C79.2565,9.759484 79.9729,9.063744 80.8823,8.581524 C81.7916,8.099304 82.8112,7.858194 83.9409,7.858194 C85.0707,7.858194 86.0903,8.099304 86.9996,8.581524 C87.9089,9.063744 88.6254,9.759484 89.1489,10.668884 C89.6725,11.564384 89.9343,12.604684 89.9343,13.789484 C89.9343,14.974384 89.6656,16.021484 89.1283,16.930884 C88.6047,17.826384 87.8814,18.515284 86.9583,18.997484 C86.0489,19.479784 85.0294,19.720884 83.8996,19.720884 Z M83.8996,16.662184 C84.5747,16.662184 85.1465,16.414184 85.6149,15.918184 C86.0972,15.422184 86.3383,14.712684 86.3383,13.789484 C86.3383,12.866384 86.1041,12.156884 85.6356,11.660884 C85.1809,11.164884 84.6161,10.916884 83.9409,10.916884 C83.2521,10.916884 82.6803,11.164884 82.2256,11.660884 C81.7709,12.143084 81.5436,12.852684 81.5436,13.789484 C81.5436,14.712684 81.7641,15.422184 82.2049,15.918184 C82.6596,16.414184 83.2245,16.662184 83.8996,16.662184 Z" id="Shape" fill="#3A3B7B"></path>
                        <path d="M92.9665,6.824864 C92.3465,6.824864 91.8367,6.645744 91.4371,6.287524 C91.0514,5.915524 90.8585,5.460864 90.8585,4.923524 C90.8585,4.372414 91.0514,3.917744 91.4371,3.559524 C91.8367,3.187524 92.3465,3.001524 92.9665,3.001524 C93.5727,3.001524 94.0687,3.187524 94.4545,3.559524 C94.854,3.917744 95.0538,4.372414 95.0538,4.923524 C95.0538,5.460864 94.854,5.915524 94.4545,6.287524 C94.0687,6.645744 93.5727,6.824864 92.9665,6.824864 Z M94.7231,8.023524 L94.7231,19.555484 L91.1891,19.555484 L91.1891,8.023524 L94.7231,8.023524 Z" id="Shape" fill="#3A3B7B"></path>
                        <path d="M100.198,9.656184 C100.543,9.118884 101.018,8.684864 101.624,8.354194 C102.23,8.023524 102.94,7.858194 103.753,7.858194 C104.704,7.858194 105.565,8.099304 106.336,8.581524 C107.108,9.063744 107.714,9.752684 108.155,10.648184 C108.61,11.543784 108.837,12.583984 108.837,13.768884 C108.837,14.953784 108.61,16.000884 108.155,16.910184 C107.714,17.805784 107.108,18.501484 106.336,18.997484 C105.565,19.479784 104.704,19.720884 103.753,19.720884 C102.954,19.720884 102.244,19.555484 101.624,19.224884 C101.018,18.894184 100.543,18.467084 100.198,17.943484 L100.198,25.052884 L96.6642,25.052884 L96.6642,8.023524 L100.198,8.023524 L100.198,9.656184 Z M105.241,13.768884 C105.241,12.887084 104.993,12.198184 104.497,11.702184 C104.015,11.192384 103.415,10.937484 102.699,10.937484 C101.996,10.937484 101.397,11.192384 100.901,11.702184 C100.419,12.211984 100.178,12.907784 100.178,13.789484 C100.178,14.671284 100.419,15.367084 100.901,15.876884 C101.397,16.386684 101.996,16.641484 102.699,16.641484 C103.402,16.641484 104.001,16.386684 104.497,15.876884 C104.993,15.353284 105.241,14.650684 105.241,13.768884 Z" id="Shape" fill="#3A3B7B"></path>
                        <path d="M114.762,19.720884 C113.756,19.720884 112.861,19.548684 112.076,19.204184 C111.29,18.859784 110.67,18.391284 110.216,17.798884 C109.761,17.192684 109.506,16.517484 109.451,15.773484 L112.944,15.773484 C112.985,16.173084 113.171,16.496884 113.502,16.744884 C113.832,16.992884 114.239,17.116884 114.721,17.116884 C115.162,17.116884 115.499,17.034184 115.734,16.868884 C115.982,16.689784 116.106,16.462384 116.106,16.186884 C116.106,15.856184 115.933,15.615084 115.589,15.463484 C115.244,15.298184 114.686,15.119084 113.915,14.926184 C113.088,14.733284 112.399,14.533484 111.848,14.326884 C111.297,14.106384 110.822,13.768884 110.422,13.314184 C110.023,12.845784 109.823,12.218884 109.823,11.433484 C109.823,10.772184 110.002,10.172884 110.36,9.635484 C110.732,9.084414 111.27,8.650414 111.972,8.333524 C112.689,8.016634 113.536,7.858194 114.514,7.858194 C115.961,7.858194 117.098,8.216414 117.924,8.932864 C118.765,9.649284 119.247,10.599984 119.371,11.784884 L116.106,11.784884 C116.05,11.385284 115.871,11.068384 115.568,10.834184 C115.279,10.599984 114.893,10.482884 114.411,10.482884 C113.998,10.482884 113.681,10.565484 113.46,10.730884 C113.24,10.882384 113.13,11.095984 113.13,11.371484 C113.13,11.702184 113.302,11.950184 113.646,12.115484 C114.004,12.280884 114.556,12.446184 115.3,12.611484 C116.154,12.831984 116.85,13.052384 117.387,13.272884 C117.924,13.479484 118.393,13.823984 118.792,14.306184 C119.206,14.774684 119.419,15.408384 119.433,16.207484 C119.433,16.882684 119.24,17.488884 118.854,18.026184 C118.482,18.549784 117.938,18.963084 117.222,19.266184 C116.519,19.569284 115.699,19.720884 114.762,19.720884 Z" id="Path" fill="#3A3B7B"></path>
                        <path d="M132.362,8.023524 L132.362,19.555484 L128.828,19.555484 L128.828,17.984884 C128.47,18.494684 127.981,18.907984 127.361,19.224884 C126.755,19.527984 126.08,19.679484 125.336,19.679484 C124.454,19.679484 123.675,19.486684 123,19.100884 C122.325,18.701284 121.802,18.129484 121.43,17.385484 C121.058,16.641484 120.872,15.766684 120.872,14.760884 L120.872,8.023524 L124.385,8.023524 L124.385,14.285484 C124.385,15.057084 124.585,15.656384 124.984,16.083484 C125.384,16.510684 125.921,16.724184 126.596,16.724184 C127.285,16.724184 127.829,16.510684 128.229,16.083484 C128.629,15.656384 128.828,15.057084 128.828,14.285484 L128.828,8.023524 L132.362,8.023524 Z" id="Path" fill="#3A3B7B"></path>
                        <path d="M148.995,7.899524 C150.428,7.899524 151.565,8.333524 152.405,9.201484 C153.26,10.069484 153.687,11.275084 153.687,12.818184 L153.687,19.555484 L150.173,19.555484 L150.173,13.293484 C150.173,12.549484 149.974,11.977784 149.574,11.578184 C149.188,11.164884 148.651,10.958184 147.962,10.958184 C147.273,10.958184 146.729,11.164884 146.329,11.578184 C145.944,11.977784 145.751,12.549484 145.751,13.293484 L145.751,19.555484 L142.237,19.555484 L142.237,13.293484 C142.237,12.549484 142.038,11.977784 141.638,11.578184 C141.252,11.164884 140.715,10.958184 140.026,10.958184 C139.337,10.958184 138.793,11.164884 138.393,11.578184 C138.008,11.977784 137.815,12.549484 137.815,13.293484 L137.815,19.555484 L134.281,19.555484 L134.281,8.023524 L137.815,8.023524 L137.815,9.470184 C138.173,8.987974 138.641,8.609084 139.22,8.333524 C139.799,8.044194 140.453,7.899524 141.183,7.899524 C142.051,7.899524 142.823,8.085524 143.498,8.457524 C144.187,8.829524 144.724,9.359984 145.11,10.048884 C145.51,9.415084 146.054,8.898414 146.743,8.498864 C147.432,8.099304 148.183,7.899524 148.995,7.899524 Z" id="Path" fill="#3A3B7B"></path>
                    </g>
                </g>
            </g>
        </g>
    </g>
</svg>