<?xml version="1.0" encoding="UTF-8"?>
<svg width="72px" height="20px" viewBox="0 0 72 20" version="1.1" xmlns="http://www.w3.org/2000/svg" xmlns:xlink="http://www.w3.org/1999/xlink">
    <title>90CD7A8C-433C-4E64-847B-C12367202694</title>
    <g id="Dizains" stroke="none" stroke-width="1" fill="none" fill-rule="evenodd">
        <g id="01.01.-Homepage" transform="translate(-866.000000, -4459.000000)">
            <g id="Footer" transform="translate(0.000000, 3987.000000)">
                <g id="Logotypes" transform="translate(215.000000, 472.000000)">
                    <g id="Omniva" transform="translate(651.000000, 0.000000)">
                        <rect id="viewbox" x="0" y="0" width="72" height="20"></rect>
                        <g id="asset" transform="translate(0.000000, 1.000000)">
                            <path d="M2.51604268,0.011721971 C2.59621648,-0.0150690899 2.65857388,0.0653040928 2.72093128,0.109955861 C3.58502664,0.913687688 4.7520008,1.36913572 5.92788315,1.38699643 C7.1572147,1.41378749 8.38654626,0.940478749 9.28627442,0.109955861 C9.33972362,0.0653040928 9.41098922,-0.0150690899 9.49116301,0.0206523246 C9.57133681,0.0742344464 9.63369421,0.145677276 9.69605161,0.208189751 C10.4176158,0.931548396 11.1302718,1.65490704 11.8518359,2.37826568 C11.8963769,2.42291745 11.9587343,2.48542993 11.9320097,2.55687276 C11.8518359,2.67296735 11.7360293,2.75334054 11.6291309,2.85157443 C10.6848618,3.69995802 9.55352041,4.32508278 8.34200526,4.67336657 C6.75634572,5.1288146 5.04597139,5.1109539 3.47812825,4.61978445 C2.23988849,4.23577924 1.09963894,3.56600272 0.155369775,2.67296735 C0.110828776,2.61938523 0.0306549795,2.56580311 0.0484713788,2.48542993 C0.101920577,2.38719604 0.182094374,2.32468356 0.262268171,2.24431038 C0.983832343,1.52988209 1.69648832,0.797593091 2.41805249,0.0831648001 C2.44477709,0.0563737392 2.48040988,0.0295826783 2.51604268,0.011721971 Z" id="path2" fill="#EA5B08"></path>
                            <path d="M15.4062076,0.0206523246 C15.468565,-0.0329297972 15.5398306,0.0295826783 15.5843716,0.0742344464 C16.3504767,0.842244859 17.1165819,1.61025527 17.8826871,2.37826568 C17.9272281,2.42291745 17.9806773,2.47649957 17.9628609,2.5479424 C17.9272281,2.61045488 17.8737789,2.664037 17.8203297,2.72654948 C17.0274999,3.61065449 16.5820899,4.79839152 16.5909981,5.99505891 C16.5909981,7.20065665 17.0631327,8.39732404 17.8826871,9.28142905 C17.9539527,9.34394152 18.0074019,9.45110576 17.9183199,9.52254859 C17.1433065,10.3084197 16.3593849,11.0853605 15.5843716,11.8623012 C15.5220142,11.9426744 15.4062076,11.9426744 15.3527584,11.8623012 C14.6846434,11.1657337 14.132335,10.3530715 13.7314661,9.46896647 C13.1435249,8.16513484 12.9030035,6.71841755 13.0099019,5.29849132 C13.1613413,3.32488317 14.0165284,1.41378749 15.4062076,0.0206523246 Z" id="path4" fill="#E9470A"></path>
                            <path d="M2.40914429,6.03971068 C2.47150169,5.9771982 2.56058368,6.02184997 2.60512468,6.08436244 C3.30887245,6.78986038 4.00371203,7.48642796 4.7074598,8.1919259 C4.7965418,8.29015979 4.90344019,8.37053297 4.97470579,8.47769722 C5.01033859,8.56700075 4.93016479,8.62951323 4.87671559,8.68309535 C4.05716122,9.57613072 3.59393484,10.7906588 3.60284304,12.0051869 C3.61175124,13.1929239 4.07497762,14.380661 4.87671559,15.2469053 C4.91234839,15.3004874 4.98361399,15.3451392 4.97470579,15.4255123 C4.97470579,15.4790945 4.92125659,15.5058855 4.89453199,15.5505373 C4.12842682,16.3185477 3.37122985,17.0865581 2.59621648,17.8545685 C2.55167548,17.8992203 2.48931808,17.9438721 2.42696069,17.9081507 C2.33787869,17.8456382 2.26661309,17.7474043 2.1864393,17.6670311 C1.39360953,16.7918565 0.78785195,15.7559354 0.422615764,14.6307109 C-0.0940598157,13.0500383 -0.138600814,11.3175497 0.297900969,9.71901637 C0.672045355,8.34374191 1.40251773,7.05777099 2.40914429,6.03971068 L2.40914429,6.03971068 Z" id="path6" fill="#E6035C"></path>
                            <path d="M8.52907745,13.0143169 C8.61815945,12.9607347 8.68942505,13.0589686 8.75178244,13.1036204 C9.62478601,13.9162826 10.8184848,14.380661 12.0032753,14.3717306 C13.2147905,14.380661 14.4263056,13.9162826 15.3171256,13.0857597 C15.379483,13.0143169 15.4863814,12.9518044 15.557647,13.0500383 C16.2613948,13.7466059 16.9562343,14.4521038 17.6599821,15.1576017 C17.7579723,15.2558356 17.8648707,15.3451392 17.9450445,15.4612338 C17.9806773,15.5237462 17.9361363,15.5862587 17.8915953,15.6309105 C16.8671523,16.6221797 15.602188,17.3455384 14.2303252,17.7116829 C12.6892067,18.1224791 11.0322816,18.0956881 9.50897941,17.6223793 C8.24401506,17.2294438 7.07704091,16.5328762 6.13277174,15.6130498 C6.05259795,15.5594677 6.07932255,15.4523034 6.14167994,15.3987213 C6.86324412,14.6753626 7.58480829,13.952004 8.29746426,13.2286454 C8.38654626,13.1572025 8.44890365,13.0768293 8.52907745,13.0143169 L8.52907745,13.0143169 Z" id="Path" fill="#E4022C"></path>
                            <path d="M54.7270009,2.83371372 C55.3327584,2.67296735 56.0008734,3.12841539 56.072139,3.74460979 C56.1701292,4.31615242 55.760352,4.90555576 55.1902272,5.00378965 C54.5933779,5.13774496 53.9608957,4.69122728 53.8807219,4.08396323 C53.7892644,3.56719343 54.1246086,3.02708564 54.6187748,2.86297882 L54.7270009,2.83371372 Z M30.2739928,8.35267227 C29.9087566,7.42391549 29.1782843,6.63804437 28.2696479,6.2272481 C27.5213591,5.87896431 26.666172,5.78073042 25.8555258,5.94147679 C24.8310828,6.13794457 23.8957219,6.78093003 23.3255971,7.66503504 C22.7287477,8.58486146 22.5416755,9.76366814 22.8267379,10.8174499 C23.0672593,11.7283459 23.6462923,12.5499385 24.4302138,13.067899 C25.285401,13.648372 26.3811096,13.8716308 27.3966443,13.6573023 C28.5190775,13.4429738 29.5167958,12.7017545 30.060196,11.6926245 C30.6214126,10.6834946 30.7015864,9.4243147 30.2739928,8.35267227 Z M27.6549821,11.7819281 C26.6839884,12.3177493 25.3477584,11.9694655 24.7598172,11.0317784 C24.1362432,10.1298126 24.3322236,8.7902596 25.1874108,8.09369201 C25.463565,7.86150282 25.7931684,7.70075645 26.1405882,7.62038327 C27.2006639,7.36140301 28.3765463,8.01331883 28.7239661,9.04923985 C29.1070187,10.0583698 28.6170677,11.299689 27.6549821,11.7819281 Z M34.7102762,5.95933749 L35.1262648,5.91688343 C36.1070541,5.82384728 37.1466688,5.79747483 37.9884937,6.35227305 C39.1821925,5.98612855 40.4382486,5.77180007 41.6943048,5.90575537 C42.2466131,5.96826785 42.8434625,6.12008386 43.2176069,6.56660154 C43.5828431,6.98632816 43.6541087,7.56680115 43.6541087,8.10262237 L43.6541087,13.2375757 C43.6630169,13.371531 43.6362923,13.5501381 43.4581283,13.5412077 C42.9414527,13.5501381 42.4247771,13.5590684 41.9081016,13.5322774 C41.7566622,13.523347 41.7388458,13.3536703 41.747754,13.2286454 L41.747754,8.29909015 L41.747754,8.29909015 C41.747754,8.01331883 41.7121212,7.70075645 41.525049,7.46856726 C41.3379768,7.24530842 41.0440062,7.18279594 40.767852,7.17386559 C40.1264616,7.15600488 39.4850713,7.27209948 38.8614973,7.40605478 L38.8525891,13.2911578 L38.8525891,13.2911578 C38.8704055,13.4340435 38.7724153,13.5590684 38.6209759,13.5322774 C38.0775757,13.523347 37.5341755,13.5769291 36.9907754,13.496556 C36.972959,13.3804614 36.9551426,13.2643668 36.9551426,13.1482722 L36.9551426,8.29015979 L36.9551426,8.29015979 C36.9551426,7.95080635 36.9106016,7.54001009 36.5988146,7.3256816 C36.3582932,7.171633 36.0676632,7.15321414 35.7832967,7.16116774 L35.503106,7.17386559 L35.503106,7.17386559 C35.0220632,7.20065665 34.5410204,7.29889054 34.0688859,7.38819407 C34.0065285,9.41538435 34.0867023,11.4425746 34.0332531,13.4697649 C33.8265828,13.548352 33.6028089,13.5354923 33.3801751,13.5317773 L33.2136987,13.5322774 C32.9108199,13.523347 32.5990329,13.5501381 32.2961541,13.5144167 C32.1447147,13.5054863 32.1268983,13.3358096 32.1358065,13.219715 L32.1358065,7.08456205 L32.1358065,7.08456205 C32.1268983,6.78093003 32.3406951,6.52194977 32.6168493,6.42371588 C33.2938725,6.16473563 34.0065285,6.04864103 34.7102762,5.95933749 Z M46.9145098,6.14687492 C47.9033199,5.93254643 48.9277629,5.81645183 49.9432977,5.87896431 C50.4688814,5.91468572 51.0122816,5.99505891 51.4576916,6.29869093 C51.7962032,6.52194977 52.0189082,6.89702462 52.1079902,7.28996018 C52.1614394,7.52036331 52.1764051,7.75398136 52.1817501,7.98695643 L52.188164,8.45090616 L52.188164,8.45090616 L52.188164,12.6571027 L52.188164,12.6571027 L52.190391,13.0846434 C52.188164,13.2264128 52.1792558,13.3670658 52.1525312,13.5054863 C51.9708039,13.5429938 51.7858697,13.548352 51.6015768,13.5466374 L51.2349866,13.5412077 C50.9321078,13.5322774 50.6203208,13.5679988 50.317442,13.496556 C50.2907174,13.3804614 50.272901,13.2643668 50.272901,13.1572025 L50.272901,8.29909015 L50.272901,8.29909015 C50.272901,8.01331883 50.2550846,7.70968681 50.0680124,7.47749761 C49.8898485,7.24530842 49.5780615,7.18279594 49.3019073,7.17386559 C48.7406907,7.16493523 48.1883823,7.24530842 47.6449821,7.36140301 L47.5152549,7.39373975 C47.47061,7.40803352 47.4320424,7.43005999 47.4219915,7.47247266 L47.4222771,12.7999884 L47.4222771,12.7999884 C47.4133689,13.0232472 47.4400935,13.2465061 47.3955526,13.4608345 C47.2990471,13.55758 47.1592378,13.5426961 47.0328321,13.5402155 L46.9590508,13.5412077 C46.5314572,13.5322774 46.1127718,13.5590684 45.6851782,13.523347 C45.5337388,13.5144167 45.5070142,13.34474 45.5159224,13.219715 L45.5159224,7.15600488 C45.5070142,6.90595498 45.6050044,6.64697472 45.8188012,6.51301942 C46.0165632,6.40049696 46.2367739,6.32655363 46.4621158,6.26418404 L46.9145098,6.14687492 Z M71.4922326,6.53088013 C71.0022816,6.06650174 70.2985339,5.94147679 69.6482353,5.88789466 C68.6267617,5.81645183 67.5982496,5.91435497 66.600238,6.14397164 L66.2274866,6.23617846 C66.067139,6.28083022 65.8978832,6.31655164 65.755352,6.42371588 C65.6891768,6.49515871 65.689904,6.58118171 65.7060063,6.66845444 L65.7352502,6.79863452 C65.739899,6.81993198 65.7438986,6.84089097 65.7464438,6.86130321 C65.8177094,7.11135311 65.8266176,7.38819407 65.9513324,7.62038327 C66.0315062,7.64181612 66.11168,7.63109969 66.1918538,7.61331043 L66.3522014,7.5757315 L66.3522014,7.5757315 C67.314287,7.31675125 68.3209135,7.14707453 69.3186319,7.27209948 C69.5769697,7.31675125 69.8887567,7.40605478 69.9956551,7.67396539 C70.1114617,7.98652777 70.0580125,8.33481156 70.0669207,8.66523464 L67.6438904,8.89742384 L67.6438904,8.89742384 C67.0114082,8.98672738 66.3432932,9.14747374 65.8622504,9.60292178 C65.3990241,10.0405091 65.2386765,10.7013553 65.2475847,11.3175497 C65.2386765,11.9337441 65.3990241,12.5945902 65.8711586,13.0232472 C66.3967424,13.523347 67.1539394,13.6573023 67.8576872,13.7108844 C68.9088547,13.7733969 69.9689305,13.7376755 70.9933734,13.4519042 C71.2784358,13.371531 71.5902228,13.2643668 71.777295,13.0143169 C71.9643672,12.7464063 71.9910918,12.4070528 72,12.0944904 L72,8.09369201 L72,8.09369201 C71.9910918,7.54894044 71.910918,6.93274604 71.4922326,6.53088013 Z M70.0669207,12.2998886 C69.4344385,12.487426 68.7574153,12.5499385 68.0982086,12.4338439 C67.7418806,12.3713314 67.3855526,12.1480726 67.269746,11.7819281 C67.1539394,11.3979229 67.1628476,10.9514052 67.358828,10.594191 C67.5637166,10.2459072 67.9913102,10.1476733 68.3654545,10.1030216 L69.5083436,9.97402758 C69.6997049,9.95319009 69.8917261,9.93334486 70.0847371,9.91548415 L70.0814377,11.5050871 C70.0797881,11.7700209 70.0758289,12.0349548 70.0669207,12.2998886 Z M57.45291,6.07543209 C57.813692,6.0352455 58.179485,6.04529215 58.5465307,6.04905964 L58.9138547,6.04864103 C59.0742023,6.04864103 59.3058155,6.03971068 59.3414483,6.24510881 C59.8759403,8.22764732 60.3658912,10.2101858 60.9003832,12.1927243 C60.9716488,12.1784358 61.0201094,12.1470009 61.041204,12.0892751 L62.361328,6.41478553 L62.361328,6.41478553 L62.4018068,6.27204276 C62.4240417,6.20152868 62.4539732,6.13615849 62.5127674,6.0932928 C62.6998396,6.03078032 62.9047282,6.05757138 63.1007085,6.04864103 C63.4748529,6.05757138 63.8489973,6.03078032 64.2231417,6.06650174 C64.3894281,6.07443983 64.4219815,6.25877997 64.3896236,6.39372753 L62.3969608,13.2465061 C62.3657821,13.371531 62.3005017,13.5239052 62.1653128,13.5480799 L62.1029902,13.5501381 C61.3190686,13.5679988 60.535147,13.5590684 59.7601337,13.5501381 C59.5908779,13.5590684 59.4928877,13.3983221 59.4483467,13.2554364 L57.5151456,6.74927262 L57.5151456,6.74927262 L57.4535189,6.55883981 C57.4146151,6.43109389 57.3876818,6.3019526 57.4183733,6.17253224 L57.45291,6.07543209 Z M54.0588859,6.26296952 C54.1657843,6.13794457 54.3439483,6.18259633 54.4864795,6.17366598 L54.7653418,6.17738101 L54.7653418,6.17738101 L55.3260595,6.17109404 C55.5130604,6.17223712 55.6997763,6.18081026 55.8850668,6.20938739 C55.9117914,6.3433427 55.9296078,6.46836765 55.9296078,6.60232295 L55.9262672,9.95567075 L55.9262672,9.95567075 L55.9296078,13.3090185 C55.9563324,13.4876256 55.7870766,13.5769291 55.6356372,13.5501381 C55.1189617,13.5322774 54.5933779,13.5947899 54.0767023,13.5054863 C54.0499777,13.3893917 54.0321613,13.2732971 54.0321613,13.1661329 L54.0321613,6.81665144 L54.0321613,6.81665144 L54.0254801,6.5364616 C54.0254801,6.49013539 54.0271504,6.44408825 54.0321613,6.39845973 L54.0588859,6.26296952 Z" id="path" fill="#E4022C"></path>
                        </g>
                    </g>
                </g>
            </g>
        </g>
    </g>
</svg>