<?xml version="1.0" encoding="UTF-8"?>
<svg width="46px" height="20px" viewBox="0 0 46 20" version="1.1" xmlns="http://www.w3.org/2000/svg" xmlns:xlink="http://www.w3.org/1999/xlink">
    <title>859E7053-7FD7-4598-9F11-F6376B080DD5</title>
    <defs>
        <linearGradient x1="16.8506646%" y1="90.4711959%" x2="104.71161%" y2="-18.4925848%" id="linearGradient-1">
            <stop stop-color="#B70039" offset="0%"></stop>
            <stop stop-color="#E40039" offset="33.905%"></stop>
        </linearGradient>
    </defs>
    <g id="Dizains" stroke="none" stroke-width="1" fill="none" fill-rule="evenodd">
        <g id="01.01.-Homepage" transform="translate(-968.000000, -4459.000000)">
            <g id="Footer" transform="translate(0.000000, 3987.000000)">
                <g id="Logotypes" transform="translate(215.000000, 472.000000)">
                    <g id="DPD" transform="translate(753.000000, 0.000000)">
                        <rect id="viewbox" x="0" y="0" width="46" height="20"></rect>
                        <g id="asset" fill-rule="nonzero">
                            <path d="M0.0148759586,5.90008876 C0.0916734903,5.94047367 0.153574949,5.97015988 0.21273553,6.0045996 C2.6769653,7.43880675 5.14154815,8.87241364 7.6064841,10.3054203 C7.735315,10.3662227 7.81278657,10.5006905 7.80076862,10.6426409 C7.79592243,12.74067 7.79495143,14.838708 7.79785561,16.9367547 C7.79785561,17.0013044 7.79631966,17.0659732 7.79961666,17.1303772 C7.80038817,17.2495783 7.86622691,17.3588321 7.97125914,17.4152034 C8.11750547,17.4972973 8.26371208,17.5794839 8.41146789,17.6588369 C8.52130713,17.7201296 8.65557901,17.7178148 8.76324031,17.6527725 C8.90460073,17.5752335 9.04547565,17.4968029 9.18586507,17.4174808 C9.29905608,17.361051 9.36726039,17.2421399 9.35881841,17.1159446 C9.35737514,17.0708061 9.35896406,17.025575 9.3589773,16.9803837 C9.35910971,14.604758 9.35646152,12.229119 9.36361163,9.85350652 C9.38130235,9.64560911 9.26847083,9.44846502 9.08025522,9.35841402 C6.26747942,7.72809952 3.45725911,6.09336255 0.649594318,4.45420309 C0.594074998,4.42186868 0.539230968,4.38836907 0.454555069,4.33777538 C0.528797096,4.29263697 0.584117801,4.25584036 0.642219106,4.22415476 C2.51075602,3.20504269 4.37946947,2.18624839 6.24835948,1.16777189 C6.8939619,0.815893541 7.5414313,0.467325434 8.18476952,0.111421838 C8.42675095,-0.0363082897 8.73081212,-0.0371962979 8.9736523,0.109117912 C11.5037691,1.49109391 14.0348171,2.87138389 16.5667964,4.24998786 C16.6058572,4.27127931 16.6434615,4.29524544 16.7088586,4.33406792 C16.6359142,4.37927253 16.5794812,4.41616183 16.521327,4.45001895 C14.7880596,5.46015366 13.054704,6.4701383 11.3212602,7.47997288 C11.265529,7.51245294 11.2093873,7.54437688 11.1552716,7.57938596 C11.058488,7.63680293 11.000907,7.74259932 11.0052383,7.85504937 C11.0072377,8.01641688 11.007582,8.17783734 11.0123355,8.33913864 C11.0128269,8.47813791 11.0891899,8.60577192 11.2114397,8.67192353 C11.3224916,8.7376119 11.4364432,8.79903669 11.543205,8.87114692 C11.686861,8.97811464 11.8832063,8.97988154 12.028764,8.87551644 C12.9232832,8.34787767 13.822185,7.82768032 14.7195377,7.30482154 C15.4608104,6.87290163 16.2021008,6.44101261 16.9434088,6.00915449 C17.0039332,5.97392032 17.0663511,5.94190369 17.1491203,5.89683148 C17.1549596,5.96813402 17.1631822,6.02186581 17.1631954,6.07558436 C17.1638045,8.92246886 17.1642062,11.7693489 17.1644004,14.6162246 C17.175725,14.8872871 17.0303768,15.1407632 16.7907142,15.2679046 C14.1787154,16.8072891 11.5673212,18.3477328 8.95653175,19.8892358 C8.72839752,20.0371036 8.43461888,20.0369065 8.2066833,19.8887327 C5.59546129,18.3478388 2.98380674,16.8076819 0.371719662,15.2682621 C0.132257609,15.1409921 -0.0122257098,14.8869342 0.000814065715,14.6160657 C0.00295910022,11.7691812 0.00384183047,8.92230114 0.00346225647,6.07542547 C0.00348873837,6.02516281 0.00983115522,5.97495311 0.0148759586,5.90008876 Z" id="path" fill="url(#linearGradient-1)"></path>
                            <path d="M27.7257161,4.35061911 L29.6394444,4.35061911 L29.6445213,4.41776289 L29.6445213,4.41776289 L29.6640637,5.72697072 L29.6640637,5.72697072 L29.6780725,8.44402798 L29.6780725,8.44402798 L29.6751879,13.7495449 L29.6751879,13.7495449 L29.662141,14.6506755 C29.6613454,14.669887 29.660524,14.6853209 29.6596766,14.6968091 C29.6101887,14.7172303 29.5595795,14.7348206 29.5080941,14.7494948 C28.8487318,14.9050974 28.1757854,14.9961303 27.4987794,15.0213051 C27.0417679,15.0371943 26.582757,15.0424112 26.126434,15.0184451 C25.5446648,14.9896698 24.9750428,14.8414703 24.4530158,14.5830693 C23.4957657,14.1323672 22.8208113,13.2476551 22.6336134,12.2150304 L22.6027381,12.006618 C22.4890473,11.3354614 22.5315837,10.6471309 22.7270442,9.9950788 C23.0645792,8.7788806 24.0490043,7.8575317 25.272267,7.59395447 L25.467339,7.55785617 C26.1144415,7.42457727 26.7830772,7.43678855 27.4248816,7.59360674 L27.5173466,7.61879202 L27.5173466,7.61879202 L27.7257161,7.68277132 L27.7257161,7.68277132 L27.7257161,4.35061911 Z M27.6815575,13.3063486 L27.7165136,13.2799608 L27.7165136,13.2799608 L27.7244582,13.1020156 L27.7244582,13.1020156 L27.7246171,9.60068375 C27.7245592,9.42796213 27.7247344,9.40300624 27.6025449,9.35954036 L27.5423289,9.33929408 C27.0638081,9.1760544 26.5516971,9.13687501 26.0539133,9.22542188 C25.361965,9.31997991 24.7944735,9.82080289 24.6146216,10.4956266 C24.5421706,10.754737 24.5093833,11.022928 24.5170288,11.2911023 L24.5303562,11.4920878 C24.5579533,12.3849306 25.1995639,13.1399189 26.076264,13.3111697 C26.6021648,13.418048 27.1441829,13.4181336 27.6701173,13.3114213 L27.6815575,13.3063486 L27.6815575,13.3063486 Z M43.7751688,7.68067925 L43.7751688,4.35482973 L45.682462,4.35482973 L45.6872676,4.42145368 L45.6872676,4.42145368 L45.7021144,5.32340917 L45.7021144,5.32340917 L45.7220083,11.8439279 L45.7220083,11.8439279 L45.7070234,14.5080559 L45.7070234,14.5080559 L45.7002578,14.6986628 L45.7002578,14.6986628 C45.4721965,14.7782287 45.2363267,14.8333379 44.9966203,14.8630625 C44.3666039,14.9702165 43.7296743,15.0317527 43.0907969,15.0471912 C42.3218759,15.0955662 41.5512064,14.9856598 40.8264614,14.7242708 C39.6671625,14.3198247 38.8351609,13.3062648 38.6561657,12.1027849 L38.6324354,11.9005182 C38.5321311,11.2270155 38.5905673,10.5393929 38.8030848,9.89247465 C39.1863816,8.66391025 40.2334434,7.75914721 41.5046101,7.5580945 C42.1013819,7.43828673 42.7159767,7.43789521 43.3129006,7.55694254 L43.4568936,7.59048188 L43.4568936,7.59048188 L43.7751688,7.68067925 L43.7751688,7.68067925 Z M43.7657015,13.3075285 L43.7741238,13.1582745 L43.7741238,13.1582745 L43.7760295,9.61004511 C43.7759716,9.43053419 43.7761468,9.40483101 43.6452821,9.35872084 L43.5807916,9.33720201 C43.1073778,9.17879902 42.6022758,9.13923882 42.1099732,9.22200572 C41.3551576,9.32541761 40.7531923,9.90386443 40.6197966,10.6539619 C40.5424454,11.0082843 40.5384215,11.3746879 40.6079724,11.7306236 C40.7093885,12.4615021 41.2344635,13.0627124 41.9450439,13.2615691 C42.5401539,13.4178715 43.1634634,13.4336059 43.7657015,13.3075285 Z M30.7967037,8.07333974 C31.1599827,7.9188344 31.5369589,7.79875988 31.9226747,7.71469526 C32.682262,7.53048929 33.4635684,7.45158921 34.2446481,7.48021121 C34.8917842,7.49630377 35.5276305,7.65329752 36.1078886,7.94025491 C37.0803476,8.41329643 37.7483644,9.34519932 37.8840566,10.4180611 C37.9913857,11.0897052 37.9547052,11.7764928 37.7764474,12.432884 C37.5047437,13.5851017 36.6311011,14.500255 35.4927272,14.8251139 C34.997939,14.9741427 34.4841125,15.0504451 33.9673693,15.0516269 L33.8571648,15.0451388 L33.8571648,15.0451388 C33.8070375,14.487776 33.8013922,13.9273054 33.8402826,13.3690459 C33.9989225,13.3467747 34.1643682,13.3319713 34.3262256,13.2994515 C35.2563661,13.1704629 35.9512798,12.3789828 35.9588352,11.4399714 C35.9899368,11.1243422 35.9608481,10.8056779 35.8731133,10.5008965 C35.6762195,9.83080404 35.0992144,9.34232182 34.405817,9.25870964 C33.9135554,9.17888834 33.4099187,9.20520332 32.9286562,9.33589116 C32.864045,9.35576412 32.8006118,9.37928245 32.7386617,9.40633303 L32.7386617,17.8043153 L30.8143539,17.8043153 L30.8067818,17.6714008 L30.8067818,17.6714008 L30.7897706,16.4502758 L30.7897706,16.4502758 L30.7739952,10.5762321 L30.7739952,10.5762321 L30.7917286,8.17453092 L30.7917286,8.17453092 L30.7967037,8.07333974 L30.7967037,8.07333974 Z" id="path" fill="#3D3D3D"></path>
                        </g>
                    </g>
                </g>
            </g>
        </g>
    </g>
</svg>