<?xml version="1.0" encoding="UTF-8"?>
<svg width="70px" height="20px" viewBox="0 0 70 20" version="1.1" xmlns="http://www.w3.org/2000/svg" xmlns:xlink="http://www.w3.org/1999/xlink">
    <title>7F912286-7154-4A35-A372-F83B865C6715</title>
    <g id="Dizains" stroke="none" stroke-width="1" fill="none" fill-rule="evenodd">
        <g id="01.01.-Homepage" transform="translate(-766.000000, -4459.000000)">
            <g id="Footer" transform="translate(0.000000, 3987.000000)">
                <g id="Logotypes" transform="translate(215.000000, 472.000000)">
                    <g id="Latvijas-pasts" transform="translate(551.000000, 0.000000)">
                        <rect id="viewbox" x="0" y="0" width="70" height="20"></rect>
                        <g id="asset" transform="translate(0.000000, 2.000000)">
                            <path d="M31.2278029,4.75342778 C33.9684162,4.75342778 34.5335165,6.63134834 34.4498826,7.8327526 L34.430875,8.02124145 C34.4268397,8.05153344 34.4223908,8.0812304 34.4175585,8.11028191 C34.060476,10.2669571 32.4760004,11.5336237 30.0573272,11.6106842 L29.8206711,11.614418 L27.6776216,11.614418 L27.1539181,14.7673072 L24.2284669,14.7673072 L25.8885741,4.75342778 L31.2278029,4.75342778 Z M37.1013633,4.75342778 L40.0770359,4.75342778 L42.1700977,14.7673072 L39.1641755,14.7673072 L38.9595528,13.277354 L35.2771609,13.277354 L34.5495355,14.7673072 L31.6463919,14.7673072 L37.1013633,4.75342778 Z M38.1818228,7.39769562 L37.8698666,7.96957193 L36.169232,11.451645 L38.7225782,11.451645 L38.1818228,7.39769562 Z M30.2587574,7.01660433 L28.439234,7.01605355 L28.0201778,9.53897518 L29.6704119,9.53830299 L29.8680048,9.53359769 C30.5792332,9.50536589 31.4687205,9.32891713 31.6512972,8.22611239 C31.8137394,7.24875717 31.1298364,7.06080425 30.515242,7.02465945 L30.2587574,7.01660433 L30.2587574,7.01660433 Z M49.0935177,8.81923016 L48.1810077,8.58522208 L47.7043763,8.46737448 L47.7043763,8.46737448 L47.4081075,8.38826143 C46.5970853,8.16036775 46.0413027,7.89007917 46.0923841,7.30697934 C46.1858191,6.74214439 46.7570576,6.40404144 47.6175944,6.40404144 C47.8633285,6.40404144 48.3239633,6.44218218 48.6426936,6.69543666 C48.9178598,6.89470733 49.0256605,7.17213718 48.9906223,7.49803509 L51.7197432,7.49803509 L51.7197432,7.49803509 C51.8706827,5.57026842 50.5507224,4.85463218 49.239687,4.61438261 L48.9690511,4.5712173 L48.9690511,4.5712173 L48.7015823,4.54016833 L48.7015823,4.54016833 L48.4401931,4.51978571 L48.4401931,4.51978571 L48.187796,4.50861947 L48.187796,4.50861947 L47.9473033,4.50521961 L47.9473033,4.50521961 C46.0391261,4.50521961 43.6691462,5.35323485 43.2728648,7.74600855 C43.0594387,9.03103593 43.7536657,9.65004586 44.7137725,10.0560822 L44.9817297,10.1618794 L44.9817297,10.1618794 L45.259978,10.2591582 L45.259978,10.2591582 L45.5456244,10.3499609 L45.5456244,10.3499609 L47.0535791,10.7908069 L47.0535791,10.7908069 L47.3668706,10.8889623 C47.415676,10.9048453 47.4627961,10.9205276 47.5082599,10.9360656 L47.7614009,11.0280118 C48.384688,11.2709846 48.5989099,11.505826 48.5235639,11.963083 C48.3817762,12.8143842 47.5285975,13.1163414 46.7749271,13.1163414 C45.8378904,13.1163414 45.2985366,12.8179049 45.169713,12.2322979 C45.1330397,12.0654175 45.1291855,11.8731882 45.1458871,11.6720398 L42.2185671,11.6720398 L42.2185671,11.6720398 C41.9975076,13.7158512 43.3994898,14.5137961 44.6208333,14.8228455 L44.870356,14.8800591 L44.870356,14.8800591 L45.1111738,14.9248107 L45.1111738,14.9248107 L45.3397371,14.9585901 L45.3397371,14.9585901 L45.5524959,14.982887 L45.5524959,14.982887 L45.7459004,14.9991912 L45.7459004,14.9991912 L45.9919527,15.0119202 L45.9919527,15.0119202 L46.2566835,15.0146189 L46.2566835,15.0146189 L46.5489869,15.0066084 L46.5489869,15.0066084 L46.9007797,14.9842902 L46.9007797,14.9842902 L47.1625829,14.9587874 C47.2077944,14.9537172 47.2537466,14.9482148 47.3003674,14.9422468 L47.5875368,14.9005841 C47.6365429,14.8926199 47.6860732,14.8841233 47.7360554,14.8750607 L48.0407948,14.8136264 C49.4828314,14.4927443 51.1660129,13.6757371 51.5056601,11.6285007 C51.7722303,10.0147251 50.7074527,9.34088745 49.499749,8.94267177 L49.2295007,8.85844638 C49.1842282,8.84507498 49.1388804,8.83201415 49.0935177,8.81923016 Z M65.5073687,4.50521961 L65.7478758,4.50861947 L65.7478758,4.50861947 L66.0002806,4.51978571 L66.0002806,4.51978571 L66.2616715,4.54016833 C67.674542,4.67603034 69.3465784,5.26699015 69.2900038,7.30290463 L69.279575,7.49803509 L66.5488191,7.49803509 C66.587361,7.17213718 66.478626,6.89470733 66.2047445,6.69543666 C65.8841455,6.44218218 65.4235107,6.40404144 65.1788277,6.40404144 C64.3159551,6.40404144 63.7456509,6.74214439 63.6522159,7.30697934 C63.6054134,7.85577918 64.0951289,8.1274867 64.8278513,8.34754977 L65.1134399,8.42809292 L65.1134399,8.42809292 L65.7392044,8.58522208 L66.6555686,8.81911281 L66.9267174,8.89941022 L66.9267174,8.89941022 L67.1947097,8.9879743 C68.3449624,9.39200256 69.3242448,10.0744946 69.0657256,11.6285007 C68.727143,13.6757371 67.0435406,14.4927443 65.6015967,14.8136264 L65.2968858,14.8750607 C65.2469099,14.8841233 65.1973867,14.8926199 65.1483887,14.9005841 L64.8612795,14.9422468 L64.8612795,14.9422468 L64.5902416,14.972735 L64.5902416,14.972735 L64.2214076,15.0010263 L64.2214076,15.0010263 L63.8182596,15.0146189 L63.8182596,15.0146189 L63.55653,15.0120242 L63.55653,15.0120242 L63.2257826,14.9930118 L63.2257826,14.9930118 L63.0281568,14.9739506 L63.0281568,14.9739506 L62.8134493,14.9466624 L62.8134493,14.9466624 L62.5849744,14.9097546 C62.5459322,14.9027243 62.5064544,14.8952352 62.4666101,14.8872582 L62.2236993,14.8333097 L62.2236993,14.8333097 L61.9753076,14.7662601 C60.8501855,14.4329697 59.6592655,13.6594265 59.7617382,11.8745503 L59.7785158,11.6720398 L62.7057189,11.6720398 C62.6898349,11.8713105 62.6928716,12.0654175 62.730012,12.2322979 C62.8584852,12.8179049 63.3981894,13.1163414 64.3352261,13.1163414 C65.0888965,13.1163414 65.9420752,12.8143842 66.0838629,11.963083 C66.163521,11.4772474 65.915906,11.2424982 65.198383,10.9823029 L64.9253956,10.8889623 L64.9253956,10.8889623 L64.6119911,10.7908069 L64.6119911,10.7908069 L63.1048083,10.3499609 L63.1048083,10.3499609 L62.8194118,10.2591582 L62.8194118,10.2591582 L62.541401,10.1618794 L62.541401,10.1618794 L62.2736648,10.0560822 C61.3143333,9.65004586 60.6204677,9.03103593 60.8329302,7.74600855 C61.2288612,5.35323485 63.5990747,4.50521961 65.5073687,4.50521961 Z M52.3478603,4.75342778 L61.2838711,4.75342778 L60.9105981,7.01605355 L57.9043256,7.01605355 L56.6197105,14.7673072 L53.6939089,14.7673072 L54.9788743,7.01605355 L51.9742369,7.01605355 L52.3478603,4.75342778 Z" id="path" fill="#205E98"></path>
                            <path d="M4.16492628,2.42977682 C2.38230243,5.24209861 2.68024342,11.7584139 3.04253781,12.1783141 C4.05712559,13.3557479 15.0751028,14.2575122 19.1082265,12.887497 C19.94739,12.5199377 22.0514304,4.92465034 21.1291097,4.36474434 C20.6461673,4.07006315 14.5192811,7.69566278 12.3331346,7.87275314 C10.4154971,8.02860206 8.27209723,5.25066561 5.357975,4.57093903 C4.93599898,4.47212518 4.76688155,4.10127988 4.93599898,3.8480254 C5.10511641,3.59664861 5.67985872,3.41404251 6.18102094,3.63126866 C8.39963607,4.59206313 10.1402141,6.55953829 11.3621109,6.53583235 C13.7966778,6.4867775 18.7528229,4.20490532 21.4514606,3.49572236 C21.6268849,3.45077497 21.9134969,3.36932983 21.9438633,3.52881678 C22.8714397,8.36306697 20.5964132,13.462894 20.2969538,13.7162659 C20.0987548,13.8829115 18.8962457,14.6372766 10.8277793,14.6841017 C8.95323871,14.6961894 3.71737241,14.2401435 2.06065229,13.5083108 C1.67721822,13.3401395 1.4646535,11.564659 1.8190059,8.4223318 C2.11355988,5.79367232 3.28289946,1.75861724 3.80286548,1.65980339 C9.69114197,0.565575036 23.9035465,1.08393697 23.8050894,1.00601251 C22.0676647,-0.362477072 2.9955867,-0.244534182 2.52409011,0.816599753 C-0.0103354694,6.52879099 -0.390382512,14.4791979 0.311898639,14.7928908 C4.27611398,16.5687234 20.6991917,16.3344807 21.7217215,14.4235711 C22.3302172,13.2828698 23.9242191,6.08495018 23.8213237,2.5226055 C14.6451848,1.1239554 4.48704359,1.91962982 4.16492628,2.42977682" id="path" fill="#F2C317"></path>
                            <path d="M27.0464678,1.01446215 L26.6116445,3.61413467 L28.0463396,3.61413467 L27.9704236,4.07675245 L26.0384205,4.07675245 L26.5518461,1.01446215 L27.0464678,1.01446215 Z M33.3935104,2.85930018 L33.1908732,1.54139108 L33.1795442,1.54139108 L32.5306378,2.85930018 L33.3935104,2.85930018 Z M33.539853,1.01446215 L34.1145954,4.07675245 L33.5848187,4.07675245 L33.4562287,3.2651176 L32.3274165,3.2651176 L31.9265802,4.07675245 L31.4164249,4.07675245 L33.0148649,1.01446215 L33.539853,1.01446215 Z M40.6742026,1.01446215 L40.5974691,1.47707993 L39.6985072,1.47707993 L39.2640342,4.07675245 L38.7694125,4.07675245 L39.2043526,1.47707993 L38.3107632,1.47707993 L38.3881975,1.01446215 L40.6742026,1.01446215 Z M44.9571483,1.01446215 L45.2585931,3.43856993 L45.2665351,3.43856993 L46.3963983,1.01446215 L46.8990789,1.01446215 L45.418951,4.07675245 L44.8702537,4.07675245 L44.4422044,1.01446215 L44.9571483,1.01446215 Z M51.4347663,1.01446215 L50.9207568,4.07675245 L50.4268358,4.07675245 L50.9389766,1.01446215 L51.4347663,1.01446215 Z M55.8674416,4.14951324 C55.2700413,4.14951324 55.0945002,3.72620976 55.1898039,3.16665583 L55.2154986,3.00517382 L55.70977,3.00517382 L55.6839585,3.16266572 C55.6257952,3.50980509 55.678586,3.71259645 55.9801476,3.71259645 C56.3006298,3.71259645 56.4100656,3.50100338 56.4743022,3.11959603 L56.8271363,1.01446215 L57.322926,1.01446215 L56.9739461,3.09002229 L56.9368488,3.27693486 C56.8278201,3.73936582 56.5819105,4.14951324 55.8674416,4.14951324 Z M62.8184249,2.85930018 L62.6154373,1.54139108 L62.6043419,1.54139108 L61.9550851,2.85930018 L62.8184249,2.85930018 Z M62.9650011,1.01446215 L63.5414954,4.07675245 L63.0099668,4.07675245 L62.8810264,3.2651176 L61.7527982,3.2651176 L61.3513779,4.07675245 L60.8408722,4.07675245 L62.4382611,1.01446215 L62.9650011,1.01446215 Z M68.669561,3.71259645 C69.1060194,3.71259645 69.30562,3.48023135 69.344162,3.2496266 C69.3846894,3.01421024 69.2809765,2.91844766 69.1751614,2.87138786 C69.1226709,2.84815135 69.0649271,2.82704162 69.0006251,2.80602769 L68.375007,2.61848545 L68.375007,2.61848545 C67.9157738,2.47847961 67.8259593,2.16056191 67.8792173,1.84135329 C67.9821126,1.22945854 68.5534679,0.941818721 69.0625721,0.941818721 C69.6531984,0.941818721 70.0915256,1.27992167 69.9836081,1.91974717 L69.4891031,1.91974717 C69.5311489,1.52601743 69.3102918,1.3803785 68.9707722,1.3803785 C68.7423235,1.3803785 68.4364405,1.46863029 68.3844673,1.77727686 C68.3537067,1.96560407 68.4373147,2.08214052 68.5871718,2.14787759 L68.6834031,2.181761 L68.6834031,2.181761 L69.4312902,2.40877008 L69.4312902,2.40877008 C69.7822556,2.52859067 69.9031371,2.87138786 69.8498792,3.18883613 C69.7337861,3.87560408 69.1269255,4.1496306 68.5649137,4.1496306 C67.9207959,4.1496306 67.4538543,3.81504833 67.5697137,3.05551959 L68.0642187,3.05551959 C67.9851493,3.52729115 68.2751483,3.71259645 68.669561,3.71259645 Z" id="path" fill="#F2C317" fill-rule="nonzero"></path>
                        </g>
                    </g>
                </g>
            </g>
        </g>
    </g>
</svg>