<?xml version="1.0" encoding="UTF-8"?>
<svg width="74px" height="20px" viewBox="0 0 74 20" version="1.1" xmlns="http://www.w3.org/2000/svg" xmlns:xlink="http://www.w3.org/1999/xlink">
    <title>BA9E0FF2-9E2D-4BED-85F0-54F70D25B8A4</title>
    <g id="Dizains" stroke="none" stroke-width="1" fill="none" fill-rule="evenodd">
        <g id="01.01.-Homepage" transform="translate(-662.000000, -4459.000000)">
            <g id="Footer" transform="translate(0.000000, 3987.000000)">
                <g id="Logotypes" transform="translate(215.000000, 472.000000)">
                    <g id="PayPal" transform="translate(447.000000, 0.000000)">
                        <rect id="viewbox" x="0" y="1" width="74" height="18"></rect>
                        <g id="asset" transform="translate(0.000000, 1.000000)" fill-rule="nonzero">
                            <path d="M27.6698694,4.02551528 L23.5748642,4.02551528 C23.2946387,4.02551528 23.0563272,4.22831202 23.0126168,4.503877 L21.3564121,14.9640135 C21.3234796,15.170389 21.4839506,15.3564849 21.6941198,15.3564849 L23.649112,15.3564849 C23.9293375,15.3564849 24.167649,15.1536881 24.2113594,14.8775267 L24.6580437,12.0562662 C24.7011553,11.7801047 24.9400655,11.577308 25.2196923,11.577308 L26.5160347,11.577308 C29.2135049,11.577308 30.7703134,10.277023 31.1768799,7.70031149 C31.3601043,6.5730002 31.1846639,5.68725562 30.6547503,5.06693618 C30.0727434,4.38577772 29.0404596,4.02551528 27.6698694,4.02551528 Z M28.1423009,7.84584797 C27.9183599,9.30956326 26.7956615,9.30956326 25.710087,9.30956326 L25.0921537,9.30956326 L25.525665,6.5759825 C25.5514122,6.41076281 25.6951176,6.28908476 25.8627739,6.28908476 L26.1459933,6.28908476 C26.8854774,6.28908476 27.5830473,6.28908476 27.9435084,6.70899331 C28.1584677,6.95950693 28.2243327,7.33169859 28.1423009,7.84584797 Z" id="Shape" fill="#253B80"></path>
                            <path d="M39.9105756,7.79872755 L37.9495957,7.79872755 C37.7825381,7.79872755 37.638234,7.92040559 37.6124867,8.08562529 L37.5256647,8.63198356 L37.3885458,8.43395851 C36.9640161,7.82020015 36.0173568,7.61501756 35.0724938,7.61501756 C32.9055361,7.61501756 31.0547303,9.24991716 30.6942693,11.5433097 C30.5068535,12.6873219 30.7733072,13.7812314 31.4247717,14.544105 C32.0223467,15.2455431 32.8773938,15.537809 33.8947083,15.537809 C35.6407289,15.537809 36.608944,14.4194446 36.608944,14.4194446 L36.5215232,14.9622241 C36.4885908,15.1697926 36.6490618,15.3558884 36.8580334,15.3558884 L38.6244123,15.3558884 C38.9052366,15.3558884 39.1423505,15.1530917 39.1866596,14.8769302 L40.246487,8.19119889 C40.2800182,7.98541984 40.120146,7.79872755 39.9105756,7.79872755 Z M37.1771791,11.60057 C36.987967,12.7165485 36.0987899,13.4657035 34.9647147,13.4657035 C34.3952821,13.4657035 33.940215,13.2837829 33.648014,12.9390284 C33.3582081,12.5966598 33.248034,12.1093512 33.3402449,11.5665717 C33.5168828,10.4601365 34.4210293,9.68652661 35.53774,9.68652661 C36.0945984,9.68652661 36.5472705,9.87083306 36.8454592,10.2185698 C37.1442466,10.5698853 37.2628036,11.0601763 37.1771791,11.60057 Z" id="Shape" fill="#253B80"></path>
                            <path d="M50.3543656,7.79872755 L48.3838053,7.79872755 C48.1957907,7.79872755 48.0191528,7.89177547 47.9125713,8.04745179 L45.1947429,12.03539 L44.0427046,8.20312811 C43.9702532,7.96335079 43.7481086,7.79872755 43.4966241,7.79872755 L41.5601938,7.79872755 C41.3248762,7.79872755 41.1614114,8.02776857 41.2362579,8.24845914 L43.4068082,14.5936112 L41.3661915,17.4631851 C41.2057205,17.6892438 41.3673891,18 41.6446208,18 L43.612786,18 C43.799603,18 43.9744446,17.9093379 44.0804273,17.7566439 L50.6345911,8.33256014 C50.7914695,8.10709789 50.6303997,7.79872755 50.3543656,7.79872755 Z" id="Path" fill="#253B80"></path>
                            <path d="M56.8785907,4.02551528 L52.7829868,4.02551528 C52.5033601,4.02551528 52.2650486,4.22831202 52.2213382,4.503877 L50.5651335,14.9640135 C50.532201,15.170389 50.692672,15.3564849 50.9016436,15.3564849 L53.0033351,15.3564849 C53.1985349,15.3564849 53.3655925,15.2145271 53.3961299,15.0212738 L53.8661663,12.0562662 C53.9092779,11.7801047 54.1481881,11.577308 54.4278149,11.577308 L55.7235586,11.577308 C58.4216275,11.577308 59.9778372,10.277023 60.3850025,7.70031149 C60.5688257,6.5730002 60.3921878,5.68725562 59.8622741,5.06693618 C59.280866,4.38577772 58.249181,4.02551528 56.8785907,4.02551528 Z M57.3510222,7.84584797 C57.1276801,9.30956326 56.0049817,9.30956326 54.9188083,9.30956326 L54.3014739,9.30956326 L54.735584,6.5759825 C54.7613312,6.41076281 54.903839,6.28908476 55.0720941,6.28908476 L55.3553135,6.28908476 C56.0941988,6.28908476 56.7923675,6.28908476 57.1528285,6.70899331 C57.3677879,6.95950693 57.4330541,7.33169859 57.3510222,7.84584797 Z" id="Shape" fill="#179BD7"></path>
                            <path d="M69.1186982,7.79872755 L67.1589158,7.79872755 C66.9906607,7.79872755 66.8475541,7.92040559 66.8224057,8.08562529 L66.7355836,8.63198356 L66.597866,8.43395851 C66.1733363,7.82020015 65.2272757,7.61501756 64.2824127,7.61501756 C62.115455,7.61501756 60.265248,9.24991716 59.904787,11.5433097 C59.7179699,12.6873219 59.9832262,13.7812314 60.6346906,14.544105 C61.2334631,15.2455431 62.0873127,15.537809 63.1046272,15.537809 C64.8506478,15.537809 65.818863,14.4194446 65.818863,14.4194446 L65.7314422,14.9622241 C65.6985097,15.1697926 65.8589807,15.3558884 66.0691499,15.3558884 L67.83493,15.3558884 C68.1145567,15.3558884 68.3528682,15.1530917 68.3965786,14.8769302 L69.4570047,8.19119889 C69.4893384,7.98541984 69.3288674,7.79872755 69.1186982,7.79872755 Z M66.3853017,11.60057 C66.1972872,12.7165485 65.3069125,13.4657035 64.1728373,13.4657035 C63.6046022,13.4657035 63.1483376,13.2837829 62.8561366,12.9390284 C62.5663307,12.5966598 62.4573541,12.1093512 62.5483675,11.5665717 C62.726203,10.4601365 63.6291519,9.68652661 64.7458626,9.68652661 C65.3027211,9.68652661 65.7553931,9.87083306 66.0535818,10.2185698 C66.3535668,10.5698853 66.4721237,11.0601763 66.3853017,11.60057 Z" id="Shape" fill="#179BD7"></path>
                            <path d="M71.4305588,4.31241302 L69.7498044,14.9640135 C69.7168719,15.170389 69.877343,15.3564849 70.0863146,15.3564849 L71.7760506,15.3564849 C72.0568749,15.3564849 72.2951863,15.1536881 72.3382979,14.8775267 L73.9957002,4.41798661 C74.0286327,4.21161111 73.8681617,4.02491882 73.6591901,4.02491882 L71.767069,4.02491882 C71.6000114,4.02551528 71.456306,4.14719332 71.4305588,4.31241302 Z" id="Path" fill="#179BD7"></path>
                            <path d="M4.3506743,17.3892239 L4.66383232,15.4077805 L3.96626236,15.3916761 L0.635290932,15.3916761 L2.95014542,0.77062761 C2.95733069,0.726489496 2.98068282,0.685333687 3.01481285,0.656107098 C3.04894288,0.626880509 3.09265328,0.610776062 3.13815999,0.610776062 L8.75464605,0.610776062 C10.6192236,0.610776062 11.9059857,0.997282789 12.5778085,1.76015641 C12.8927628,2.118033 13.0933516,2.49201405 13.1903527,2.90357214 C13.2921441,3.3354099 13.2939404,3.85134866 13.1945441,4.48061502 L13.1873589,4.52654251 L13.1873589,4.92975015 L13.5023132,5.10749553 C13.7675694,5.24766386 13.9783373,5.40811187 14.1400059,5.59182186 C14.4094535,5.89780635 14.5836963,6.28669892 14.6573454,6.74776327 C14.7333895,7.22194976 14.708241,7.78620187 14.5836963,8.4250116 C14.4399909,9.15985155 14.2076672,9.7998542 13.8939104,10.323547 C13.6053021,10.8060839 13.2376558,11.2063092 12.8011506,11.516469 C12.3844049,11.8111207 11.8892201,12.0347936 11.3293678,12.1779442 C10.7868799,12.318709 10.1683479,12.3896879 9.48993868,12.3896879 L9.05283475,12.3896879 C8.74027551,12.3896879 8.43669785,12.5018225 8.19838639,12.7028299 C7.95947617,12.9080125 7.80140023,13.1883491 7.75289965,13.4949301 L7.71996717,13.6732719 L7.16670137,17.1655511 L7.14155293,17.2937902 C7.13496643,17.3343495 7.12358975,17.3546292 7.10682412,17.3683478 C7.09185481,17.3808735 7.070299,17.3892239 7.04934196,17.3892239 L4.3506743,17.3892239 Z" id="Path" fill="#253B80"></path>
                            <path d="M13.8005019,4.57306647 L13.8005019,4.57306647 L13.8005019,4.57306647 C13.7837363,4.67983299 13.7645756,4.78898535 13.7430198,4.90112002 C13.0023382,8.68924382 10.4683329,9.99787925 7.23196758,9.99787925 L5.58414565,9.99787925 C5.18835703,9.99787925 4.85484075,10.2841805 4.79316718,10.6730731 L4.79316718,10.6730731 L4.79316718,10.6730731 L3.94949673,16.0030486 L3.7105865,17.5138843 C3.67046874,17.7691696 3.86806367,17.9994035 4.12673339,17.9994035 L7.04934196,17.9994035 C7.39543247,17.9994035 7.68942977,17.7488899 7.74391807,17.4089072 L7.77265915,17.2609848 L8.32293107,13.7824243 L8.35825865,13.5915568 C8.41214818,13.2503811 8.70674425,12.9998675 9.05283475,12.9998675 L9.48993868,12.9998675 C12.3215338,12.9998675 14.5381896,11.8546623 15.1860615,8.54072503 C15.4567067,7.15633905 15.3165939,6.00039764 14.600462,5.1874213 C14.3837063,4.94227583 14.1148575,4.73888263 13.8005019,4.57306647 Z" id="Path" fill="#179BD7"></path>
                            <path d="M13.0256903,4.2652926 C12.9125223,4.23248724 12.7957617,4.20266419 12.6760072,4.17582345 C12.5556539,4.14957916 12.4323067,4.12631718 12.305367,4.10603751 C11.8610778,4.03446219 11.3742757,4.00046391 10.8527449,4.00046391 L6.45056946,4.00046391 C6.34219164,4.00046391 6.23920277,4.02491882 6.1469918,4.06905693 C5.94400793,4.16628007 5.79311726,4.35774405 5.75659213,4.59215322 L4.82011194,10.5006959 L4.79316718,10.6730731 C4.85484075,10.2841805 5.18835703,9.99787925 5.58414565,9.99787925 L7.23196758,9.99787925 C10.4683329,9.99787925 13.0023382,8.68864736 13.7430198,4.90112002 C13.7651743,4.78898535 13.7837363,4.67983299 13.8005019,4.57306647 C13.6130861,4.47405395 13.4101022,4.38935648 13.1915503,4.3171847 C13.1376608,4.29929087 13.0819749,4.28199351 13.0256903,4.2652926 Z" id="Path" fill="#222D65"></path>
                            <path d="M5.75659213,4.59215322 C5.79311726,4.35774405 5.94400793,4.16628007 6.1469918,4.06965339 C6.23980154,4.02551528 6.34219164,4.00106038 6.45056946,4.00106038 L10.8527449,4.00106038 C11.3742757,4.00106038 11.8610778,4.03505865 12.305367,4.10663397 C12.4323067,4.12691365 12.5556539,4.15017562 12.6760072,4.17641991 C12.7957617,4.20326065 12.9125223,4.2330837 13.0256903,4.26588906 C13.0819749,4.28258997 13.1376608,4.29988734 13.1921491,4.3171847 C13.410701,4.38935648 13.6136849,4.47465041 13.8011007,4.57306647 C14.021449,3.17317251 13.7993044,2.22002783 13.0394621,1.35694877 C12.2017793,0.406786401 10.6898788,0 8.75524482,0 L3.13875876,0 C2.74356891,0 2.40645999,0.286301279 2.34538519,0.675790311 L0.00598103301,15.4471469 C-0.0401244496,15.7394128 0.186211556,16.0030486 0.482005171,16.0030486 L3.94949673,16.0030486 L4.82011194,10.5006959 L5.75659213,4.59215322 Z" id="Path" fill="#253B80"></path>
                        </g>
                    </g>
                </g>
            </g>
        </g>
    </g>
</svg>