<?xml version="1.0" encoding="UTF-8"?>
<svg width="36px" height="20px" viewBox="0 0 36 20" version="1.1" xmlns="http://www.w3.org/2000/svg" xmlns:xlink="http://www.w3.org/1999/xlink">
    <title>DD83FEBE-5BA4-460C-ABF8-BC8DF098AA5B</title>
    <g id="Dizains" stroke="none" stroke-width="1" fill="none" fill-rule="evenodd">
        <g id="01.01.-Homepage" transform="translate(-319.000000, -4459.000000)">
            <g id="Footer" transform="translate(0.000000, 3987.000000)">
                <g id="Logotypes" transform="translate(215.000000, 472.000000)">
                    <g id="SEB" transform="translate(104.000000, 0.000000)">
                        <rect id="viewbox" x="0" y="0" width="36" height="20"></rect>
                        <g id="asset" transform="translate(0.000000, 2.000000)" fill="#000000" fill-rule="nonzero">
                            <path d="M9.8019802,4.09022556 L7.84158416,5.53383459 C6.95049505,4.7518797 5.76237624,4.57142857 5.10891089,4.57142857 C4.45544554,4.57142857 3.74257426,4.7518797 3.68316832,5.23308271 C3.56435644,5.71428571 3.98019802,6.07518797 4.69306931,6.2556391 C5.52475248,6.4962406 6.2970297,6.67669173 7.48514851,7.03759398 C9.20792079,7.51879699 10.3960396,8.3007519 10.3960396,10.0451128 C10.3960396,12.5112782 8.25742574,13.7744361 5.40594059,13.7744361 C2.55445545,13.7744361 0.594059406,12.2706767 0,11.5488722 L2.01980198,9.9849624 C3.44554455,11.2481203 4.45544554,11.4285714 5.28712871,11.4285714 C6.23762376,11.4285714 7.12871287,11.2481203 7.24752475,10.6466165 C7.36633663,10.2255639 6.95049505,9.8646617 6.17821782,9.6842105 C5.22772277,9.443609 4.45544554,9.2631579 3.62376238,9.0827068 C1.24752475,8.481203 0.594059406,7.03759398 0.594059406,5.83458647 C0.594059406,4.09022556 2.1980198,2.34586466 5.04950495,2.34586466 C8.01980198,2.34586466 9.8019802,4.09022556 9.8019802,4.09022556 M22.0990099,2.52631579 L13.4851485,2.52631579 L13.4851485,13.4736842 L22.2772277,13.4736842 L22.2772277,10.9473684 L16.5148515,10.9473684 L16.5148515,9.2030075 L20.4950495,9.2030075 L20.4950495,6.79699248 L16.5148515,6.79699248 L16.5148515,5.05263158 L22.0990099,5.05263158 L22.0990099,2.52631579 Z M11.0613861,16 L11.8514851,16 L11.8514851,0 L11.0613861,0 L11.0613861,16 Z M23.3079208,16 L24.0980198,16 L24.0980198,0 L23.3079208,0 L23.3079208,16 Z M25.6633663,13.4736842 L32.6138614,13.4736842 C34.4554455,13.4736842 36,12.3308271 36,10.5263158 C36,9.0827068 35.1089109,8.1804511 33.8019802,7.7593985 C33.8019802,7.7593985 33.7425743,7.7593985 33.6831683,7.7593985 C33.7425743,7.7593985 33.8019802,7.7593985 33.8019802,7.7593985 C34.5148515,7.45864662 35.3465347,6.67669173 35.3465347,5.35338346 C35.3465347,3.66917293 33.8613861,2.58646617 32.019802,2.58646617 L25.6633663,2.58646617 L25.6633663,13.4736842 Z M28.6930693,4.81203008 L31.1287129,4.81203008 C31.6633663,4.81203008 32.1386139,5.23308271 32.1386139,5.77443609 C32.1386139,6.31578947 31.6633663,6.73684211 31.1287129,6.73684211 L28.6930693,6.73684211 L28.6930693,4.81203008 Z M31.6633663,11.0075188 L28.6930693,11.0075188 L28.6930693,9.0225564 L31.6633663,9.0225564 C32.1980198,9.0225564 32.6138614,9.443609 32.6138614,10.0451128 C32.6138614,10.5864662 32.1980198,11.0075188 31.6633663,11.0075188" id="logo"></path>
                        </g>
                    </g>
                </g>
            </g>
        </g>
    </g>
</svg>