<?xml version="1.0" encoding="UTF-8"?>
<svg width="65px" height="20px" viewBox="0 0 65 20" version="1.1" xmlns="http://www.w3.org/2000/svg" xmlns:xlink="http://www.w3.org/1999/xlink">
    <title>A3A7E98A-DD68-44DB-AA66-8A32AFDFCE07</title>
    <g id="Dizains" stroke="none" stroke-width="1" fill="none" fill-rule="evenodd">
        <g id="01.01.-Homepage" transform="translate(-469.000000, -4459.000000)">
            <g id="Footer" transform="translate(0.000000, 3987.000000)">
                <g id="Logotypes" transform="translate(215.000000, 472.000000)">
                    <g id="Citadele" transform="translate(254.000000, 0.000000)">
                        <rect id="viewbox" x="0" y="0" width="65" height="20"></rect>
                        <g id="asset" fill-rule="nonzero">
                            <rect id="path" fill="#E3002C" x="0" y="0" width="65" height="20"></rect>
                            <path d="M21.3358893,10.1270537 C21.3358893,8.61993428 22.0648997,7.79627601 23.176196,7.79627601 C23.5851531,7.79627601 23.9229872,7.91894852 24.349725,8.12924425 C24.5008613,8.19934283 24.6253264,8.17305586 24.8209146,7.70865279 L24.9631605,7.38444688 C25.1054065,6.99890471 25.1142968,6.83242059 24.9364894,6.75355969 C24.4297383,6.44687842 23.6384953,6.27163198 22.9450464,6.27163198 C20.9891649,6.27163198 19.5133633,7.80503834 19.5133633,10.1270537 C19.5133633,12.449069 20.9980552,14 22.9450464,14 C23.6384953,14 24.447519,13.8072289 24.9542702,13.50931 C25.1231872,13.4304491 25.1142968,13.263965 24.9720509,12.8784228 L24.829805,12.5366922 C24.6253264,12.0635268 24.5097516,12.0372399 24.349725,12.1161008 C23.9318775,12.3263965 23.5762627,12.449069 23.1584153,12.449069 C22.0648997,12.449069 21.3358893,11.6341731 21.3358893,10.1270537 M44.6286603,13.6407448 C44.6286603,13.8510405 44.548647,13.9036145 43.9707729,13.9036145 L43.9085403,13.9036145 C43.3039951,13.9036145 43.2150914,13.8685652 43.1617492,13.7196057 C43.1350781,13.6407448 43.108407,13.50931 43.0906262,13.4129244 C42.7705729,13.7984666 42.3793966,14 41.7837417,14 C40.3435017,14 39.4722454,12.939759 39.4722454,11.2486309 C39.4722454,9.41730559 40.4324054,8.33077766 41.8726454,8.33077766 C42.2727121,8.33077766 42.6461077,8.45345016 42.9305995,8.68127054 L42.9305995,6.30668127 C42.9305995,6.14019715 42.9483803,6.0788609 43.7485136,6.0788609 L43.8018559,6.0788609 C44.548647,6.0788609 44.6286603,6.14019715 44.6286603,6.30668127 L44.6286603,13.6407448 L44.6286603,13.6407448 Z M42.9305995,10.0219058 C42.7172306,9.81161008 42.4594099,9.68893757 42.1571373,9.68893757 C41.5170306,9.68893757 41.214758,10.2409639 41.214758,11.2573932 C41.214758,11.8357065 41.3392232,12.2124863 41.5170306,12.4052574 C41.6770573,12.5980285 41.9259877,12.6681271 42.1571373,12.6681271 C42.4594099,12.6681271 42.6905595,12.5980285 42.797244,12.4578313 C42.8861477,12.3526835 42.9305995,12.1949617 42.9305995,11.8269441 L42.9305995,10.0219058 L42.9305995,10.0219058 Z M53.2878813,13.6845564 C53.2878813,13.8422782 53.2167583,13.9036145 52.4610768,13.9036145 L52.4077346,13.9036145 C51.6076013,13.9036145 51.5809302,13.8335159 51.5809302,13.6845564 L51.5809302,6.31544359 C51.5809302,6.14895947 51.5987109,6.08762322 52.4077346,6.08762322 L52.4610768,6.08762322 C53.207868,6.08762322 53.2878813,6.14895947 53.2878813,6.31544359 L53.2878813,13.6845564 L53.2878813,13.6845564 Z M47.3135523,11.7217963 C47.4113463,12.3877327 47.8291938,12.7119387 48.4781908,12.7119387 C48.9938323,12.7119387 49.4650219,12.5980285 50.0162249,12.3526835 C50.1317997,12.3088719 50.2384842,12.3526835 50.354059,12.7294633 L50.4429627,12.939759 C50.5674279,13.3253012 50.5585375,13.4129244 50.425182,13.483023 C49.7672945,13.8510405 49.082736,14 48.3181641,14 C46.6289937,14 45.5710396,12.9748083 45.5710396,11.2223439 C45.5710396,9.52245345 46.54009,8.33953998 48.2203701,8.33953998 C49.8650886,8.33953998 50.7185642,9.50492881 50.7185642,11.1259584 C50.7185642,11.66046 50.6741124,11.7217963 50.4785242,11.7217963 L47.3135523,11.7217963 L47.3135523,11.7217963 Z M49.0205034,10.67908 C48.9938323,10.1182913 48.771573,9.62760131 48.2025893,9.62760131 C47.7136189,9.62760131 47.3668945,9.98685652 47.2957715,10.67908 L49.0205034,10.67908 L49.0205034,10.67908 Z M55.9372118,11.7217963 C56.0350058,12.3877327 56.4439629,12.7119387 57.1018503,12.7119387 C57.6086014,12.7119387 58.0886814,12.5980285 58.6398844,12.3526835 C58.7554592,12.3088719 58.8532533,12.3526835 58.9777185,12.7294633 L59.0577318,12.939759 C59.182197,13.3253012 59.1733067,13.4129244 59.0488415,13.483023 C58.390954,13.8510405 57.6975051,14 56.9329333,14 C55.2437628,14 54.1858087,12.9748083 54.1858087,11.2223439 C54.1858087,9.52245345 55.1548591,8.33953998 56.8262488,8.33953998 C58.4798578,8.33953998 59.3333333,9.50492881 59.3333333,11.1259584 C59.3333333,11.66046 59.2799911,11.7217963 59.0932933,11.7217963 L55.9372118,11.7217963 L55.9372118,11.7217963 Z M57.6441629,10.67908 C57.6174918,10.1182913 57.3774518,9.62760131 56.8262488,9.62760131 C56.3372784,9.62760131 55.9816636,9.98685652 55.919431,10.67908 L57.6441629,10.67908 L57.6441629,10.67908 Z M36.7606823,10.0657174 C36.5828749,9.83789704 36.3161638,9.70646221 36.0227816,9.69769989 C35.3915653,9.69769989 35.0804023,10.2497262 35.0804023,11.2398686 C35.0804023,12.0810515 35.3026616,12.694414 36.0050008,12.694414 C36.271712,12.694414 36.4584097,12.6330778 36.5917653,12.4928806 C36.7162305,12.3614458 36.7695727,12.1861993 36.7695727,11.7918949 C36.7606823,11.8006572 36.7606823,10.0657174 36.7606823,10.0657174 Z M38.4765239,13.6407448 C38.4765239,13.8510405 38.3965105,13.9036145 37.8186364,13.9036145 L37.7386231,13.9036145 C37.1340779,13.9036145 37.0451742,13.8685652 36.991832,13.7196057 C36.9651609,13.6407448 36.9384897,13.50931 36.920709,13.4129244 C36.6006557,13.7984666 36.2094794,14 35.6138245,14 C34.2269267,14 33.34678,12.966046 33.34678,11.2749179 C33.34678,9.39101862 34.4402956,8.33953998 35.7382897,8.33953998 C36.271712,8.33953998 36.7251209,8.56736035 36.9740512,8.8652793 L37.0007223,8.6286966 C37.0185031,8.51478642 37.0451742,8.43592552 37.6763905,8.43592552 L37.7475135,8.43592552 C38.3965105,8.43592552 38.4854142,8.47973713 38.4854142,8.65498357 L38.4765239,13.6407448 L38.4765239,13.6407448 Z M30.5196422,6.85870756 C31.1597488,6.85870756 31.1953103,6.86746988 31.1953103,7.06900329 L31.1953103,8.44468784 L32.2977163,8.44468784 C32.4488526,8.44468784 32.4933044,8.47097481 32.4933044,8.98795181 L32.4933044,9.05805038 C32.4933044,9.57502738 32.4488526,9.60131435 32.2977163,9.60131435 L31.1953103,9.60131435 L31.1953103,12.0722892 C31.1953103,12.4928806 31.2664333,12.7031763 31.6487192,12.7031763 C31.8531978,12.7031763 32.0221148,12.6593647 32.1910318,12.6067908 C32.3688393,12.5279299 32.4399622,12.6243154 32.5644274,13.0536692 L32.5910985,13.1588171 C32.7244541,13.6319825 32.6800022,13.6757941 32.5110852,13.754655 C32.1643607,13.9123768 31.7109518,14 31.284214,14 C29.9239873,14 29.5417014,13.3253012 29.5417014,12.1511501 L29.5417014,9.61007667 L28.9015947,9.61007667 C28.741568,9.61007667 28.7060066,9.5837897 28.7060066,9.06681271 L28.7060066,8.99671413 C28.7060066,8.47973713 28.741568,8.45345016 28.9015947,8.45345016 L29.6217147,8.45345016 C29.6928377,8.01533406 29.8350836,7.3932092 29.915097,7.07776561 C29.9773296,6.89375685 30.0040007,6.85870756 30.5196422,6.85870756 M26.9634939,8.44468784 C27.710285,8.44468784 27.7725176,8.51478642 27.7725176,8.67250821 L27.7725176,13.6757941 C27.7725176,13.8422782 27.7013947,13.8948521 26.9634939,13.8948521 L26.9190421,13.8948521 C26.101128,13.8948521 26.0744569,13.8422782 26.0744569,13.6757941 L26.0744569,8.67250821 C26.0744569,8.5060241 26.0922376,8.44468784 26.9190421,8.44468784 L26.9634939,8.44468784 L26.9634939,8.44468784 Z M26.9190421,6 C27.4524643,6 27.8436406,6.41182913 27.8436406,6.88499452 C27.8436406,7.34939759 27.4524643,7.76122673 26.9190421,7.76122673 C26.3856198,7.76122673 25.9855531,7.34939759 25.9855531,6.88499452 C25.9944435,6.42059146 26.3856198,6 26.9190421,6 Z M6.39117631,13.1150055 C6.03556148,13.1150055 6,12.992333 6,12.0898138 L6,11.932092 C6,11.0208105 6.03556148,10.898138 6.39117631,10.898138 L14.6147691,10.898138 C14.970384,10.898138 15.0059454,11.0295728 15.0059454,11.932092 L15.0059454,12.0898138 C15.0059454,13.0010953 14.970384,13.1150055 14.6147691,13.1150055 L6.39117631,13.1150055 L6.39117631,13.1150055 Z M14.6147691,6.89375685 C14.970384,6.89375685 15.0059454,7.01642935 15.0059454,7.92771084 L15.0059454,8.07667032 C15.0059454,8.99671413 14.970384,9.11938664 14.6147691,9.11938664 L6.39117631,9.11938664 C6.03556148,9.11938664 6,8.99671413 6,8.07667032 L6,7.92771084 C6,7.01642935 6.03556148,6.89375685 6.39117631,6.89375685 L14.6147691,6.89375685" id="path" fill="#FFFFFF"></path>
                        </g>
                    </g>
                </g>
            </g>
        </g>
    </g>
</svg>