<?xml version="1.0" encoding="UTF-8"?>
<svg width="68px" height="20px" viewBox="0 0 68 20" version="1.1" xmlns="http://www.w3.org/2000/svg" xmlns:xlink="http://www.w3.org/1999/xlink">
    <title>CB177AD8-3C90-4C45-BA2E-4F3E5936CB66</title>
    <g id="Dizains" stroke="none" stroke-width="1" fill="none" fill-rule="evenodd">
        <g id="01.01.-Homepage" transform="translate(-564.000000, -4459.000000)">
            <g id="Footer" transform="translate(0.000000, 3987.000000)">
                <g id="Logotypes" transform="translate(215.000000, 472.000000)">
                    <g id="PaySera" transform="translate(349.000000, 0.000000)">
                        <rect id="viewbox" x="0" y="2" width="68" height="16"></rect>
                        <g id="asset" transform="translate(0.000000, 2.097766)">
                            <path d="M43.2165435,0.00166233766 L43.3520244,0 L43.3520244,0 L43.6033649,0 L43.6033649,0 L43.6136943,0.000643616738 C43.6543039,0.00574072082 43.6857954,0.0404875125 43.6857954,0.0824935065 C43.6857954,0.128103896 43.6465527,0.167896104 43.6009771,0.167896104 C43.3631069,0.186831169 43.1248863,0.208220779 42.8863153,0.231801948 L42.6476275,0.256103896 L42.5414229,0.26774026 C42.2531237,0.298805195 41.9642015,0.333298701 41.6746565,0.371428571 C41.5653374,0.386181818 41.4556031,0.402285714 41.3458687,0.418181818 C41.1163298,0.450493506 40.886687,0.483116883 40.6563176,0.520103896 C40.3612702,0.567792208 40.0653924,0.620571429 39.7693069,0.67574026 L39.5956214,0.706493506 L39.5956214,0.706493506 C39.2084885,0.781402597 38.8392122,0.860571429 38.4873771,0.944207792 C38.4219206,0.959617662 38.3570687,0.975175397 38.2928213,0.990880997 L38.1018927,1.03844139 C35.0760529,1.80650506 33.4430603,2.91524571 33.2022718,4.36457143 C33.1362443,4.76519481 33.4025344,5.24290909 34.0007267,5.79750649 L34.0482367,5.84055452 L34.0482367,5.84055452 L34.1020676,5.88773537 L34.1020676,5.88773537 L34.1622194,5.93904914 L34.1622194,5.93904914 L34.2286919,5.99449591 L34.2286919,5.99449591 L34.3271542,6.0748542 L34.3271542,6.0748542 L34.436853,6.1625604 L34.436853,6.1625604 L34.5897776,6.28252647 L34.5897776,6.28252647 L34.6899595,6.36001737 L34.6899595,6.36001737 L34.909284,6.5273999 L34.909284,6.5273999 L35.1538886,6.71131731 L35.1538886,6.71131731 L35.3770366,6.87721312 L35.3770366,6.87721312 L35.6679866,7.09144627 L35.6679866,7.09144627 L36.0393771,7.36228571 L36.0393771,7.36228571 L36.1245222,7.42424655 L36.1245222,7.42424655 L36.2903102,7.54609984 C36.3988411,7.6264186 36.5033921,7.70490712 36.6040163,7.78158535 L36.7520142,7.89524748 L36.7520142,7.89524748 L36.8238168,7.95106494 C37.3131053,8.36488312 37.6928672,8.73361039 37.9574962,9.05485714 C38.5160305,9.73277922 38.7448427,10.3687273 38.6436214,10.9631169 C38.3400611,12.7942857 36.7719084,14.1258182 33.939371,14.958026 C33.7941313,14.9977143 33.6466076,15.0392727 33.4971115,15.0833247 C31.4589634,15.6204927 28.9862755,15.8933584 26.0793445,15.9020208 L25.9360305,15.9022338 L25.6894656,15.9022338 C25.6439939,15.9022338 25.6070351,15.8652468 25.6070351,15.8197403 C25.6070351,15.7775425 25.6384382,15.7405677 25.6791158,15.735129 L26.1827923,15.690522 L26.1827923,15.690522 L26.5312005,15.6575689 L26.5312005,15.6575689 L26.6449954,15.646026 L26.6449954,15.646026 L26.7515115,15.6344935 L26.7515115,15.6344935 C27.0398107,15.6034286 27.328629,15.5689351 27.6180702,15.5308052 C27.7277008,15.5160519 27.8374351,15.4999481 27.9471695,15.4839481 C28.1767084,15.4516364 28.4062473,15.419013 28.636513,15.3821299 C28.9315603,15.3343377 29.2273344,15.2816623 29.5235237,15.2264935 L29.6972092,15.1957403 L29.6972092,15.1957403 C30.084342,15.1207273 30.4535145,15.0416623 30.8054534,14.958026 C30.8709099,14.9426161 30.9357619,14.9270584 31.0000093,14.9113528 L31.1909379,14.8637924 C34.2167774,14.0957285 35.8497661,12.9869839 36.090455,11.5375584 C36.1552085,11.1452814 35.9012473,10.6791917 35.3289612,10.1392894 L35.2768657,10.090837 L35.2768657,10.090837 L35.2272488,10.0464101 L35.2272488,10.0464101 L35.1512605,9.98074305 L35.1512605,9.98074305 L35.0640357,9.90772636 L35.0640357,9.90772636 L34.9912433,9.84814075 L34.9912433,9.84814075 L34.8843555,9.76226265 L34.8843555,9.76226265 L34.7349459,9.6445804 L34.7349459,9.6445804 L34.5679817,9.51541558 L34.5679817,9.51541558 L34.4217715,9.40381656 L34.4217715,9.40381656 L34.1813926,9.22263989 L34.1813926,9.22263989 L34.0070982,9.09267032 L34.0070982,9.09267032 L33.7245948,8.88393877 L33.7245948,8.88393877 L33.3086104,8.57991371 L33.3086104,8.57991371 L33.2534534,8.53984416 C33.1961673,8.49830649 33.1398945,8.45723429 33.0846257,8.41662255 L32.9218227,8.29616374 L32.9218227,8.29616374 L32.7649896,8.17843782 L32.7649896,8.17843782 L32.6140715,8.06341486 C32.5894084,8.04446795 32.5649895,8.02563242 32.5408135,8.00690764 L32.4690137,7.95106494 C31.9797252,7.53724675 31.5998595,7.16862338 31.3353344,6.84727273 C30.7768,6.16945455 30.5479878,5.5334026 30.6491053,4.93901299 C30.9526656,3.10794805 32.5209221,1.77631169 35.3534595,0.944207792 C35.4985954,0.904519481 35.6461191,0.862857143 35.7957191,0.818805195 C37.3493374,0.409454545 39.1556458,0.153558442 41.214229,0.0512207792 C41.2989435,0.047012987 41.3853969,0.0438701299 41.4722656,0.040987013 L41.7327939,0.0323116883 L41.7327939,0.0323116883 L41.9961122,0.0217922078 C42.0839023,0.0183116883 42.1721466,0.0151168831 42.2621557,0.012987013 C42.5741252,0.0054025974 42.8938809,0.0027012987 43.2165435,0.00166233766 Z M44.3585282,4.24644156 C44.424002,4.24644156 44.4885274,4.24663139 44.5521043,4.24701106 L44.7399896,4.24871958 L44.7399896,4.24871958 L44.9221842,4.2515671 L44.9221842,4.2515671 L45.0986882,4.25555363 C45.1276313,4.25631297 45.1563372,4.25711977 45.1848061,4.25797403 L45.352774,4.26366907 L45.352774,4.26366907 L45.5150512,4.27050313 C45.5416231,4.27173705 45.567958,4.27301844 45.5940558,4.27434728 L45.7477969,4.28288985 C45.7729462,4.28440853 45.7978584,4.28597467 45.8225334,4.28758826 L45.8958473,4.29257143 C45.9837594,4.29876364 46.0681749,4.30565403 46.1490872,4.31324426 L46.2678275,4.3251547 C46.5194017,4.35209881 46.7339384,4.38644379 46.9112094,4.42824673 L46.9514565,4.43802597 C47.5187115,4.57007792 47.9762321,4.83418182 48.3238107,5.23023377 C48.6140824,5.56488312 48.8098809,5.94119481 48.9109985,6.35937662 C48.9252275,6.42021696 48.9385539,6.48548816 48.9509772,6.5551889 L48.9654514,6.64095588 C48.9701317,6.67025355 48.9746673,6.70025986 48.9790584,6.73097472 L48.9917977,6.8252449 C49.0041032,6.92164059 49.0151069,7.02441253 49.0248076,7.13355844 L49.034074,7.24482893 L49.034074,7.24482893 L49.0424716,7.36034822 L49.0424716,7.36034822 L49.05,7.48011581 C49.0523646,7.52074634 49.0545843,7.56208483 49.0566591,7.6041312 L49.0624485,7.73239387 L49.0624485,7.73239387 L49.0673681,7.86490331 L49.0673681,7.86490331 L49.0714175,8.00165903 L49.0714175,8.00165903 L49.0745965,8.14266051 C49.0750538,8.16651454 49.0754748,8.19054545 49.0758595,8.21475325 C49.0758595,8.26961039 49.056829,8.31748982 49.0186222,8.3582456 L49.0033954,8.37319481 C48.9682361,8.41235209 48.9225773,8.43410614 48.8664917,8.43845695 L48.844971,8.43927273 L41.4685802,8.43927273 C41.4904855,8.7518961 41.5324275,9.016 41.593887,9.23168831 C41.6642748,9.48706494 41.7652885,9.68072727 41.8974473,9.81277922 C41.9677313,9.89194805 42.0798534,9.96893506 42.2337099,10.0439481 C42.3784997,10.1065628 42.5352657,10.153334 42.7042993,10.1846265 L42.7682626,10.1956364 L42.7615145,10.1956364 C42.8490321,10.2104805 42.9445646,10.2240974 43.0481121,10.2364815 L43.1543313,10.2484545 C43.1724798,10.2503815 43.1908509,10.2522741 43.2094446,10.2541325 L43.3236788,10.2648705 C43.3431631,10.2665914 43.36287,10.268278 43.3827996,10.2699302 L43.5050488,10.2794304 L43.5050488,10.2794304 L43.6326412,10.2881039 L43.6326412,10.2881039 L43.8566481,10.2946224 C43.9702879,10.2975688 44.0863819,10.3000431 44.204928,10.3020327 L44.4452889,10.3053617 C44.5671034,10.3066993 44.6913686,10.3075438 44.8180824,10.3078824 L45.0122065,10.3079665 L45.0122065,10.3079665 L45.1421457,10.3072825 L45.1421457,10.3072825 L45.2677516,10.3059142 L45.2677516,10.3059142 L45.3890236,10.3038611 L45.3890236,10.3038611 L45.5059611,10.301123 L45.5059611,10.301123 L45.6185635,10.2976993 L45.6185635,10.2976993 L45.7268301,10.2935898 L45.7268301,10.2935898 L45.8307603,10.2887941 C45.8477206,10.2879376 45.8645002,10.2870525 45.881099,10.2861387 L45.9785234,10.2803129 L45.9785234,10.2803129 L46.0716098,10.2737999 L46.0716098,10.2737999 L46.1603576,10.2665992 L46.1603576,10.2665992 L46.2447661,10.2587107 L46.2447661,10.2587107 L46.3248348,10.2501338 L46.3248348,10.2501338 L46.4005629,10.2408681 C46.4128225,10.2392664 46.4249012,10.237636 46.436799,10.2359769 L46.5060152,10.2256775 C46.5171894,10.2239034 46.5281826,10.2221007 46.538995,10.2202692 L46.6016977,10.2089351 L46.6016977,10.2089351 C46.7600183,10.1780779 46.8987176,10.1319481 47.0173802,10.0702338 C47.1184977,10.0218182 47.206742,9.96020779 47.2812824,9.88550649 C47.2856427,9.88550649 47.2878229,9.88322078 47.2878229,9.87885714 C47.3275328,9.83518961 47.3617768,9.77031481 47.3907819,9.68400551 L47.4002565,9.65444156 C47.4353466,9.55293506 47.4616122,9.42098701 47.4792611,9.25818182 C47.4880855,9.20519481 47.5120672,9.15688312 47.5517252,9.11272727 C47.587069,9.08141991 47.6309438,9.06415007 47.6834953,9.06069884 L47.7036092,9.06005195 L48.8384305,9.06005195 C48.8956336,9.06005195 48.9459847,9.08197403 48.9901069,9.12612987 C49.0341252,9.16561039 49.0561344,9.2185974 49.0561344,9.28457143 C49.0478922,9.70981366 48.9690758,10.074599 48.8196852,10.3790183 L48.7988763,10.4201558 C48.6403481,10.7416104 48.4029191,10.9968831 48.0860702,11.1860779 C47.786974,11.3577143 47.3781435,11.4898701 46.8591634,11.5823377 C46.3618809,11.6617143 45.7637924,11.7012987 45.0643786,11.7012987 L44.8133699,11.7005538 L44.8133699,11.7005538 L44.6508117,11.6992299 L44.6508117,11.6992299 L44.4141458,11.6960042 L44.4141458,11.6960042 L44.2611497,11.6930276 L44.2611497,11.6930276 L44.1119786,11.6893906 L44.1119786,11.6893906 L43.9666326,11.6850937 L43.9666326,11.6850937 L43.8251117,11.6801371 L43.8251117,11.6801371 L43.6874161,11.6745214 L43.6874161,11.6745214 L43.5535458,11.6682468 L43.5535458,11.6682468 L43.4235009,11.6613137 L43.4235009,11.6613137 L43.2972814,11.6537226 L43.2972814,11.6537226 L43.1748875,11.6454738 L43.1748875,11.6454738 L43.0563192,11.6365678 L43.0563192,11.6365678 L42.9415766,11.6270049 C42.9227717,11.6253563 42.9041261,11.6236804 42.88564,11.6219772 L42.7766361,11.6114297 L42.7766361,11.6114297 L42.6714581,11.6002263 L42.6714581,11.6002263 L42.5701061,11.5883673 L42.5701061,11.5883673 L42.4725801,11.5758532 C42.4566446,11.573713 42.4408685,11.5715455 42.4252519,11.5693506 C41.8005863,11.4765714 41.3209527,11.3138701 40.9867664,11.0805195 C40.6044092,10.8076883 40.3161099,10.4070649 40.1223878,9.87885714 C39.9467298,9.36374026 39.8584855,8.73423377 39.8584855,7.99023377 C39.8584855,7.46212987 39.8959634,7.00425974 39.9707115,6.61714286 C40.0499237,6.20748052 40.1686901,5.86628571 40.3271145,5.59355844 C40.4808672,5.32488312 40.6680489,5.10264935 40.887829,4.92644156 C41.0992,4.74607792 41.354174,4.60737662 41.6532702,4.51054545 C41.9390779,4.41797403 42.3063817,4.352 42.7551817,4.31241558 L42.8119787,4.30679516 L42.8119787,4.30679516 L42.9290946,4.29630691 L42.9290946,4.29630691 L43.0509065,4.28682142 C43.0715998,4.28532403 43.0924887,4.28386838 43.1135733,4.28245447 L43.242429,4.2744716 C43.2642963,4.27322454 43.2863592,4.27201918 43.3086178,4.27085549 L43.4445173,4.26437341 L43.4445173,4.26437341 L43.5851128,4.25889082 L43.5851128,4.25889082 L43.7304041,4.2544069 C43.7550106,4.25374276 43.7798128,4.25312019 43.8048107,4.25253918 L43.9571458,4.24955174 L43.9571458,4.24955174 L44.1141769,4.24756092 C44.14074,4.24731212 44.1674989,4.24710481 44.1944534,4.24693898 L44.3585282,4.24644156 L44.3585282,4.24644156 Z M63.3200882,4.22664013 L63.4068336,4.22649351 C63.9654718,4.22649351 64.4693985,4.24207792 64.9177832,4.27293506 L64.9845121,4.27654321 L64.9845121,4.27654321 L65.1140151,4.2846398 C65.4523255,4.30779523 65.7343897,4.34346411 65.9602076,4.39158442 C66.4955729,4.50644335 66.9218667,4.71757555 67.2399298,5.02526157 L67.2735939,5.0585974 L67.2666382,5.0585974 C67.5395725,5.33142857 67.7176183,5.65277922 67.8012947,6.02275325 C67.8406412,6.2294026 67.8673221,6.46493506 67.8801954,6.72914286 L67.8880016,6.84243628 L67.8880016,6.84243628 L67.894759,6.96109416 C67.8957979,6.98131737 67.8967933,7.001764 67.8977452,7.022434 L67.9029341,7.14913398 C67.903712,7.17069724 67.9044464,7.19248377 67.9051374,7.21449351 L67.9087633,7.34923011 L67.9087633,7.34923011 L67.9113502,7.48932143 L67.9113502,7.48932143 L67.9129005,7.63476502 L67.9129005,7.63476502 L67.9134168,7.78555844 L67.9134168,11.3908571 C67.9134168,11.4525714 67.8912,11.5052468 67.8472855,11.5491948 C67.8083427,11.5884444 67.7621814,11.6101267 67.7092391,11.6144604 L67.6890687,11.6152727 L66.6067786,11.6152727 C66.5541435,11.6152727 66.5014046,11.5933506 66.4486656,11.5491948 C66.4133218,11.5101299 66.3937273,11.4622812 66.3898094,11.4057948 L66.3890748,11.3842078 L66.3957191,11.1334026 C66.1757313,11.3225974 65.9318656,11.4568312 65.6634992,11.5362078 L65.6171708,11.5481515 C65.6009666,11.5520879 65.5840008,11.5559796 65.5662734,11.5598264 L65.5108058,11.5712321 C65.5011803,11.5731107 65.4913644,11.5749779 65.4813579,11.576834 L65.4190332,11.5878354 L65.4190332,11.5878354 L65.3521357,11.5985668 L65.3521357,11.5985668 L65.2806642,11.6090279 C65.2683711,11.6107488 65.2558874,11.6124585 65.243213,11.6141569 L65.1648787,11.6242116 L65.1648787,11.6242116 L65.0819678,11.6339951 L65.0819678,11.6339951 L64.9944793,11.643507 L64.9944793,11.643507 L64.854661,11.6572646 C64.8385531,11.6587592 64.8222545,11.6602424 64.8057649,11.6617143 L64.6579176,11.6709322 C64.6328308,11.6723683 64.6075212,11.6737542 64.5819887,11.6750896 L64.4261173,11.6824968 C64.3732679,11.6847635 64.3195259,11.6868276 64.2648904,11.6886877 L64.0983032,11.6936549 L64.0983032,11.6936549 L63.9263508,11.6973912 L63.9263508,11.6973912 L63.7490282,11.6998893 L63.7490282,11.6998893 L63.5663308,11.7011418 C63.535433,11.7012987 63.5043111,11.7012987 63.4729649,11.7012987 L63.272021,11.7008974 L63.272021,11.7008974 L63.0651713,11.6996909 L63.0651713,11.6996909 L62.8524086,11.6976757 L62.8524086,11.6976757 L62.5221618,11.6931285 L62.5221618,11.6931285 L62.2945848,11.6890755 L62.2945848,11.6890755 L61.9420824,11.6814545 L61.9420824,11.6814545 L61.7713275,11.6739803 L61.7713275,11.6739803 L61.6115742,11.6660109 L61.6115742,11.6660109 L61.4628319,11.6575493 L61.4628319,11.6575493 L61.3697924,11.6516364 L61.3697924,11.6516364 L61.2816537,11.6455071 L61.2816537,11.6455071 L61.1586408,11.6359095 L61.1586408,11.6359095 L61.0827665,11.6292434 L61.0827665,11.6292434 L61.0118029,11.6223641 L61.0118029,11.6223641 L60.9457527,11.6152727 L60.9457527,11.6152727 C60.6950351,11.5845195 60.4776427,11.5362078 60.2926412,11.4702338 C60.0901985,11.3996883 59.9231573,11.3138701 59.7913099,11.2124675 C59.5097588,11.0144416 59.3162443,10.7769351 59.2106626,10.4994286 C59.1093374,10.2265974 59.0589863,9.86348052 59.0589863,9.40987013 C59.0589863,8.85101299 59.1360183,8.4107013 59.2899786,8.08924675 C59.3822718,7.91761039 59.4963664,7.77028571 59.6327817,7.64696104 C59.7538321,7.53800866 59.9007912,7.44765152 60.0733393,7.3755695 L60.1210321,7.35636364 L60.1210321,7.34971429 C60.2290405,7.30353247 60.346746,7.26745292 60.4746355,7.24147565 L60.5300702,7.23096104 C60.7853557,7.18254545 61.0909924,7.14732468 61.4472916,7.1252987 L61.5490736,7.11933219 L61.5490736,7.11933219 L61.6557459,7.1139599 L61.6557459,7.1139599 L61.7673119,7.10918239 L61.7673119,7.10918239 L61.8837747,7.10500018 L61.8837747,7.10500018 L62.0051375,7.10141382 L62.0051375,7.10141382 L62.1314037,7.09842384 L62.1314037,7.09842384 L62.3300037,7.09505827 L62.3300037,7.09505827 L62.4685423,7.09356161 L62.4685423,7.09356161 L62.6119954,7.09266322 L62.6119954,7.09266322 L62.8447396,7.09241649 L62.8447396,7.09241649 L63.170422,7.09368436 L63.170422,7.09368436 L63.3261771,7.09495161 L63.3261771,7.09495161 L63.5509521,7.09764322 L63.5509521,7.09764322 L63.7650979,7.10128276 L63.7650979,7.10128276 L63.9686145,7.10586916 L63.9686145,7.10586916 L64.1615019,7.11140133 L64.1615019,7.11140133 L64.2841885,7.11561435 L64.2841885,7.11561435 L64.4021509,7.12024691 L64.4021509,7.12024691 L64.5153893,7.1252987 L64.5153893,7.1252987 L64.6781094,7.13499178 L64.6781094,7.13499178 L64.8305738,7.14506977 L64.8305738,7.14506977 L64.9727793,7.15553161 L64.9727793,7.15553161 L65.1464227,7.17007595 L65.1464227,7.17007595 L65.2646782,7.18142922 L65.2646782,7.18142922 L65.33781,7.18920939 L65.33781,7.18920939 L65.4063766,7.19715823 L65.4063766,7.19715823 L65.470377,7.20527544 L65.470377,7.20527544 L65.5298101,7.21356069 C65.539335,7.21495555 65.5486696,7.2163574 65.5578137,7.21776623 C65.7952427,7.26628571 66.0107664,7.34763636 66.2043847,7.46212987 C66.2506351,7.4918961 66.2968271,7.52411688 66.3429607,7.55866071 L66.3890748,7.59397403 L66.3890748,7.31677922 C66.3890748,7.03054545 66.3650931,6.78649351 66.3166107,6.5838961 C66.2675424,6.40802226 66.2054049,6.27022157 66.1297825,6.17041085 L66.1120916,6.14805195 C66.0417038,6.05568831 65.9428702,5.97433766 65.8150718,5.90379221 C65.7103898,5.84322078 65.5758735,5.79207792 65.4118428,5.7499635 L65.3663756,5.7387013 L65.3600427,5.7387013 C65.3369435,5.7342987 65.312918,5.73 65.2879655,5.72580479 L65.210326,5.71352922 C65.1969222,5.7115349 65.1832865,5.70956636 65.1694188,5.70762353 L65.0834267,5.69627481 L65.0834267,5.69627481 L64.99186,5.68554094 C64.9604082,5.68206519 64.9280265,5.67869151 64.8947141,5.67541949 L64.7919839,5.66590803 C64.739222,5.66130438 64.6843641,5.65692857 64.6274076,5.65277922 C64.5878405,5.65003896 64.5473081,5.64746916 64.5058112,5.64507001 L64.3784274,5.63838474 C64.335002,5.63632711 64.2906126,5.63444034 64.2452598,5.63272463 L64.1063122,5.62809091 C64.0590334,5.62671753 64.0107918,5.62551542 63.9615882,5.62448478 L63.8110913,5.62190747 L63.8110913,5.62190747 L63.6548253,5.62036019 L63.6548253,5.62036019 L63.4176431,5.61993136 L63.4176431,5.61993136 L63.2709371,5.62062897 L63.2709371,5.62062897 L63.1290248,5.62202421 L63.1290248,5.62202421 L62.9251424,5.62542509 L62.9251424,5.62542509 L62.7952104,5.62856436 L62.7952104,5.62856436 L62.6700691,5.63240125 L62.6700691,5.63240125 L62.5497177,5.63693575 L62.5497177,5.63693575 L62.4341554,5.64216787 L62.4341554,5.64216787 L62.3233813,5.64809761 L62.3233813,5.64809761 L62.2173946,5.65472497 L62.2173946,5.65472497 L62.1161946,5.66204993 L62.1161946,5.66204993 L62.0673893,5.66597403 L61.5991756,5.73194805 L61.5373208,5.74594825 L61.5373208,5.74594825 L61.4562368,5.76570081 L61.4562368,5.76570081 L61.4099829,5.7780539 C61.4027942,5.78005918 61.3958657,5.78203784 61.3891974,5.78399012 L61.3523109,5.79538899 L61.3523109,5.79538899 L61.321672,5.80616591 L61.321672,5.80616591 L61.3086962,5.81132468 C61.1856733,5.85974026 61.0931725,5.93672727 61.031713,6.04238961 C60.9700873,6.14925022 60.9372203,6.29258436 60.9331119,6.47230756 L60.9326718,6.51137662 L60.9326718,6.60363636 C60.9326718,6.66971429 60.9129466,6.72467532 60.8732885,6.76872727 C60.8343457,6.80400577 60.7882664,6.82360494 60.7351236,6.82752477 L60.7148641,6.82825974 L59.5867908,6.82825974 C59.5295878,6.82825974 59.4812092,6.80841558 59.4415511,6.76872727 C59.4023315,6.73741991 59.3788612,6.69749303 59.3710674,6.6487277 L59.3688794,6.63002597 L59.3491542,6.30649351 C59.3491542,5.91033766 59.4261863,5.57361039 59.5801466,5.29641558 C59.7384672,5.01464935 59.973716,4.79667532 60.2859969,4.64249351 C60.5851969,4.50171429 60.9942351,4.39615584 61.5132153,4.32561039 C61.649391,4.30782018 61.7946571,4.29242481 61.9490136,4.27942427 L62.0835454,4.26886744 L62.0835454,4.26886744 L62.2225297,4.25948359 C62.2695999,4.25655114 62.3174121,4.25381419 62.3659664,4.25127273 L62.5138556,4.24423484 L62.5138556,4.24423484 L62.6661972,4.23836994 C62.6919585,4.2374902 62.7179053,4.23665934 62.7440377,4.23587735 L62.903058,4.23177192 L62.903058,4.23177192 L63.0665307,4.22883947 C63.1493802,4.22766649 63.2338994,4.22693337 63.3200882,4.22664013 Z M54.9350718,4.24644156 L55.069189,4.24694152 C55.0911762,4.24710816 55.1129804,4.24731643 55.1346018,4.24756634 L55.262135,4.24956518 L55.262135,4.24956518 L55.3852775,4.25256234 C55.4054353,4.25314502 55.4254101,4.25376927 55.4452018,4.25443506 L55.5617561,4.25892833 C55.5808157,4.25976027 55.5996922,4.26063373 55.6183857,4.26154869 L55.7283492,4.2675364 C55.9079594,4.2783456 56.0692563,4.29330217 56.2122169,4.31239073 L56.2957927,4.32433959 C56.3636053,4.33470996 56.4268326,4.34611255 56.4854718,4.35854545 C56.8637802,4.44664935 57.1782412,4.59854545 57.4289588,4.81423377 C57.6928611,5.04322078 57.8886595,5.3358961 58.0162504,5.69257143 C58.1295192,6.00774498 58.1930319,6.39495911 58.2060662,6.85448489 L58.2075847,6.92062338 L58.2075847,7.62722078 C58.2075847,7.68436364 58.1834992,7.73714286 58.134913,7.78555844 C58.0958779,7.82480808 58.0498704,7.8464903 57.9968176,7.85082401 L57.9765924,7.85163636 L56.8749924,7.85163636 C56.8133252,7.85163636 56.7603786,7.82971429 56.7164641,7.78555844 C56.6772444,7.74252237 56.6555788,7.69603848 56.6512484,7.64610678 L56.6504366,7.62722078 L56.6504366,7.1385974 C56.6504366,6.81410101 56.628953,6.5566997 56.5858107,6.36595584 L56.5779725,6.33298701 L56.5779725,6.32623377 C56.5384183,6.17236364 56.4700031,6.04903896 56.3734534,5.95677922 C56.2678718,5.85537662 56.0919023,5.77828571 55.8454412,5.72550649 C55.5595298,5.6638961 55.2144427,5.63303896 54.8096611,5.63303896 L54.7182244,5.63322126 L54.7182244,5.63322126 L54.5408015,5.63468831 C54.4539069,5.63579221 54.3697374,5.63745455 54.2882931,5.63968831 C53.8926473,5.65714286 53.5474565,5.69693506 53.252513,5.75854545 C53.0635664,5.79812987 52.8986015,5.84654545 52.7576183,5.90379221 C52.6303389,5.96103896 52.5290137,6.02275325 52.4543695,6.08883117 C52.3836702,6.15033766 52.3201344,6.23823377 52.2628275,6.35283117 C52.1705344,6.53766234 52.1001466,6.78649351 52.0517679,7.09890909 C52.006413,7.40426623 51.9822269,7.75610268 51.9793808,8.15441843 L51.9790962,8.2347013 L51.9790962,11.3908571 C51.9790962,11.4525714 51.957087,11.5052468 51.9130687,11.5491948 C51.87025,11.5884444 51.8219355,11.6101267 51.7685626,11.6144604 L51.7483115,11.6152727 L50.6728733,11.6152727 C50.6154626,11.6152727 50.5650076,11.5933506 50.5208855,11.5491948 C50.4818504,11.5101299 50.4602052,11.4641693 50.4558771,11.4110942 L50.4550656,11.3908571 L50.4550656,4.55667532 C50.4550656,4.49516883 50.476971,4.44228571 50.5208855,4.39833766 C50.5601052,4.35918038 50.6043286,4.33734424 50.6539932,4.33297518 L50.6728733,4.33215584 L51.7483115,4.33215584 C51.809771,4.33215584 51.8648977,4.35428571 51.9130687,4.39833766 C51.9521961,4.4374026 51.9739335,4.48352734 51.978281,4.53649297 L51.9790962,4.55667532 L51.9790962,4.91324675 C52.1245435,4.77246753 52.2958412,4.65142857 52.493716,4.55012987 C52.7268885,4.42690909 53.0260885,4.34545455 53.3911084,4.30597403 L53.4329246,4.30137413 L53.4329246,4.30137413 L53.5206738,4.29273581 C53.550838,4.28998088 53.5819166,4.2873503 53.6139088,4.28484355 L53.7126255,4.27769432 L53.7126255,4.27769432 L53.8168199,4.27128508 C53.8346419,4.27027837 53.852692,4.26930236 53.87097,4.268357 L53.9833733,4.26305201 L53.9833733,4.26305201 L54.1012441,4.2584794 L54.1012441,4.2584794 L54.2245784,4.25463611 C54.2455892,4.25405617 54.2668275,4.25350649 54.2882931,4.25298701 L54.4893593,4.24935065 L54.4893593,4.24935065 L54.6314625,4.24773449 L54.6314625,4.24773449 L54.8567398,4.24652237 C54.8825802,4.24644156 54.9086908,4.24644156 54.9350718,4.24644156 Z M63.5473985,8.49898387 L63.1680882,8.49959088 L63.1680882,8.49959088 L62.8258673,8.50221114 L62.8258673,8.50221114 L62.518131,8.50680103 L62.518131,8.50680103 L62.3321356,8.51095713 L62.3321356,8.51095713 L62.1212026,8.51738748 L62.1212026,8.51738748 L61.9697081,8.52352135 L61.9697081,8.52352135 L61.8661523,8.52869977 L61.8661523,8.52869977 L61.7415,8.53637596 L61.7415,8.53637596 L61.6580786,8.54271245 L61.6580786,8.54271245 L61.6321893,8.54493506 C61.4604763,8.55823377 61.3195969,8.58025974 61.209655,8.61090909 C61.1043847,8.63293506 61.0249649,8.65932468 60.9724336,8.69038961 C60.8712122,8.74732468 60.7917924,8.83345455 60.7345893,8.94763636 C60.6775939,9.08425974 60.6490443,9.24488312 60.6490443,9.42971429 C60.6490443,9.60571429 60.6818504,9.75771429 60.7479817,9.88550649 C60.8007845,9.98294505 60.8834866,10.0635635 60.9961695,10.1273619 L61.0249649,10.142961 L61.1239023,10.1692468 C61.2121466,10.1956364 61.3284214,10.2155844 61.4735573,10.2285714 L61.5340063,10.235492 L61.5340063,10.235492 L61.5980541,10.2420963 L61.5980541,10.2420963 L61.6657004,10.2483845 L61.6657004,10.2483845 L61.736945,10.2543567 L61.736945,10.2543567 L61.8505584,10.2627229 L61.8505584,10.2627229 L61.9722668,10.2703791 L61.9722668,10.2703791 L62.1020694,10.2773258 L62.1020694,10.2773258 L62.193101,10.2815631 L62.193101,10.2815631 L62.3363924,10.2873287 L62.3363924,10.2873287 L62.4877761,10.2923863 L62.4877761,10.2923863 L62.6472514,10.2967365 L62.6472514,10.2967365 L62.8148175,10.3003798 L62.8148175,10.3003798 L63.0508234,10.304139 L63.0508234,10.304139 L63.30121,10.3066438 L63.30121,10.3066438 L63.5659754,10.3078955 L63.5659754,10.3078955 L63.7762808,10.3079713 L63.9177734,10.3073265 L63.9177734,10.3073265 L64.121085,10.305151 L64.121085,10.305151 L64.2506719,10.3028956 L64.2506719,10.3028956 L64.3754932,10.2999967 L64.3754932,10.2999967 L64.4955473,10.2964545 L64.4955473,10.2964545 L64.6108323,10.2922695 L64.6108323,10.2922695 L64.7213465,10.287442 C64.7393678,10.2865839 64.7571903,10.2856991 64.7748139,10.2847875 L64.8781683,10.2789969 L64.8781683,10.2789969 L64.9767473,10.2725647 C64.9927791,10.2714393 65.0086118,10.2702871 65.0242455,10.2691082 L65.115658,10.2617143 L65.115658,10.2617143 L65.2104573,10.251699 C65.2258569,10.2499567 65.2410563,10.248178 65.2560556,10.2463627 L65.3436494,10.2350328 C65.5708275,10.2036506 65.7467609,10.1629138 65.8714095,10.1127825 L65.8941802,10.1032727 C66.0394198,10.0459221 66.1428214,9.96446753 66.2043847,9.85890909 C66.2789252,9.74005195 66.3166107,9.58825974 66.3166107,9.40332468 C66.3166107,9.22296104 66.2789252,9.07968831 66.2043847,8.97412987 C66.1251725,8.86420779 66.0043298,8.77828571 65.841545,8.71667532 C65.7291882,8.67379785 65.5784815,8.63746446 65.3894016,8.60765172 L65.306018,8.59527399 C65.2917291,8.59327755 65.2772444,8.59131436 65.262564,8.58938441 L65.1721314,8.57820358 C65.1102764,8.57101554 65.0452883,8.56435912 64.9771664,8.55823377 C64.951405,8.55539147 64.9249365,8.55265253 64.8977609,8.5500167 L64.8141132,8.54241823 L64.8141132,8.54241823 L64.7262237,8.53543679 L64.7262237,8.53543679 L64.6340928,8.52907077 L64.6340928,8.52907077 L64.537721,8.52331858 L64.537721,8.52331858 L64.4371087,8.51817864 L64.4371087,8.51817864 L64.3322565,8.51364935 L64.3322565,8.51364935 L64.1670291,8.50799692 L64.1670291,8.50799692 L64.0515789,8.50498731 L64.0515789,8.50498731 L63.8704567,8.50160694 L63.8704567,8.50160694 L63.7444113,8.50010708 L63.7444113,8.50010708 L63.6141286,8.49920832 C63.5920618,8.49910853 63.5698184,8.49903373 63.5473985,8.49898387 L63.5473985,8.49898387 Z M44.6046744,5.63449083 L44.3968447,5.63312969 L44.3968447,5.63312969 L44.1912171,5.63347813 L44.1912171,5.63347813 L44.0613005,5.63479574 L44.0613005,5.63479574 L43.9356608,5.636992 C43.9150773,5.63743127 43.8946719,5.63790716 43.8744448,5.63841967 L43.7552201,5.64193423 L43.7552201,5.64193423 L43.6402718,5.64632789 L43.6402718,5.64632789 L43.5295998,5.65160084 L43.5295998,5.65160084 L43.4232038,5.65775325 L43.4232038,5.65775325 L43.3210837,5.66478531 L43.3210837,5.66478531 L43.2232393,5.67269722 C43.2072882,5.6740892 43.1915152,5.67551785 43.1759204,5.67698316 L43.0844891,5.68621517 C43.0696069,5.68782719 43.0549027,5.68947589 43.0403767,5.69116128 L42.9553582,5.7017138 C42.9415447,5.70354594 42.9279094,5.70541476 42.9144521,5.70732027 L42.835846,5.71919374 C42.8103564,5.72329835 42.7855792,5.72754978 42.7615145,5.73194805 C42.453277,5.78204785 42.2100765,5.87168457 42.0320896,6.00085822 L42.003029,6.02275325 L41.9962809,6.02919481 C41.855713,6.13932468 41.7455634,6.2932987 41.6663511,6.49132468 C41.602551,6.64348524 41.5547095,6.81556638 41.5236066,7.00764616 L41.5147786,7.06587013 L47.4265221,7.06587013 C47.4088733,6.85901299 47.3693191,6.67407792 47.3075481,6.51137662 C47.2329038,6.32197403 47.125142,6.17236364 46.9843664,6.06223377 C46.7907481,5.90815584 46.5003725,5.79812987 46.1134473,5.73194805 L46.0765068,5.72604143 L46.0765068,5.72604143 L45.9993945,5.71477421 L45.9993945,5.71477421 L45.9179732,5.70423491 L45.9179732,5.70423491 L45.8322427,5.69442339 L45.8322427,5.69442339 L45.7422025,5.68533953 L45.7422025,5.68533953 L45.6478521,5.67698316 L45.6478521,5.67698316 L45.5491912,5.66935417 L45.5491912,5.66935417 L45.4462193,5.66245241 L45.4462193,5.66245241 L45.338936,5.65627774 L45.338936,5.65627774 L45.227341,5.65083001 L45.227341,5.65083001 L45.1114338,5.64610911 L45.1114338,5.64610911 L44.9912139,5.64211487 L44.9912139,5.64211487 L44.866681,5.63884717 L44.866681,5.63884717 L44.7378346,5.63630587 L44.7378346,5.63630587 L44.6046744,5.63449083 L44.6046744,5.63449083 Z" id="sera" fill="#E46D2A"></path>
                            <path d="M4.52319192,4.24652704 L4.69252402,4.24652704 L4.69252402,4.24652704 L4.8503711,4.24721095 L4.8503711,4.24721095 L5.00383613,4.24857901 L5.00383613,4.24857901 L5.15291899,4.25063148 L5.15291899,4.25063148 L5.29761954,4.25336861 L5.29761954,4.25336861 L5.43793766,4.25679066 L5.43793766,4.25679066 L5.57387323,4.26089788 L5.57387323,4.26089788 L5.70542611,4.26569052 C5.72698636,4.26654642 5.74836399,4.2674309 5.76955901,4.26834395 L5.89453763,4.2741652 L5.89453763,4.2741652 L6.01513325,4.2806725 L6.01513325,4.2806725 L6.13134574,4.28786612 L6.13134574,4.28786612 L6.24317498,4.2957463 C6.26144791,4.29711689 6.2795382,4.2985161 6.29744584,4.29994393 L6.40269996,4.30885443 L6.40269996,4.30885443 L6.50357051,4.31845213 C6.52001697,4.32010903 6.53628077,4.32179457 6.55236191,4.32350876 L6.64665687,4.33413774 C6.67735788,4.33779535 6.70732824,4.34156761 6.73656794,4.34545455 C7.23353893,4.416 7.64704122,4.54794805 7.97697099,4.74161039 C8.22768855,4.88675325 8.4431084,5.06524675 8.6236458,5.27646753 C8.80397557,5.48342857 8.94246718,5.71896104 9.03922443,5.98296104 C9.2195542,6.46285714 9.30977099,7.12748052 9.30977099,7.97703896 C9.30977099,8.48167874 9.27222095,8.92318998 9.19720913,9.30130767 L9.18436031,9.36374026 C9.10078779,9.78202597 8.97330076,10.1209351 8.8016916,10.3805714 C8.63444275,10.6447792 8.42992366,10.8692987 8.18813435,11.0541299 C7.95060153,11.2345974 7.68441527,11.3688312 7.38967939,11.4568312 C7.12831628,11.5369827 6.76407524,11.5970009 6.29668215,11.6366115 L6.17202497,11.6467395 L6.17202497,11.6467395 L6.04236506,11.6562153 L6.04236506,11.6562153 L5.90811287,11.6647867 L5.90811287,11.6647867 L5.76926841,11.6724541 C5.74574497,11.6736567 5.72203019,11.6748216 5.69812407,11.6759489 L5.5523912,11.6822611 L5.5523912,11.6822611 L5.40206605,11.6876703 L5.40206605,11.6876703 L5.24714863,11.6921769 L5.24714863,11.6921769 L5.08763893,11.6957814 L5.08763893,11.6957814 L4.92353696,11.6984842 L4.92353696,11.6984842 L4.75484272,11.7002856 L4.75484272,11.7002856 L4.49319084,11.7012987 L4.49319084,11.7012987 L4.40694288,11.701137 L4.40694288,11.701137 L4.23854849,11.699845 C4.15571898,11.6988766 4.0749415,11.6974252 3.99621835,11.695493 L3.8415118,11.6909884 C3.79085643,11.6892736 3.74111477,11.6873458 3.69228749,11.6852057 L3.54854947,11.6781491 L3.54854947,11.6781491 L3.4103018,11.6698227 C3.34255123,11.6653427 3.27686107,11.6603881 3.21323359,11.654961 C2.85483616,11.625728 2.56948894,11.5807361 2.35719194,11.519897 L2.3224855,11.5096104 C2.03277557,11.4267869 1.77791935,11.2972108 1.5583496,11.1207956 L1.51759389,11.0871688 L1.51759389,13.8537143 C1.51759389,13.9153247 1.49548092,13.9681039 1.45156641,14.0122597 C1.41243902,14.051417 1.36814385,14.0731711 1.318608,14.0775219 L1.29978626,14.0783377 L0.224348092,14.0783377 C0.162680916,14.0783377 0.107865649,14.0563117 0.0593832061,14.0122597 C0.0242239186,13.9770736 0.00464996702,13.9313798 0.00073426528,13.8752514 L0,13.8537143 L0,4.55667532 C0,4.4907013 0.0198290076,4.43802597 0.0593832061,4.39833766 C0.102478711,4.35918038 0.150577929,4.33734424 0.204045429,4.33297518 L0.224348092,4.33215584 L1.29978626,4.33215584 C1.35698931,4.33215584 1.40754809,4.35428571 1.45156641,4.39833766 C1.49060153,4.4374026 1.51241074,4.48352734 1.51677532,4.53649297 L1.51759389,4.55667532 L1.51759389,4.88675325 C1.5615084,4.84290909 1.6054229,4.80322078 1.64944122,4.76820779 C1.83859542,4.62722078 2.0542229,4.51937662 2.29611603,4.44446753 C2.4016458,4.41142857 2.53139084,4.38225974 2.68533817,4.35694805 L2.77170959,4.34352413 C2.81609533,4.33700335 2.86228107,4.33076929 2.91026654,4.32482168 L3.00863705,4.31330834 C3.02543205,4.31145308 3.042427,4.30962963 3.05962189,4.30783798 L3.16519045,4.29746958 C3.18318506,4.29580509 3.2013796,4.29417237 3.21977405,4.29257143 C3.26328482,4.2891544 3.30768893,4.28592721 3.3529868,4.28288985 L3.49156214,4.27434728 C3.51510505,4.27301844 3.53887152,4.27173705 3.56286158,4.27050313 L3.70948561,4.26366907 L3.70948561,4.26366907 L3.86147863,4.25797403 C3.88725835,4.25711977 3.9132619,4.25631297 3.93948931,4.25555363 L4.09954063,4.2515671 L4.09954063,4.2515671 L4.26496735,4.24871958 L4.26496735,4.24871958 L4.43577204,4.24701106 C4.46468779,4.24682123 4.49382773,4.24667885 4.52319192,4.24652704 Z M21.4238412,4.33215584 C21.5073099,4.33215584 21.5711573,4.36955844 21.6151756,4.44446753 L24.7953954,10.1692468 L27.7314382,4.45111688 C27.7753527,4.37194805 27.8413802,4.33215584 27.9294168,4.33215584 L29.1961893,4.33215584 C29.2797618,4.33215584 29.3436092,4.36737662 29.3875237,4.43802597 C29.4314382,4.51709091 29.4337221,4.58971429 29.3940641,4.65579221 L26.0688122,11.0144416 L26.0688122,11.020987 L25.942681,11.2568343 L25.942681,11.2568343 L25.8226932,11.4777496 L25.8226932,11.4777496 L25.7367344,11.6336379 L25.7367344,11.6336379 L25.6542321,11.7811284 L25.6542321,11.7811284 L25.5751865,11.9202216 L25.5751865,11.9202216 L25.4995979,12.0509184 L25.4995979,12.0509184 L25.4274666,12.1732192 L25.4274666,12.1732192 L25.3813,12.2500889 L25.3813,12.2500889 L25.3366702,12.3232275 L25.3366702,12.3232275 L25.2935773,12.3926353 L25.2935773,12.3926353 L25.2520214,12.4583123 L25.2520214,12.4583123 L25.1925696,12.5498332 L25.1925696,12.5498332 L25.1548566,12.6061842 L25.1548566,12.6061842 L25.1186809,12.6588052 L25.1186809,12.6588052 C24.876684,12.9976104 24.6062412,13.2726234 24.3070412,13.4840519 C24.0255939,13.6778182 23.7176733,13.8120519 23.3833832,13.8866494 C23.3164659,13.9008312 23.2432846,13.9135913 23.1638403,13.9249308 L23.0823085,13.9357968 L23.0823085,13.9357968 L22.9966015,13.9457158 C22.9380719,13.952013 22.8767591,13.957679 22.8126634,13.9627143 L22.7144326,13.9697941 L22.7144326,13.9697941 L22.6120276,13.9759279 L22.6120276,13.9759279 L22.5054488,13.9811161 L22.5054488,13.9811161 L22.3946962,13.9853586 C22.3758896,13.985987 22.3569092,13.9865759 22.3377548,13.9871254 L22.2207421,13.9899502 L22.2207421,13.9899502 L22.0995563,13.99183 C22.0790109,13.9920645 22.0582916,13.9922597 22.0373985,13.9924156 L21.9087212,13.9919828 L21.9087212,13.9919828 L21.7865752,13.9906846 L21.7865752,13.9906846 L21.6709643,13.9885208 L21.6709643,13.9885208 L21.5618923,13.9854915 L21.5618923,13.9854915 L21.4593628,13.9815967 C21.44282,13.9808754 21.4265499,13.9801181 21.4105527,13.9793247 C21.3534534,13.9747532 21.3050748,13.9528312 21.2655206,13.9132468 C21.2215023,13.8691948 21.1994931,13.8164156 21.1994931,13.7547013 L21.1994931,12.7642597 C21.1994931,12.6981818 21.2236824,12.6431169 21.2720611,12.5991688 C21.3204397,12.5596883 21.3797191,12.5419221 21.4501069,12.5463896 C21.6306443,12.5639481 21.7889649,12.5726753 21.9252763,12.5726753 C22.2455165,12.5726753 22.5197248,12.5536693 22.7479856,12.5152348 L22.7961954,12.5067013 C23.0292641,12.4671169 23.2075176,12.4120519 23.3306443,12.3416104 L23.3306443,12.3350649 C23.4450504,12.2735584 23.5748214,12.1545974 23.7198534,11.9783896 C23.803426,11.8728312 23.8913588,11.7473247 23.9838595,11.6021818 C23.9134718,11.5933506 23.8539847,11.5559481 23.8056061,11.4898701 L19.9657344,4.66919481 C19.921716,4.59428571 19.921716,4.51709091 19.9657344,4.43802597 C20.009545,4.36737662 20.0734962,4.33215584 20.1569649,4.33215584 L21.4238412,4.33215584 Z M14.752195,4.22664013 L14.8389496,4.22649351 C15.3561787,4.22649351 15.8293655,4.23997876 16.25851,4.26694926 L16.3497954,4.27293506 C16.3947098,4.27569105 16.4387224,4.27859899 16.4818332,4.28165767 L16.6084607,4.29128476 L16.6084607,4.29128476 L16.7296784,4.30180906 C16.788935,4.3072943 16.8461632,4.31311327 16.9013635,4.31926188 L17.0090603,4.3319974 C17.149051,4.34956089 17.2746227,4.36944908 17.3857832,4.39158442 C17.9487817,4.51054545 18.3886534,4.73277922 18.7052947,5.0585974 C18.9736611,5.3358961 19.1474504,5.65714286 19.2265588,6.02275325 C19.2705771,6.2294026 19.2991267,6.46493506 19.3123115,6.72914286 C19.3150626,6.76601299 19.3176402,6.8037776 19.3200446,6.84243628 L19.3267387,6.96109416 C19.3287972,7.00154058 19.330683,7.04288068 19.3323964,7.08511404 L19.3370198,7.21449351 C19.3377044,7.23650325 19.3383459,7.2587362 19.3389446,7.28119232 L19.3420215,7.41860658 C19.3424485,7.44195515 19.3428328,7.46552679 19.3431742,7.48932143 L19.34471,7.63476502 L19.34471,7.63476502 L19.3452214,7.78555844 L19.3452214,11.3908571 C19.3452214,11.4525714 19.3212397,11.5052468 19.2727573,11.5491948 C19.2335376,11.5884444 19.1893142,11.6102088 19.1397954,11.6145607 L19.1209771,11.6153766 L18.0455389,11.6153766 C17.9838718,11.6153766 17.9290565,11.5933506 17.880574,11.5491948 C17.8415389,11.5023723 17.8198117,11.4536617 17.8154654,11.403209 L17.8146504,11.3842078 L17.8278351,11.1334026 C17.6122076,11.3227013 17.3682382,11.4568312 17.0955115,11.5362078 L17.0713661,11.5424728 L17.0713661,11.5424728 L17.0194925,11.5547834 L17.0194925,11.5547834 L16.9628405,11.5668011 C16.9431599,11.5707581 16.9226827,11.5746663 16.9014085,11.5785255 L16.8351947,11.5899563 C16.8237605,11.5918369 16.812127,11.5937053 16.8002942,11.5955614 L16.7269048,11.6065509 L16.7269048,11.6065509 L16.6487297,11.6172457 L16.6487297,11.6172457 L16.5657671,11.6276454 L16.5657671,11.6276454 L16.4780154,11.6377495 L16.4780154,11.6377495 L16.385473,11.6475577 L16.385473,11.6475577 L16.2881383,11.6570696 C16.2715164,11.6586302 16.2546947,11.6601784 16.2376733,11.6617143 C15.8461802,11.688 15.3997679,11.7012987 14.8983328,11.7012987 L14.6975611,11.7008974 L14.6975611,11.7008974 L14.4911416,11.6996909 L14.4911416,11.6996909 L14.2790705,11.6976757 L14.2790705,11.6976757 L13.9503594,11.6931285 L13.9503594,11.6931285 L13.7241436,11.6890755 L13.7241436,11.6890755 L13.3741985,11.6814545 L13.3741985,11.6814545 L13.20917,11.6743159 L13.20917,11.6743159 L13.0549207,11.6667253 L13.0549207,11.6667253 L12.9580769,11.6614159 L12.9580769,11.6614159 L12.8660248,11.6559088 L12.8660248,11.6559088 L12.736932,11.6472799 L12.736932,11.6472799 L12.6568611,11.6412837 L12.6568611,11.6412837 L12.5457419,11.6319271 L12.5457419,11.6319271 L12.4454088,11.6221393 L12.4454088,11.6221393 L12.384513,11.6153766 L12.3779725,11.6153766 C12.1316153,11.5845195 11.9138076,11.5362078 11.7247573,11.4701299 C11.5178504,11.3996883 11.348629,11.3115844 11.2166779,11.2061299 C10.939487,11.0122597 10.7481527,10.7768312 10.642571,10.4994286 C10.5370931,10.2265974 10.4842504,9.86348052 10.4842504,9.40987013 C10.4842504,8.85101299 10.5634626,8.4107013 10.7217832,8.08924675 C10.8098198,7.91761039 10.9220458,7.77028571 11.0583573,7.64696104 C11.1793125,7.5421039 11.3260892,7.45208802 11.4987675,7.37659331 L11.5465038,7.35636364 L11.5465038,7.34971429 C11.6559498,7.30279942 11.7776179,7.26622799 11.9114354,7.24021891 L11.9621863,7.23096104 C12.2002589,7.18577316 12.4824644,7.15207942 12.8087181,7.12987983 L12.9295723,7.12224051 L12.9295723,7.12224051 L13.033884,7.11656598 L13.033884,7.11656598 L13.1997854,7.10916179 L13.1997854,7.10916179 L13.3166731,7.10496643 L13.3166731,7.10496643 L13.4385885,7.10136558 L13.4385885,7.10136558 L13.5655298,7.09836083 L13.5655298,7.09836083 L13.6974955,7.09595382 L13.6974955,7.09595382 L13.9048612,7.09346759 L13.9048612,7.09346759 L14.0493808,7.09256197 L14.0493808,7.09256197 L14.2857386,7.09231762 L14.5389104,7.0931847 L14.5389104,7.0931847 L14.8594707,7.09595382 L14.8594707,7.09595382 L15.0124642,7.09802724 L15.0124642,7.09802724 L15.1606,7.10055844 L15.1606,7.10055844 L15.3736953,7.10521124 L15.3736953,7.10521124 L15.5096867,7.10888219 L15.5096867,7.10888219 L15.6408203,7.11300715 L15.6408203,7.11300715 L15.7670961,7.11758502 L15.7670961,7.11758502 L15.8885142,7.12261474 C15.9083457,7.12349062 15.9279748,7.12438528 15.9474015,7.1252987 L16.1067476,7.13461184 L16.1067476,7.13461184 L16.255896,7.1442809 L16.255896,7.1442809 L16.3496644,7.1509242 L16.3496644,7.1509242 L16.4818233,7.16118432 L16.4818233,7.16118432 L16.6037922,7.17179781 L16.6037922,7.17179781 L16.6794452,7.17906931 L16.6794452,7.17906931 L16.7844372,7.19026961 L16.7844372,7.19026961 L16.879247,7.20182071 L16.879247,7.20182071 L16.9367982,7.20971587 L16.9367982,7.20971587 L16.989826,7.21776623 L16.989826,7.21776623 C17.2274626,7.26618182 17.4428824,7.34763636 17.6365008,7.46212987 C17.6826733,7.4918961 17.7276779,7.52411688 17.7713831,7.55866071 L17.8146504,7.59397403 L17.8146504,7.31677922 C17.8146504,7.03054545 17.7904611,6.78649351 17.7420824,6.5838961 C17.7012083,6.41217069 17.6414464,6.27466631 17.5626304,6.1712998 L17.5441038,6.14805195 C17.4802093,6.06408501 17.3925485,5.98913384 17.2812773,5.92327651 L17.2471878,5.90379221 C17.1372458,5.83771429 16.987542,5.78285714 16.7985954,5.7387013 C16.7211066,5.72461299 16.6348639,5.71158857 16.5398474,5.69961475 L16.4419056,5.68799064 L16.4419056,5.68799064 L16.3381103,5.67706397 C16.320323,5.67530082 16.3022916,5.6735666 16.2840161,5.67186126 L16.171432,5.66197521 C16.1329268,5.65879504 16.0934441,5.65572987 16.0529832,5.65277922 C16.0162321,5.65020015 15.9785699,5.64777208 15.9399963,5.64549516 L15.8215403,5.63911806 L15.8215403,5.63911806 L15.6976122,5.63364893 L15.6976122,5.63364893 L15.5682089,5.62908879 L15.5682089,5.62908879 L15.4333275,5.62543866 L15.4333275,5.62543866 L15.2929649,5.62269955 L15.2929649,5.62269955 L15.147118,5.62087248 L15.147118,5.62087248 L14.9957838,5.61995846 L14.9957838,5.61995846 L14.8434895,5.61993136 L14.8434895,5.61993136 L14.6978678,5.62062897 L14.6978678,5.62062897 L14.5569337,5.62202421 L14.5569337,5.62202421 L14.3543239,5.62542509 L14.3543239,5.62542509 L14.2251127,5.62856436 L14.2251127,5.62856436 L14.1005921,5.63240125 L14.1005921,5.63240125 L13.9807628,5.63693575 L13.9807628,5.63693575 L13.8656258,5.64216787 L13.8656258,5.64216787 L13.7551818,5.64809761 L13.7551818,5.64809761 L13.6494316,5.65472497 L13.6494316,5.65472497 L13.5483761,5.66204993 L13.5483761,5.66204993 L13.4996092,5.66597403 L13.031084,5.73194805 C12.9980962,5.7385974 12.9673145,5.74522727 12.9387324,5.75184578 L12.8844992,5.76507005 C12.8246443,5.78048629 12.7767415,5.79587013 12.7407084,5.81132468 C12.6132214,5.8641039 12.5208244,5.94119481 12.4637252,6.04238961 C12.4020995,6.14925022 12.3692325,6.29258436 12.3651242,6.47230756 L12.364684,6.51137662 L12.364684,6.60363636 C12.364684,6.66971429 12.3426748,6.72467532 12.2987603,6.76872727 C12.263601,6.80400577 12.2179421,6.82360494 12.1619295,6.82752477 L12.1404397,6.82825974 L11.0186992,6.82825974 C10.9616,6.82825974 10.9109374,6.80841558 10.8669191,6.76872727 C10.8323092,6.73409091 10.8095425,6.69436364 10.7984103,6.64954545 L10.7943511,6.63002597 L10.7811664,6.30649351 C10.7811664,5.91033766 10.8580947,5.57361039 11.012055,5.29641558 C11.1661191,5.01464935 11.399084,4.79667532 11.7114687,4.64249351 C12.0106687,4.50171429 12.4197069,4.39615584 12.938687,4.32561039 C13.0760925,4.30782018 13.2224079,4.29242481 13.3776411,4.27942427 L13.5128824,4.26886744 L13.5128824,4.26886744 L13.6524927,4.25948359 C13.6997578,4.25655114 13.7477513,4.25381419 13.7964733,4.25127273 L13.9448252,4.24423484 L13.9448252,4.24423484 L14.0975496,4.23836994 C14.1233681,4.2374902 14.1493689,4.23665934 14.1755519,4.23587735 L14.3348372,4.23177192 L14.3348372,4.23177192 L14.4984978,4.22883947 C14.5814222,4.22766649 14.6659877,4.22693337 14.752195,4.22664013 L14.752195,4.22664013 Z M4.86267481,5.63303896 L4.71297214,5.63333083 L4.71297214,5.63333083 L4.49677495,5.6348625 L4.49677495,5.6348625 L4.29060595,5.63770555 L4.29060595,5.63770555 L4.09446514,5.64185859 L4.09446514,5.64185859 L3.96927581,5.64535435 L3.96927581,5.64535435 L3.84854346,5.64943128 L3.84854346,5.64943128 L3.73226808,5.65408898 L3.73226808,5.65408898 L3.62044967,5.65932701 L3.62044967,5.65932701 L3.51308823,5.66514496 L3.51308823,5.66514496 L3.41018377,5.67154243 L3.41018377,5.67154243 L3.31173628,5.67851898 L3.31173628,5.67851898 L3.21774576,5.68607421 C3.20245209,5.68738162 3.18734412,5.68871312 3.17242186,5.6900687 L3.0851168,5.69849116 L3.0851168,5.69849116 L3.00226871,5.70749126 C2.98883211,5.70903939 2.97558122,5.71061157 2.96251603,5.71220779 C2.57984733,5.76072727 2.29611603,5.84654545 2.11132214,5.96976623 C1.9046229,6.11501299 1.7506626,6.33080519 1.64944122,6.61714286 C1.54773043,6.90557699 1.49496223,7.31496369 1.49132281,7.84520978 L1.49112061,7.90462338 C1.49112061,8.56914286 1.54832366,9.05787013 1.66272977,9.37028571 C1.7154687,9.5201039 1.78585649,9.64779221 1.87378931,9.75335065 C1.95736183,9.85464935 2.06294351,9.94264935 2.19053435,10.0174545 C2.37086412,10.1143896 2.64141069,10.187013 3.00207023,10.2352208 L3.05047751,10.2411596 L3.05047751,10.2411596 L3.15065639,10.2522806 C3.21893756,10.2593583 3.29020923,10.2657631 3.36447141,10.2714947 L3.47810754,10.2795871 L3.47810754,10.2795871 L3.59622942,10.2866691 L3.59622942,10.2866691 L3.71883705,10.2927405 C3.73964547,10.2936682 3.7606408,10.2945537 3.78182303,10.2953971 L3.91115929,10.2999519 L3.91115929,10.2999519 L4.0449813,10.3034951 L4.0449813,10.3034951 L4.18328906,10.3060265 C4.23013927,10.3067015 4.27773711,10.3072079 4.32608257,10.3075455 L4.47336183,10.3080519 L4.47336183,10.3080519 L4.67673156,10.3074722 L4.67673156,10.3074722 L4.80703325,10.3064408 L4.80703325,10.3064408 L4.99456858,10.3039246 L4.99456858,10.3039246 L5.17260328,10.3002434 L5.17260328,10.3002434 L5.34113734,10.2953949 L5.34113734,10.2953949 L5.50017077,10.2893767 L5.50017077,10.2893767 L5.60091493,10.2847135 L5.60091493,10.2847135 L5.69743658,10.2795287 L5.69743658,10.2795287 L5.78973573,10.2738216 L5.78973573,10.2738216 L5.87781237,10.2675915 L5.87781237,10.2675915 L5.96166651,10.2608377 C5.97529032,10.2596684 5.9887382,10.2584772 6.00201014,10.2572642 L6.07953052,10.2497235 C6.09209871,10.248423 6.10449096,10.2471005 6.11670727,10.2457562 L6.18789389,10.2374271 L6.18789389,10.2374271 L6.25485802,10.2285714 C6.61551756,10.1847273 6.8927084,10.0988052 7.0862229,9.97122078 C7.29195003,9.84090673 7.44356974,9.63855211 7.54108203,9.36388583 L7.55464427,9.32415584 C7.66458626,9.016 7.71960916,8.5758961 7.71960916,8.00363636 C7.71960916,7.87835777 7.71747017,7.75935706 7.71319068,7.6466297 L7.70819763,7.53599329 L7.70819763,7.53599329 L7.70177725,7.42953811 C7.67680769,7.06426098 7.62560473,6.77579556 7.54810382,6.56394805 C7.49962137,6.42327273 7.4293374,6.29776623 7.33694046,6.18774026 C7.25347176,6.09080519 7.14768244,6.00488312 7.02019542,5.93018182 C6.86187481,5.83771429 6.60461679,5.76498701 6.24831756,5.71220779 C5.85682443,5.65953247 5.39494351,5.63303896 4.86267481,5.63303896 Z M14.9813418,8.49898951 L14.7887219,8.49900823 L14.483143,8.50021489 L14.483143,8.50021489 L14.1492495,8.50347475 L14.1492495,8.50347475 L13.8983364,8.50770387 L13.8983364,8.50770387 L13.7154941,8.51207885 L13.7154941,8.51207885 L13.5887963,8.51593933 L13.5887963,8.51593933 L13.433777,8.5218599 L13.433777,8.5218599 L13.2946549,8.52866527 L13.2946549,8.52866527 L13.1714288,8.5363566 L13.1714288,8.5363566 L13.1157765,8.54053487 L13.1157765,8.54053487 L13.0640977,8.54493506 L13.0640977,8.54493506 C12.9097429,8.56083117 12.7784292,8.58026182 12.6703836,8.60315127 L12.6352305,8.61090909 C12.5471939,8.62857143 12.4680855,8.65506494 12.3976977,8.69038961 C12.3008366,8.74732468 12.2239084,8.83345455 12.1667053,8.94763636 C12.1139664,9.07542857 12.0875969,9.23615584 12.0875969,9.42971429 C12.0875969,9.61464935 12.1183267,9.76644156 12.1798901,9.88550649 C12.2368136,9.98697303 12.3216903,10.0679013 12.4348467,10.1282914 L12.4637252,10.142961 L12.5560183,10.1692468 C12.6352305,10.1956364 12.751713,10.2155844 12.9057771,10.2285714 L12.9661994,10.2355047 L12.9661994,10.2355047 L13.0301946,10.2421193 L13.0301946,10.2421193 L13.0977627,10.2484157 L13.0977627,10.2484157 L13.2058134,10.2572642 L13.2058134,10.2572642 L13.2823128,10.2627664 L13.2823128,10.2627664 L13.3623845,10.2679514 L13.3623845,10.2679514 L13.4891895,10.2751351 L13.4891895,10.2751351 L13.6240311,10.2816071 L13.6240311,10.2816071 L13.7183901,10.2855269 L13.7183901,10.2855269 L13.8666249,10.2908153 L13.8666249,10.2908153 L14.0228948,10.2953949 L14.0228948,10.2953949 L14.2437529,10.3004006 L14.2437529,10.3004006 L14.4788933,10.3041509 L14.4788933,10.3041509 L14.7283149,10.3066486 L14.7283149,10.3066486 L14.9920162,10.3078961 L14.9920162,10.3078961 L15.1993874,10.3079776 L15.1993874,10.3079776 L15.4030394,10.3068635 L15.4030394,10.3068635 L15.5331031,10.3053784 L15.5331031,10.3053784 L15.6586041,10.3032997 L15.6586041,10.3032997 L15.7795431,10.3006279 L15.7795431,10.3006279 L15.8959206,10.2973633 L15.8959206,10.2973633 L16.0619355,10.2913554 L16.0619355,10.2913554 L16.1669123,10.28661 L16.1669123,10.28661 L16.2673298,10.2812729 L16.2673298,10.2812729 L16.3631888,10.2753444 L16.3631888,10.2753444 L16.4544898,10.2688247 L16.4544898,10.2688247 L16.5412336,10.2617143 L16.5412336,10.2617143 L16.6341129,10.2521526 C16.6793808,10.2471714 16.7228912,10.2418895 16.7646437,10.2363068 L16.845805,10.2247401 L16.845805,10.2247401 L16.9222784,10.2123706 C17.0828918,10.1847001 17.2104917,10.151374 17.3050593,10.1123736 L17.3262962,10.1032727 C17.4715359,10.0461299 17.5770137,9.96446753 17.6430412,9.85890909 C17.7090687,9.73558442 17.7420824,9.58379221 17.7420824,9.40332468 C17.7420824,9.22296104 17.7047084,9.07979221 17.6298565,8.97412987 C17.5507481,8.86420779 17.4318779,8.77828571 17.2735573,8.71667532 C17.1273124,8.66224321 16.9221153,8.61829537 16.6577743,8.58492769 L16.5620214,8.57359033 C16.5129167,8.56814146 16.4619695,8.56302243 16.4091786,8.55823377 L16.3680685,8.55389575 L16.3680685,8.55389575 L16.2825338,8.54571906 C16.2679098,8.54441169 16.2531017,8.543132 16.2381094,8.54187995 L16.1459465,8.53469909 L16.1459465,8.53469909 L16.0493651,8.5281799 L16.0493651,8.5281799 L15.9483655,8.52232059 L15.9483655,8.52232059 L15.8429479,8.51711941 L15.8429479,8.51711941 L15.7331125,8.51257458 L15.7331125,8.51257458 L15.5600767,8.50698409 L15.5600767,8.50698409 L15.4391981,8.50407236 L15.4391981,8.50407236 L15.3139026,8.50181077 L15.3139026,8.50181077 L15.1176783,8.49963351 L15.1176783,8.49963351 L14.9813418,8.49898951 L14.9813418,8.49898951 Z" id="pay" fill="#1D75AE"></path>
                        </g>
                    </g>
                </g>
            </g>
        </g>
    </g>
</svg>