<?xml version="1.0" encoding="UTF-8"?>
<svg width="54px" height="20px" viewBox="0 0 54 20" version="1.1" xmlns="http://www.w3.org/2000/svg" xmlns:xlink="http://www.w3.org/1999/xlink">
    <title>08A2AA1E-A571-4B2E-914A-5E3D701AD219</title>
    <g id="Dizains" stroke="none" stroke-width="1" fill="none" fill-rule="evenodd">
        <g id="01.01.-Homepage" transform="translate(-385.000000, -4459.000000)">
            <g id="Footer" transform="translate(0.000000, 3987.000000)">
                <g id="Logotypes" transform="translate(215.000000, 472.000000)">
                    <g id="Luminor" transform="translate(170.000000, 0.000000)">
                        <rect id="viewbox" x="0" y="0" width="54" height="20"></rect>
                        <g id="asset" transform="translate(0.000000, 4.000000)" fill="#481335" fill-rule="nonzero">
                            <path d="M51.496541,11.8006461 L51.496541,9.0263036 C51.496541,8.0738348 51.6749613,7.4702353 52.2492514,6.9607753 C52.9796593,6.3017997 54,6.3128749 54,6.3128749 L54,4.25842178 C51.8199277,4.25842178 51.3961797,5.46008306 51.3961797,5.46008306 L50.7717088,4.44670051 L49.4670108,4.44670051 L49.4670108,11.8006461 L51.496541,11.8006461 L51.496541,11.8006461 Z M10.8,11.9944624 L10.8,11.9944624 C12.7403201,11.9944624 13.2477026,10.7928011 13.2477026,10.7928011 L13.8721735,11.8061837 L15.1768715,11.8061837 L15.1768715,4.45223812 L13.1473412,4.45223812 L13.1473412,8.1015228 C13.1473412,9.0539917 12.8518327,9.674204 12.3834796,9.9676973 C12.1548787,10.1172127 11.7868869,10.1836641 11.4411977,10.1836641 C10.2703149,10.1836641 9.9748064,9.5246885 9.9748064,8.4337794 L9.9748064,4.45223812 L7.93412494,4.45223812 L7.93412494,9.0263036 C7.93970057,11.0807568 8.97119257,11.9944624 10.8,11.9944624 M37.011048,4.25842178 C37.0221993,4.25842178 37.0221993,4.25842178 37.011048,4.25842178 C35.0707279,4.25842178 34.5633454,5.46008306 34.5633454,5.46008306 L33.9500258,4.44670051 L32.6453278,4.44670051 L32.6453278,11.8006461 L34.674858,11.8006461 L34.674858,8.1624365 C34.674858,7.2099677 34.9703665,6.5897554 35.4387197,6.2962621 C35.6673206,6.1467467 36.0353123,6.0802953 36.3810015,6.0802953 C37.5518844,6.0802953 37.8473929,6.7392709 37.8473929,7.83018 L37.8473929,11.8006461 L39.8769231,11.8006461 L39.8769231,7.2265805 C39.8713474,5.17212737 38.8454311,4.25842178 37.011048,4.25842178 M25.7649974,4.25842178 C23.8915849,4.25842178 23.3507486,5.36040609 23.3395973,5.37148131 L23.3005679,5.46008306 L23.2503872,5.38255653 C22.7430046,4.62390401 22.0237481,4.26395939 20.8249871,4.26395939 C18.9515746,4.26395939 18.4107383,5.3659437 18.399587,5.37701892 L18.3605576,5.46562067 L17.7360867,4.45223812 L16.4313887,4.45223812 L16.4313887,5.46562067 L16.4313887,6.9884633 L16.4313887,11.8061837 L18.4609189,11.8061837 L18.4609189,8.1679742 C18.4609189,6.7448085 18.9571502,6.0858329 20.0053691,6.0858329 C20.9364997,6.0858329 21.3713991,6.6340563 21.3713991,7.8135671 L21.3713991,11.8061837 L23.4009293,11.8061837 L23.4009293,8.1181357 C23.4009293,6.7337333 23.8860093,6.0802953 24.9175013,6.0802953 C25.5196696,6.0802953 26.3114094,6.2574988 26.3114094,7.83018 L26.3114094,11.8006461 L28.3411663,11.8006461 L28.3411663,7.2265805 C28.3520909,5.17212737 27.5491998,4.25842178 25.7649974,4.25842178 M2.10758906,9.701892 L2.10758906,1.49515459 L0,1.49515459 L0,11.8006461 L7.23717088,11.8006461 L7.23717088,9.7074296 L2.10758906,9.7074296 L2.10758906,9.701892 Z M28.926381,1.49515459 L30.4318018,2.99030918 L31.9372225,1.49515459 L30.4318018,0 L28.926381,1.49515459 Z M29.3780072,4.4411629 L31.4855963,4.4411629 L31.4855963,11.7951084 L29.3780072,11.7951084 L29.3780072,4.4411629 Z M44.6162106,4.25842178 C43.4174497,4.25842178 42.3971089,4.65159206 41.6555498,5.39916936 C40.9641714,6.0969082 40.5850284,7.0715275 40.5850284,8.1236733 C40.5850284,9.1758191 40.9585958,10.1504384 41.6555498,10.8481772 C42.3859577,11.5957545 43.4174497,12 44.6162106,12 C46.99143,12 48.6529685,10.4051684 48.6529685,8.1236733 C48.6529685,5.84217813 46.99143,4.25842178 44.6162106,4.25842178 M44.6050594,10.283341 C43.4453278,10.283341 42.6145586,9.3807107 42.6145586,8.1292109 C42.6145586,6.8998616 43.4676304,5.97508076 44.6050594,5.97508076 C45.7647909,5.97508076 46.6234383,6.8998616 46.6234383,8.1292109 C46.6234383,9.3696354 45.7759422,10.283341 44.6050594,10.283341" id="logo"></path>
                        </g>
                    </g>
                </g>
            </g>
        </g>
    </g>
</svg>